<?xml version="1.0" encoding="utf-8"?>
<!-- Generator: Adobe Illustrator 16.0.0, SVG Export Plug-In . SVG Version: 6.00 Build 0)  -->
<!DOCTYPE svg PUBLIC "-//W3C//DTD SVG 1.1//EN" "http://www.w3.org/Graphics/SVG/1.1/DTD/svg11.dtd">
<svg version="1.1" id="Calque_1" xmlns="http://www.w3.org/2000/svg" xmlns:xlink="http://www.w3.org/1999/xlink" x="0px" y="0px"
     width="242.565px" height="243.226px" viewBox="0 0 242.565 243.226" enable-background="new 0 0 242.565 243.226"
     xml:space="preserve">
<g>
    <path fill="#D17C40" d="M242.565,91.623c-1.11-3.183-2.828-6.196-5.375-8.742L137.39,7.189c-13.013-9.586-19.646-9.586-32.445,0
        L5.574,82.88c-2.546,2.546-4.278,5.559-5.381,8.742l120.971,106.122L242.565,91.623z"/>
    <path fill="#E4E6E6" d="M30.32,23.416h181.925v151.588H30.32V23.416z"/>
    <path fill="#E8AB55" d="M12.487,233.099l108.647-84.625l108.928,84.639c4.019-2.058,7.329-5.241,9.535-9.178l-102.2-80.287
        c-12.909-9.52-19.697-9.669-32.444,0L2.894,223.794C5.093,227.785,8.41,231.026,12.487,233.099z"/>
    <path fill="#C2C5C5" d="M60.641,61.316v15.161h121.283V61.316H60.641z M60.641,106.783h121.283V91.638H60.641V106.783z"/>
    <path fill="#E8AB55" d="M121.283,182.584l121.282-90.962v128.86c0,12.57-10.192,22.743-22.741,22.743H22.74
        C10.171,243.226,0,233.053,0,220.483V91.623L121.283,182.584z"/>
    <path fill="#F3B45A" d="M222.245,242.982c4.908-0.526,9.356-2.584,12.82-5.736l-113.931-88.788L7.469,237.246
        c3.472,3.168,7.906,5.21,12.836,5.744L222.245,242.982z"/>
    <path fill="#F8D7A7" d="M2.887,231.383c2.206,3.979,5.522,7.224,9.6,9.318l108.647-84.625l108.928,84.625
        c4.019-2.058,7.329-5.233,9.535-9.188l-102.2-80.302c-14.331-10.594-17.803-11.088-32.444,0L2.887,231.383z"/>
</g>
</svg>
