<?xml version="1.0" encoding="utf-8"?>
<!-- Generator: Adobe Illustrator 16.0.0, SVG Export Plug-In . SVG Version: 6.00 Build 0)  -->
<!DOCTYPE svg PUBLIC "-//W3C//DTD SVG 1.1//EN" "http://www.w3.org/Graphics/SVG/1.1/DTD/svg11.dtd">
<svg version="1.1" id="Capa_1" xmlns="http://www.w3.org/2000/svg" xmlns:xlink="http://www.w3.org/1999/xlink" x="0px" y="0px"
	 width="254px" height="254px" viewBox="0 0 254 254" enable-background="new 0 0 254 254" xml:space="preserve">
<circle fill="#FFFFFF" cx="133.75" cy="117.25" r="93.25"/>
<g>
	<path d="M39.812,34.647c-50.996,48.144-53.307,128.51-5.163,179.505c0.846,0.899,1.707,1.783,2.58,2.654
		c49.589,49.592,129.991,49.592,179.577,0c49.592-49.586,49.592-129.988,0-179.577C168.23-11.389,89.789-12.534,39.812,34.647z
		 M64.17,89.308l25.139-25.14l37.711,37.711l37.711-37.711l25.142,25.14l-37.711,37.724l37.714,37.697l-25.142,25.143
		l-37.712-37.713l-37.711,37.713l-25.14-25.143l37.708-37.697L64.17,89.308z"/>
</g>
</svg>
