<?xml version="1.0" encoding="iso-8859-1"?>
<!-- Generator: Adobe Illustrator 18.1.1, SVG Export Plug-In . SVG Version: 6.00 Build 0)  -->
<svg version="1.1" id="Capa_1" xmlns="http://www.w3.org/2000/svg" xmlns:xlink="http://www.w3.org/1999/xlink" x="0px" y="0px"
	 viewBox="0 0 22.296 22.296" style="enable-background:new 0 0 22.296 22.296;" xml:space="preserve">
<g>
	<g>
		<g>
			<path style="fill:#030104;" d="M13.149,18.625l1.846,0.729c-1.015,1.178-2.253,1.925-3.716,2.234
				c-1.462,0.315-3.125,0.171-4.979-0.429c-2.94-0.946-4.854-2.449-5.748-4.502c-0.697-1.641-0.736-3.438-0.105-5.393
				C1.202,8.93,2.523,7.34,4.414,6.492c1.89-0.846,3.951-0.912,6.191-0.19c2.513,0.812,4.268,2.143,5.276,3.996
				c1.005,1.851,1.019,4.192,0.031,7.028L4.716,13.711c-0.323,1.116-0.244,2.091,0.25,2.929c0.489,0.838,0.599,1.032,2.279,1.753
				C7.919,18.685,10.506,19.883,13.149,18.625z M12.212,13.613c0.314-1.087,0.244-2.016-0.208-2.781
				c-0.453-0.767-1.139-1.296-2.048-1.592C8.981,8.925,8.079,8.96,7.248,9.349c-0.823,0.388-1.397,1.089-1.714,2.11L12.212,13.613z"
				/>
		</g>
		<path style="fill:#030104;" d="M12.066,6.184c0,0,3.298-6.768,10.23-3.559C22.297,2.625,18.265,7.309,12.066,6.184z"/>
		<path style="fill:#030104;" d="M11.587,5.443c0,0,1.735-4.074-3.771-4.898C7.816,0.545,7.988,5.617,11.587,5.443z"/>
	</g>
</g>
<g>
</g>
<g>
</g>
<g>
</g>
<g>
</g>
<g>
</g>
<g>
</g>
<g>
</g>
<g>
</g>
<g>
</g>
<g>
</g>
<g>
</g>
<g>
</g>
<g>
</g>
<g>
</g>
<g>
</g>
</svg>
