<?xml version="1.0" encoding="utf-8"?>
<!-- Generator: Adobe Illustrator 16.0.0, SVG Export Plug-In . SVG Version: 6.00 Build 0)  -->
<!DOCTYPE svg PUBLIC "-//W3C//DTD SVG 1.1//EN" "http://www.w3.org/Graphics/SVG/1.1/DTD/svg11.dtd">
<svg version="1.1" id="Layer_1" xmlns="http://www.w3.org/2000/svg" xmlns:xlink="http://www.w3.org/1999/xlink" x="0px" y="0px"
	 width="455.5px" height="133px" viewBox="-2 -3 455.5 133" enable-background="new -2 -3 455.5 133" xml:space="preserve">
<path fill="#C58B75" d="M12.75,45"/>
<path fill="#C2C575" d="M46.845,72.25c0-17.397,14.327-31.5,32-31.5c11.149,0,20.962,5.616,26.691,14.127
	C102.444,40.661,89.615,30,74.25,30c-17.673,0-32,14.103-32,31.5c0,6.422,1.957,12.393,5.309,17.373
	C47.095,76.736,46.845,74.521,46.845,72.25z"/>
<path fill="#C2C575" d="M76.036,24.767c22.146,0,40.301,17.447,42.092,39.644c0.096-1.19,0.158-2.391,0.158-3.606
	c0-23.886-18.916-43.25-42.25-43.25s-42.25,19.364-42.25,43.25c0,1.216,0.062,2.416,0.158,3.606
	C35.735,42.214,53.889,24.767,76.036,24.767z"/>
<path fill="#C2C575" d="M78.206,5c-14.915,0-28.292,6.424-37.431,16.593C49.583,13.919,61.179,9.25,73.893,9.25
	c27.545,0,49.875,21.882,49.875,48.875c0,12.377-4.704,23.671-12.444,32.282c10.276-8.953,16.757-21.998,16.757-36.532
	C128.081,26.882,105.751,5,78.206,5z"/>
<path fill="#C58B75" d="M86.44,44.856c0.79,2.99,1.222,6.141,1.222,9.401c0,19.054-14.438,34.5-32.25,34.5
	c-12.179,0-22.778-7.225-28.265-17.883c2.666,16.258,16.204,28.633,32.515,28.633c18.226,0,33-15.446,33-34.5
	C92.662,57.483,90.351,50.527,86.44,44.856z"/>
<path fill="#C58B75" d="M98.844,64.561c0.001,0.141,0.011,0.28,0.011,0.421c0,21.333-18.136,38.625-40.508,38.625
	c-22.372,0-40.507-17.293-40.507-38.625c0-0.142,0.01-0.281,0.011-0.423c-0.73,2.865-1.129,5.85-1.129,8.923
	c0,21.332,18.636,38.625,41.625,38.625c22.989,0,41.625-17.293,41.625-38.625C99.972,70.41,99.574,67.426,98.844,64.561z"/>
<path fill="#C58B75" d="M62.605,121.105c-28.719,0-52-22.723-52-50.75c0-17.292,8.868-32.556,22.401-41.717
	C15.607,36.846,3.605,54.232,3.605,74.355c0,28.027,23.281,50.75,52,50.75c11.001,0,21.197-3.342,29.599-9.031
	C78.37,119.298,70.704,121.105,62.605,121.105z"/>
<g>
	<path fill="#8F4319" d="M85.016,82.855"/>
	<path fill="#8F4319" d="M80.833,75.68c0,0-6.167,3.737-8.833,4.32c-1.501,0.328-4.994,1-10.833-1.834
		C55.792,75.559,55,68.5,55,68.5h16.333c0,0,16.1,0.166,20.936,0c0.147-1.091,0.23-2.203,0.23-3.334
		C92.5,51.543,81.457,40.5,67.833,40.5S43.166,51.543,43.166,65.167S54.21,89.833,67.833,89.833c6.68,0,12.736-2.659,17.178-6.974
		L80.833,75.68z M58.067,52.757c1.928-2.27,5.441-3.641,9.433-3.776c4.302-0.146,6.818,1.403,9.25,3.77
		c3.083,3,3.083,8.083,3.083,8.083L55,60.5C55,60.5,55.667,55.583,58.067,52.757z"/>
</g>
<path fill="#8F4319" d="M144.167,23.5l13-4.333L156.333,44c0,0,6.833-5.249,13.667-4.291S187,44.834,187.334,53
	c0.332,8.167,0,36.833,0,36.833h-12.168L175,57c0,0-0.139-2.121-2.358-4.192c-2.475-2.308-2.475-2.308-7.382-2.1
	c-4.833,1.167-8.926,3.792-8.926,3.792l0.5,35.333h-12.667V23.5L144.167,23.5z"/>
<g>
	<path fill="#9AA017" d="M211.333,19.167v12.166h22.334v12.021c6.515,2.893,11.394,9.397,12.666,17.309V31h22V19.167H211.333z"/>
	<path fill="#9AA017" d="M233.667,86.188v1.725h12.666v-19.03C245.061,76.793,240.182,83.296,233.667,86.188z"/>
</g>
<path fill="#8F4319" d="M219.176,39.579c-12.791,0-23.158,11.419-23.158,25.503c0,14.087,10.367,25.506,23.158,25.506
	c12.787,0,23.158-11.419,23.158-25.506C242.334,50.998,231.963,39.579,219.176,39.579z M219.725,80.666
	c-6.752,0-12.225-7.088-12.225-15.833c0-8.744,5.473-15.833,12.225-15.833c6.75,0,12.226,7.089,12.226,15.833
	C231.948,73.578,226.475,80.666,219.725,80.666z"/>
<path fill="#9AA017" d="M305.428,58.878c0,0,12.905-9.055,12.572-19.3s-8.333-20.412-19-20.412s-27,0-27,0v68.746h13.667V59.667
	h7.167L311,87.912h15L305.428,58.878z M295.667,49.581h-12v-20c0,0,10.167,0.167,12.833,0s8,4.667,8,10.079
	C304.5,48.081,295.667,49.581,295.667,49.581z"/>
<rect x="327.667" y="19.167" fill="#9AA017" width="13" height="69.5"/>
<g>
	<path fill="#8F4319" d="M131.36,75.627c-0.003-0.002,0.006-0.016,0.005-0.02c-2.701,2.928-6.479,4.754-10.669,4.754
		c-8.207,0-14.86-6.98-14.86-15.59s6.653-15.59,14.86-15.59c4.03,0,7.679,1.689,10.356,4.422c-0.025-0.029-0.056-0.064-0.056-0.064
		l6.03-7.22c-4.247-4.372-9.996-7.062-16.33-7.062c-13.066,0-23.659,11.423-23.659,25.515c0,14.091,10.593,25.514,23.659,25.514
		c6.608,0,12.581-2.925,16.873-7.636C137.409,82.467,131.606,75.822,131.36,75.627z"/>
</g>
<g>
	<path fill="#FFFFFF" d="M135.82,112.439c0,1.162-0.171,2.202-0.513,3.12s-0.845,1.694-1.509,2.329s-1.484,1.118-2.461,1.45
		s-2.1,0.498-3.369,0.498c-1.191,0-2.261-0.149-3.208-0.446c-0.947-0.298-1.748-0.75-2.402-1.355s-1.155-1.359-1.501-2.264
		c-0.347-0.902-0.52-1.96-0.52-3.171v-11.528c0-0.098,0.029-0.186,0.088-0.264s0.164-0.142,0.315-0.19s0.349-0.088,0.593-0.117
		s0.557-0.044,0.938-0.044c0.371,0,0.679,0.015,0.923,0.044s0.439,0.068,0.586,0.117s0.251,0.112,0.315,0.19
		s0.095,0.166,0.095,0.264v11.191c0,0.752,0.093,1.404,0.278,1.955c0.186,0.553,0.452,1.009,0.798,1.37s0.762,0.633,1.245,0.813
		s1.023,0.271,1.619,0.271c0.605,0,1.147-0.093,1.626-0.278s0.884-0.456,1.216-0.813s0.588-0.796,0.769-1.318
		s0.271-1.116,0.271-1.78v-11.411c0-0.098,0.029-0.186,0.088-0.264s0.161-0.142,0.308-0.19s0.344-0.088,0.593-0.117
		s0.559-0.044,0.93-0.044s0.676,0.015,0.916,0.044s0.432,0.068,0.579,0.117s0.249,0.112,0.308,0.19s0.088,0.166,0.088,0.264V112.439
		z"/>
	<path fill="#FFFFFF" d="M152.197,119.002c0,0.098-0.029,0.184-0.088,0.256c-0.059,0.074-0.156,0.135-0.293,0.184
		s-0.325,0.085-0.564,0.109s-0.535,0.037-0.886,0.037c-0.361,0-0.662-0.013-0.901-0.037s-0.427-0.061-0.564-0.109
		s-0.234-0.109-0.293-0.184c-0.059-0.072-0.088-0.158-0.088-0.256v-7.456c0-0.635-0.046-1.133-0.139-1.494s-0.227-0.671-0.403-0.931
		c-0.176-0.258-0.403-0.458-0.681-0.6s-0.603-0.213-0.974-0.213c-0.469,0-0.942,0.171-1.421,0.513s-0.977,0.84-1.494,1.494v8.687
		c0,0.098-0.029,0.184-0.088,0.256c-0.059,0.074-0.159,0.135-0.3,0.184s-0.33,0.085-0.564,0.109s-0.532,0.037-0.894,0.037
		s-0.659-0.013-0.894-0.037s-0.422-0.061-0.564-0.109s-0.242-0.109-0.3-0.184c-0.059-0.072-0.088-0.158-0.088-0.256v-13.066
		c0-0.098,0.024-0.184,0.073-0.256c0.049-0.074,0.137-0.135,0.264-0.184s0.291-0.085,0.491-0.109s0.452-0.037,0.754-0.037
		c0.313,0,0.571,0.013,0.776,0.037s0.364,0.061,0.476,0.109s0.193,0.109,0.242,0.184c0.049,0.072,0.073,0.158,0.073,0.256v1.509
		c0.723-0.781,1.458-1.367,2.205-1.758s1.526-0.586,2.336-0.586c0.889,0,1.638,0.146,2.249,0.439s1.104,0.691,1.479,1.194
		s0.647,1.091,0.813,1.765s0.249,1.484,0.249,2.432V119.002z"/>
	<path fill="#FFFFFF" d="M167.886,112.088c0,0.449-0.101,0.781-0.301,0.996s-0.476,0.322-0.827,0.322h-7.954
		c0,0.557,0.066,1.063,0.198,1.516c0.132,0.455,0.342,0.841,0.63,1.158s0.659,0.559,1.113,0.725s0.999,0.249,1.633,0.249
		c0.645,0,1.211-0.046,1.699-0.14c0.488-0.092,0.911-0.194,1.267-0.307s0.652-0.215,0.886-0.309
		c0.234-0.092,0.425-0.139,0.571-0.139c0.088,0,0.161,0.018,0.22,0.051c0.059,0.035,0.107,0.096,0.146,0.184
		s0.066,0.213,0.081,0.373c0.015,0.162,0.022,0.364,0.022,0.608c0,0.215-0.005,0.398-0.015,0.55s-0.024,0.28-0.044,0.388
		s-0.049,0.198-0.088,0.271c-0.039,0.074-0.09,0.145-0.154,0.213s-0.237,0.161-0.52,0.278s-0.645,0.232-1.084,0.345
		c-0.439,0.111-0.942,0.209-1.509,0.293c-0.566,0.082-1.172,0.124-1.816,0.124c-1.162,0-2.18-0.146-3.054-0.439
		s-1.604-0.737-2.19-1.333s-1.023-1.348-1.311-2.256s-0.432-1.973-0.432-3.193c0-1.162,0.151-2.209,0.454-3.143
		c0.303-0.932,0.742-1.723,1.318-2.373c0.576-0.648,1.277-1.145,2.102-1.486s1.755-0.513,2.791-0.513
		c1.094,0,2.029,0.161,2.805,0.483s1.414,0.77,1.912,1.34c0.498,0.572,0.864,1.248,1.099,2.029s0.352,1.631,0.352,2.549V112.088z
		 M164.312,111.033c0.029-1.035-0.178-1.848-0.623-2.439c-0.444-0.59-1.13-0.886-2.058-0.886c-0.469,0-0.876,0.088-1.223,0.264
		s-0.635,0.413-0.864,0.71c-0.229,0.299-0.405,0.65-0.527,1.055c-0.122,0.406-0.193,0.838-0.212,1.297H164.312z"/>
	<path fill="#FFFFFF" d="M189.155,117.991c0,0.283-0.013,0.521-0.037,0.71c-0.024,0.191-0.061,0.345-0.109,0.462
		s-0.109,0.203-0.184,0.257c-0.072,0.054-0.153,0.08-0.241,0.08h-9.521c-0.322,0-0.593-0.096-0.813-0.285
		c-0.219-0.191-0.329-0.501-0.329-0.931v-16.523c0-0.43,0.11-0.739,0.329-0.931c0.221-0.189,0.491-0.285,0.813-0.285h9.463
		c0.088,0,0.166,0.024,0.234,0.073s0.127,0.135,0.176,0.257s0.085,0.277,0.11,0.469c0.023,0.189,0.036,0.432,0.036,0.725
		c0,0.273-0.013,0.506-0.036,0.695c-0.025,0.191-0.062,0.345-0.11,0.462s-0.107,0.203-0.176,0.257s-0.146,0.08-0.234,0.08h-6.768
		v4.629h5.728c0.088,0,0.168,0.027,0.242,0.08c0.072,0.055,0.134,0.138,0.183,0.25s0.085,0.264,0.11,0.453
		c0.023,0.191,0.036,0.423,0.036,0.696c0,0.283-0.013,0.518-0.036,0.703c-0.025,0.186-0.062,0.335-0.11,0.446
		c-0.049,0.113-0.11,0.193-0.183,0.242c-0.074,0.049-0.154,0.073-0.242,0.073h-5.728v5.347h6.826c0.088,0,0.169,0.027,0.241,0.08
		c0.074,0.055,0.135,0.14,0.184,0.257s0.085,0.271,0.109,0.462C189.143,117.471,189.155,117.708,189.155,117.991z"/>
	<path fill="#FFFFFF" d="M204.814,119.002c0,0.098-0.029,0.184-0.088,0.256c-0.059,0.074-0.156,0.135-0.293,0.184
		s-0.325,0.085-0.563,0.109c-0.24,0.024-0.535,0.037-0.887,0.037c-0.361,0-0.662-0.013-0.9-0.037
		c-0.24-0.024-0.428-0.061-0.564-0.109s-0.234-0.109-0.293-0.184c-0.059-0.072-0.088-0.158-0.088-0.256v-7.456
		c0-0.635-0.047-1.133-0.139-1.494c-0.094-0.361-0.228-0.671-0.403-0.931c-0.176-0.258-0.403-0.458-0.681-0.6
		c-0.279-0.142-0.604-0.213-0.975-0.213c-0.469,0-0.942,0.171-1.421,0.513s-0.977,0.84-1.494,1.494v8.687
		c0,0.098-0.029,0.184-0.088,0.256c-0.059,0.074-0.159,0.135-0.3,0.184c-0.143,0.049-0.33,0.085-0.564,0.109
		s-0.532,0.037-0.894,0.037s-0.659-0.013-0.894-0.037s-0.423-0.061-0.564-0.109s-0.241-0.109-0.3-0.184
		c-0.059-0.072-0.088-0.158-0.088-0.256v-13.066c0-0.098,0.024-0.184,0.073-0.256c0.049-0.074,0.137-0.135,0.264-0.184
		s0.29-0.085,0.49-0.109s0.452-0.037,0.755-0.037c0.313,0,0.571,0.013,0.776,0.037s0.363,0.061,0.477,0.109
		c0.111,0.049,0.192,0.109,0.241,0.184c0.049,0.072,0.073,0.158,0.073,0.256v1.509c0.723-0.781,1.457-1.367,2.205-1.758
		c0.746-0.391,1.525-0.586,2.336-0.586c0.889,0,1.638,0.146,2.248,0.439s1.104,0.691,1.48,1.194
		c0.375,0.503,0.646,1.091,0.813,1.765s0.249,1.484,0.249,2.432V119.002z"/>
	<path fill="#FFFFFF" d="M215.889,117.713c0,0.43-0.027,0.76-0.081,0.988c-0.054,0.23-0.124,0.392-0.212,0.484
		s-0.218,0.176-0.388,0.248c-0.172,0.074-0.372,0.137-0.602,0.191c-0.229,0.053-0.479,0.095-0.746,0.124
		c-0.27,0.029-0.54,0.044-0.813,0.044c-0.732,0-1.367-0.093-1.904-0.278s-0.981-0.471-1.333-0.856s-0.61-0.872-0.776-1.458
		s-0.249-1.279-0.249-2.08v-6.694h-1.567c-0.186,0-0.327-0.114-0.425-0.344s-0.146-0.613-0.146-1.15
		c0-0.283,0.012-0.522,0.037-0.718c0.023-0.195,0.061-0.349,0.109-0.462c0.049-0.111,0.109-0.192,0.184-0.241
		c0.072-0.049,0.158-0.073,0.256-0.073h1.553v-2.915c0-0.098,0.026-0.186,0.08-0.264s0.151-0.144,0.293-0.198
		c0.142-0.053,0.332-0.092,0.572-0.117c0.238-0.023,0.534-0.036,0.886-0.036c0.361,0,0.661,0.013,0.901,0.036
		c0.238,0.025,0.427,0.064,0.563,0.117c0.137,0.055,0.234,0.12,0.293,0.198s0.088,0.166,0.088,0.264v2.915h2.842
		c0.098,0,0.183,0.024,0.257,0.073c0.072,0.049,0.134,0.13,0.183,0.241c0.049,0.113,0.085,0.267,0.11,0.462
		c0.023,0.195,0.036,0.435,0.036,0.718c0,0.537-0.049,0.921-0.146,1.15s-0.239,0.344-0.425,0.344h-2.856v6.138
		c0,0.713,0.112,1.248,0.337,1.604s0.625,0.534,1.201,0.534c0.195,0,0.371-0.017,0.527-0.052c0.156-0.033,0.295-0.072,0.418-0.117
		c0.121-0.043,0.224-0.082,0.307-0.117c0.083-0.033,0.159-0.051,0.228-0.051c0.059,0,0.114,0.018,0.169,0.051
		c0.053,0.035,0.095,0.104,0.124,0.205c0.029,0.104,0.056,0.242,0.081,0.418C215.876,117.215,215.889,117.439,215.889,117.713z"/>
	<path fill="#FFFFFF" d="M226.948,107.151c0,0.352-0.01,0.64-0.029,0.864s-0.049,0.4-0.088,0.527s-0.091,0.215-0.154,0.264
		s-0.144,0.073-0.241,0.073c-0.078,0-0.166-0.017-0.264-0.052c-0.098-0.033-0.208-0.07-0.329-0.109
		c-0.123-0.039-0.257-0.075-0.403-0.109s-0.308-0.052-0.483-0.052c-0.205,0-0.41,0.042-0.615,0.124
		c-0.205,0.084-0.418,0.213-0.637,0.389c-0.221,0.176-0.45,0.41-0.689,0.703s-0.495,0.654-0.769,1.084v8.145
		c0,0.098-0.029,0.184-0.088,0.256c-0.059,0.074-0.159,0.135-0.3,0.184c-0.143,0.049-0.33,0.085-0.564,0.109
		s-0.532,0.037-0.894,0.037s-0.659-0.013-0.894-0.037s-0.423-0.061-0.564-0.109s-0.241-0.109-0.3-0.184
		c-0.059-0.072-0.088-0.158-0.088-0.256v-13.066c0-0.098,0.024-0.184,0.073-0.256c0.049-0.074,0.137-0.135,0.264-0.184
		s0.29-0.085,0.49-0.109s0.452-0.037,0.755-0.037c0.313,0,0.571,0.013,0.776,0.037s0.363,0.061,0.477,0.109
		c0.111,0.049,0.192,0.109,0.241,0.184c0.049,0.072,0.073,0.158,0.073,0.256v1.626c0.342-0.488,0.664-0.891,0.967-1.208
		s0.591-0.569,0.864-0.755s0.547-0.315,0.82-0.388c0.273-0.074,0.547-0.11,0.82-0.11c0.127,0,0.264,0.007,0.41,0.022
		c0.146,0.014,0.298,0.039,0.454,0.072c0.156,0.035,0.293,0.074,0.41,0.117c0.117,0.045,0.202,0.091,0.256,0.14
		s0.093,0.103,0.117,0.161s0.047,0.139,0.066,0.242c0.02,0.102,0.034,0.256,0.044,0.461S226.948,106.8,226.948,107.151z"/>
	<path fill="#FFFFFF" d="M240.952,112.088c0,0.449-0.101,0.781-0.301,0.996s-0.476,0.322-0.827,0.322h-7.954
		c0,0.557,0.066,1.063,0.197,1.516c0.133,0.455,0.342,0.841,0.631,1.158c0.287,0.317,0.658,0.559,1.113,0.725
		c0.453,0.166,0.998,0.249,1.633,0.249c0.645,0,1.211-0.046,1.699-0.14c0.488-0.092,0.91-0.194,1.268-0.307
		c0.355-0.112,0.651-0.215,0.886-0.309c0.234-0.092,0.425-0.139,0.571-0.139c0.088,0,0.161,0.018,0.22,0.051
		c0.059,0.035,0.107,0.096,0.146,0.184s0.065,0.213,0.081,0.373c0.014,0.162,0.021,0.364,0.021,0.608
		c0,0.215-0.005,0.398-0.015,0.55s-0.024,0.28-0.044,0.388s-0.049,0.198-0.088,0.271c-0.039,0.074-0.091,0.145-0.154,0.213
		s-0.236,0.161-0.52,0.278s-0.645,0.232-1.084,0.345c-0.439,0.111-0.942,0.209-1.509,0.293c-0.566,0.082-1.172,0.124-1.816,0.124
		c-1.162,0-2.181-0.146-3.054-0.439c-0.875-0.293-1.604-0.737-2.19-1.333s-1.023-1.348-1.312-2.256s-0.432-1.973-0.432-3.193
		c0-1.162,0.151-2.209,0.454-3.143c0.303-0.932,0.742-1.723,1.318-2.373c0.576-0.648,1.276-1.145,2.103-1.486
		c0.824-0.342,1.755-0.513,2.79-0.513c1.094,0,2.028,0.161,2.806,0.483c0.775,0.322,1.413,0.77,1.911,1.34
		c0.498,0.572,0.864,1.248,1.099,2.029s0.352,1.631,0.352,2.549V112.088z M237.378,111.033c0.029-1.035-0.179-1.848-0.623-2.439
		c-0.444-0.59-1.13-0.886-2.058-0.886c-0.469,0-0.877,0.088-1.224,0.264s-0.635,0.413-0.863,0.71
		c-0.23,0.299-0.406,0.65-0.527,1.055c-0.123,0.406-0.193,0.838-0.213,1.297H237.378z"/>
	<path fill="#FFFFFF" d="M257.139,112.278c0,1.162-0.124,2.21-0.374,3.142c-0.248,0.934-0.612,1.727-1.091,2.381
		s-1.074,1.157-1.787,1.509s-1.528,0.527-2.446,0.527c-0.381,0-0.73-0.036-1.047-0.11c-0.318-0.072-0.626-0.186-0.924-0.336
		c-0.298-0.151-0.593-0.34-0.886-0.564s-0.596-0.488-0.908-0.791v6.152c0,0.098-0.029,0.186-0.088,0.264s-0.159,0.144-0.3,0.197
		c-0.143,0.054-0.33,0.096-0.564,0.125s-0.532,0.044-0.894,0.044s-0.659-0.015-0.894-0.044s-0.423-0.071-0.564-0.125
		s-0.241-0.119-0.3-0.197s-0.088-0.166-0.088-0.264v-18.252c0-0.098,0.024-0.184,0.073-0.256c0.049-0.074,0.134-0.135,0.256-0.184
		s0.283-0.085,0.484-0.109c0.199-0.024,0.451-0.037,0.754-0.037c0.293,0,0.539,0.013,0.74,0.037c0.199,0.024,0.36,0.061,0.482,0.109
		s0.208,0.109,0.257,0.184c0.049,0.072,0.073,0.158,0.073,0.256v1.538c0.381-0.391,0.754-0.734,1.121-1.032
		c0.365-0.298,0.739-0.547,1.12-0.748c0.381-0.199,0.773-0.349,1.179-0.446s0.838-0.146,1.297-0.146
		c0.957,0,1.772,0.188,2.446,0.563c0.674,0.377,1.224,0.892,1.647,1.546c0.426,0.654,0.735,1.416,0.931,2.285
		S257.139,111.292,257.139,112.278z M253.301,112.542c0-0.557-0.042-1.091-0.124-1.604c-0.084-0.512-0.226-0.969-0.426-1.369
		s-0.464-0.72-0.791-0.959s-0.734-0.359-1.223-0.359c-0.244,0-0.486,0.037-0.725,0.109c-0.24,0.074-0.484,0.193-0.732,0.359
		c-0.25,0.166-0.506,0.381-0.77,0.645s-0.542,0.591-0.835,0.981v4.307c0.518,0.654,1.011,1.16,1.479,1.517s0.957,0.534,1.465,0.534
		c0.479,0,0.887-0.122,1.223-0.366c0.338-0.244,0.613-0.564,0.828-0.959c0.215-0.396,0.373-0.843,0.477-1.341
		C253.249,113.538,253.301,113.04,253.301,112.542z"/>
	<path fill="#FFFFFF" d="M268.477,107.151c0,0.352-0.01,0.64-0.029,0.864s-0.049,0.4-0.088,0.527s-0.091,0.215-0.153,0.264
		c-0.064,0.049-0.145,0.073-0.242,0.073c-0.078,0-0.166-0.017-0.264-0.052c-0.098-0.033-0.208-0.07-0.33-0.109
		s-0.256-0.075-0.402-0.109s-0.308-0.052-0.483-0.052c-0.205,0-0.41,0.042-0.615,0.124c-0.205,0.084-0.417,0.213-0.638,0.389
		c-0.219,0.176-0.449,0.41-0.688,0.703c-0.24,0.293-0.496,0.654-0.77,1.084v8.145c0,0.098-0.029,0.184-0.088,0.256
		c-0.059,0.074-0.159,0.135-0.301,0.184s-0.329,0.085-0.563,0.109s-0.532,0.037-0.894,0.037s-0.659-0.013-0.894-0.037
		s-0.423-0.061-0.563-0.109c-0.143-0.049-0.242-0.109-0.301-0.184c-0.059-0.072-0.088-0.158-0.088-0.256v-13.066
		c0-0.098,0.024-0.184,0.073-0.256c0.049-0.074,0.137-0.135,0.264-0.184s0.29-0.085,0.491-0.109
		c0.199-0.024,0.451-0.037,0.754-0.037c0.313,0,0.571,0.013,0.776,0.037s0.363,0.061,0.476,0.109s0.193,0.109,0.242,0.184
		c0.049,0.072,0.073,0.158,0.073,0.256v1.626c0.342-0.488,0.664-0.891,0.967-1.208s0.591-0.569,0.864-0.755s0.547-0.315,0.82-0.388
		c0.273-0.074,0.547-0.11,0.82-0.11c0.127,0,0.264,0.007,0.41,0.022c0.146,0.014,0.298,0.039,0.454,0.072
		c0.156,0.035,0.293,0.074,0.41,0.117c0.117,0.045,0.202,0.091,0.257,0.14c0.053,0.049,0.092,0.103,0.117,0.161
		c0.023,0.059,0.046,0.139,0.065,0.242c0.02,0.102,0.034,0.256,0.044,0.461S268.477,106.8,268.477,107.151z"/>
	<path fill="#FFFFFF" d="M274.717,101.512c0,0.742-0.151,1.255-0.454,1.538s-0.864,0.425-1.685,0.425c-0.83,0-1.39-0.137-1.677-0.41
		c-0.289-0.273-0.433-0.767-0.433-1.479c0-0.742,0.148-1.257,0.446-1.546c0.298-0.287,0.862-0.432,1.692-0.432
		c0.82,0,1.377,0.139,1.67,0.418C274.57,100.303,274.717,100.799,274.717,101.512z M274.438,119.002
		c0,0.098-0.029,0.184-0.088,0.256c-0.059,0.074-0.159,0.135-0.301,0.184s-0.329,0.085-0.563,0.109s-0.532,0.037-0.894,0.037
		s-0.659-0.013-0.894-0.037s-0.423-0.061-0.563-0.109c-0.143-0.049-0.242-0.109-0.301-0.184c-0.059-0.072-0.088-0.158-0.088-0.256
		v-13.037c0-0.098,0.029-0.184,0.088-0.256c0.059-0.074,0.158-0.137,0.301-0.191c0.141-0.053,0.329-0.095,0.563-0.124
		s0.532-0.044,0.894-0.044s0.659,0.015,0.894,0.044s0.422,0.071,0.563,0.124c0.142,0.055,0.242,0.117,0.301,0.191
		c0.059,0.072,0.088,0.158,0.088,0.256V119.002z"/>
	<path fill="#FFFFFF" d="M287.314,115.311c0,0.742-0.14,1.396-0.417,1.963c-0.279,0.566-0.672,1.04-1.18,1.421
		s-1.108,0.667-1.802,0.856c-0.693,0.191-1.445,0.286-2.256,0.286c-0.488,0-0.955-0.036-1.399-0.11
		c-0.444-0.072-0.842-0.166-1.193-0.277c-0.352-0.112-0.645-0.228-0.879-0.345s-0.405-0.228-0.513-0.329
		c-0.107-0.104-0.19-0.264-0.249-0.484c-0.059-0.219-0.088-0.544-0.088-0.974c0-0.283,0.01-0.51,0.029-0.681s0.049-0.309,0.088-0.41
		c0.039-0.104,0.088-0.171,0.146-0.205s0.132-0.052,0.22-0.052c0.107,0,0.266,0.062,0.476,0.183c0.21,0.123,0.472,0.257,0.784,0.403
		s0.676,0.283,1.091,0.41s0.887,0.19,1.414,0.19c0.332,0,0.627-0.034,0.887-0.103c0.258-0.068,0.482-0.166,0.674-0.293
		c0.189-0.127,0.334-0.288,0.432-0.483s0.146-0.42,0.146-0.674c0-0.293-0.091-0.544-0.271-0.754s-0.42-0.394-0.717-0.55
		c-0.299-0.156-0.636-0.303-1.012-0.439s-0.762-0.288-1.156-0.454c-0.396-0.166-0.782-0.356-1.158-0.571s-0.713-0.479-1.01-0.791
		c-0.299-0.313-0.538-0.688-0.719-1.128s-0.271-0.967-0.271-1.582c0-0.625,0.122-1.198,0.366-1.721s0.596-0.97,1.055-1.341
		s1.018-0.659,1.678-0.864c0.658-0.205,1.398-0.308,2.219-0.308c0.41,0,0.808,0.029,1.193,0.088s0.735,0.132,1.048,0.22
		s0.576,0.184,0.791,0.285c0.215,0.104,0.368,0.191,0.462,0.264c0.092,0.074,0.158,0.146,0.197,0.221
		c0.039,0.072,0.068,0.16,0.088,0.264c0.02,0.102,0.037,0.229,0.051,0.381c0.016,0.151,0.022,0.339,0.022,0.563
		c0,0.264-0.007,0.479-0.022,0.645c-0.014,0.166-0.039,0.298-0.072,0.396c-0.035,0.098-0.081,0.164-0.14,0.197
		c-0.059,0.035-0.127,0.052-0.205,0.052c-0.088,0-0.225-0.052-0.41-0.153c-0.186-0.104-0.417-0.213-0.696-0.33
		c-0.277-0.117-0.6-0.227-0.967-0.33c-0.365-0.102-0.783-0.153-1.252-0.153c-0.332,0-0.62,0.034-0.864,0.103
		s-0.444,0.166-0.601,0.293s-0.273,0.276-0.352,0.447s-0.117,0.354-0.117,0.549c0,0.303,0.093,0.557,0.278,0.762
		s0.43,0.386,0.732,0.542s0.646,0.303,1.032,0.439s0.777,0.286,1.172,0.446c0.396,0.162,0.786,0.35,1.172,0.564
		s0.73,0.479,1.033,0.791s0.547,0.687,0.732,1.121S287.314,114.715,287.314,115.311z"/>
	<path fill="#FFFFFF" d="M302.153,112.088c0,0.449-0.101,0.781-0.301,0.996s-0.476,0.322-0.827,0.322h-7.954
		c0,0.557,0.066,1.063,0.197,1.516c0.133,0.455,0.342,0.841,0.631,1.158c0.287,0.317,0.658,0.559,1.113,0.725
		c0.453,0.166,0.998,0.249,1.633,0.249c0.645,0,1.211-0.046,1.699-0.14c0.488-0.092,0.91-0.194,1.268-0.307
		c0.355-0.112,0.651-0.215,0.886-0.309c0.234-0.092,0.425-0.139,0.571-0.139c0.088,0,0.161,0.018,0.22,0.051
		c0.059,0.035,0.107,0.096,0.146,0.184s0.065,0.213,0.081,0.373c0.014,0.162,0.021,0.364,0.021,0.608
		c0,0.215-0.005,0.398-0.015,0.55s-0.024,0.28-0.044,0.388s-0.049,0.198-0.088,0.271c-0.039,0.074-0.091,0.145-0.154,0.213
		s-0.236,0.161-0.52,0.278s-0.645,0.232-1.084,0.345c-0.439,0.111-0.942,0.209-1.509,0.293c-0.566,0.082-1.172,0.124-1.816,0.124
		c-1.162,0-2.181-0.146-3.054-0.439c-0.875-0.293-1.604-0.737-2.19-1.333s-1.023-1.348-1.312-2.256s-0.432-1.973-0.432-3.193
		c0-1.162,0.151-2.209,0.454-3.143c0.303-0.932,0.742-1.723,1.318-2.373c0.576-0.648,1.276-1.145,2.103-1.486
		c0.824-0.342,1.755-0.513,2.79-0.513c1.094,0,2.028,0.161,2.806,0.483c0.775,0.322,1.413,0.77,1.911,1.34
		c0.498,0.572,0.864,1.248,1.099,2.029s0.352,1.631,0.352,2.549V112.088z M298.579,111.033c0.029-1.035-0.179-1.848-0.623-2.439
		c-0.444-0.59-1.13-0.886-2.058-0.886c-0.469,0-0.877,0.088-1.224,0.264s-0.635,0.413-0.863,0.71
		c-0.23,0.299-0.406,0.65-0.527,1.055c-0.123,0.406-0.193,0.838-0.213,1.297H298.579z"/>
	<path fill="#FFFFFF" d="M327.715,118.064c0.117,0.352,0.19,0.63,0.22,0.835s-0.01,0.358-0.117,0.462
		c-0.107,0.102-0.298,0.165-0.571,0.189s-0.649,0.037-1.128,0.037c-0.498,0-0.887-0.008-1.164-0.021
		c-0.279-0.016-0.491-0.045-0.638-0.088c-0.146-0.045-0.249-0.105-0.308-0.184s-0.107-0.181-0.146-0.308l-1.274-3.809h-7.119
		l-1.201,3.706c-0.039,0.137-0.091,0.252-0.153,0.344c-0.064,0.094-0.167,0.167-0.309,0.221c-0.142,0.053-0.342,0.09-0.6,0.109
		c-0.26,0.02-0.599,0.029-1.019,0.029c-0.449,0-0.801-0.015-1.055-0.044s-0.43-0.1-0.527-0.212s-0.132-0.271-0.103-0.477
		s0.103-0.479,0.22-0.82l5.845-16.816c0.059-0.166,0.127-0.301,0.205-0.402c0.078-0.104,0.202-0.181,0.373-0.234
		s0.408-0.088,0.711-0.104c0.303-0.014,0.703-0.021,1.201-0.021c0.576,0,1.035,0.008,1.377,0.021
		c0.342,0.016,0.607,0.05,0.799,0.104c0.189,0.054,0.326,0.134,0.41,0.241c0.082,0.107,0.153,0.254,0.212,0.439L327.715,118.064z
		 M319.014,104.163h-0.015l-2.681,8.057h5.376L319.014,104.163z"/>
	<path fill="#FFFFFF" d="M339.346,115.311c0,0.742-0.14,1.396-0.417,1.963c-0.279,0.566-0.672,1.04-1.18,1.421
		s-1.108,0.667-1.802,0.856c-0.693,0.191-1.445,0.286-2.256,0.286c-0.488,0-0.955-0.036-1.399-0.11
		c-0.444-0.072-0.842-0.166-1.193-0.277c-0.352-0.112-0.645-0.228-0.879-0.345s-0.405-0.228-0.513-0.329
		c-0.107-0.104-0.19-0.264-0.249-0.484c-0.059-0.219-0.088-0.544-0.088-0.974c0-0.283,0.01-0.51,0.029-0.681s0.049-0.309,0.088-0.41
		c0.039-0.104,0.088-0.171,0.146-0.205s0.132-0.052,0.22-0.052c0.107,0,0.266,0.062,0.476,0.183c0.21,0.123,0.472,0.257,0.784,0.403
		s0.676,0.283,1.091,0.41s0.887,0.19,1.414,0.19c0.332,0,0.627-0.034,0.887-0.103c0.258-0.068,0.482-0.166,0.674-0.293
		c0.189-0.127,0.334-0.288,0.432-0.483s0.146-0.42,0.146-0.674c0-0.293-0.091-0.544-0.271-0.754s-0.42-0.394-0.717-0.55
		c-0.299-0.156-0.636-0.303-1.012-0.439s-0.762-0.288-1.156-0.454c-0.396-0.166-0.782-0.356-1.158-0.571s-0.713-0.479-1.01-0.791
		c-0.299-0.313-0.538-0.688-0.719-1.128s-0.271-0.967-0.271-1.582c0-0.625,0.122-1.198,0.366-1.721s0.596-0.97,1.055-1.341
		s1.018-0.659,1.678-0.864c0.658-0.205,1.398-0.308,2.219-0.308c0.41,0,0.808,0.029,1.193,0.088s0.735,0.132,1.048,0.22
		s0.576,0.184,0.791,0.285c0.215,0.104,0.368,0.191,0.462,0.264c0.092,0.074,0.158,0.146,0.197,0.221
		c0.039,0.072,0.068,0.16,0.088,0.264c0.02,0.102,0.037,0.229,0.051,0.381c0.016,0.151,0.022,0.339,0.022,0.563
		c0,0.264-0.007,0.479-0.022,0.645c-0.014,0.166-0.039,0.298-0.072,0.396c-0.035,0.098-0.081,0.164-0.14,0.197
		c-0.059,0.035-0.127,0.052-0.205,0.052c-0.088,0-0.225-0.052-0.41-0.153c-0.186-0.104-0.417-0.213-0.696-0.33
		c-0.277-0.117-0.6-0.227-0.967-0.33c-0.365-0.102-0.783-0.153-1.252-0.153c-0.332,0-0.62,0.034-0.864,0.103
		s-0.444,0.166-0.601,0.293s-0.273,0.276-0.352,0.447s-0.117,0.354-0.117,0.549c0,0.303,0.093,0.557,0.278,0.762
		s0.43,0.386,0.732,0.542s0.646,0.303,1.032,0.439s0.777,0.286,1.172,0.446c0.396,0.162,0.786,0.35,1.172,0.564
		s0.73,0.479,1.033,0.791s0.547,0.687,0.732,1.121S339.346,114.715,339.346,115.311z"/>
	<path fill="#FFFFFF" d="M351.313,115.311c0,0.742-0.139,1.396-0.418,1.963c-0.277,0.566-0.671,1.04-1.179,1.421
		s-1.108,0.667-1.802,0.856c-0.693,0.191-1.445,0.286-2.256,0.286c-0.488,0-0.955-0.036-1.398-0.11
		c-0.445-0.072-0.843-0.166-1.194-0.277c-0.352-0.112-0.645-0.228-0.879-0.345s-0.405-0.228-0.513-0.329
		c-0.107-0.104-0.19-0.264-0.249-0.484c-0.059-0.219-0.088-0.544-0.088-0.974c0-0.283,0.01-0.51,0.029-0.681s0.049-0.309,0.088-0.41
		c0.039-0.104,0.088-0.171,0.146-0.205s0.132-0.052,0.22-0.052c0.107,0,0.266,0.062,0.477,0.183
		c0.209,0.123,0.471,0.257,0.783,0.403s0.676,0.283,1.092,0.41c0.414,0.127,0.886,0.19,1.413,0.19c0.332,0,0.627-0.034,0.886-0.103
		s0.484-0.166,0.674-0.293c0.191-0.127,0.335-0.288,0.433-0.483s0.146-0.42,0.146-0.674c0-0.293-0.091-0.544-0.271-0.754
		c-0.182-0.21-0.421-0.394-0.719-0.55s-0.635-0.303-1.01-0.439c-0.377-0.137-0.762-0.288-1.158-0.454
		c-0.395-0.166-0.781-0.356-1.156-0.571c-0.377-0.215-0.714-0.479-1.012-0.791s-0.537-0.688-0.717-1.128
		c-0.182-0.439-0.271-0.967-0.271-1.582c0-0.625,0.122-1.198,0.366-1.721s0.596-0.97,1.055-1.341s1.019-0.659,1.677-0.864
		c0.66-0.205,1.399-0.308,2.22-0.308c0.41,0,0.808,0.029,1.194,0.088c0.385,0.059,0.734,0.132,1.047,0.22s0.576,0.184,0.791,0.285
		c0.215,0.104,0.368,0.191,0.461,0.264c0.093,0.074,0.159,0.146,0.198,0.221c0.039,0.072,0.068,0.16,0.088,0.264
		c0.02,0.102,0.036,0.229,0.052,0.381c0.014,0.151,0.021,0.339,0.021,0.563c0,0.264-0.008,0.479-0.021,0.645
		c-0.016,0.166-0.04,0.298-0.074,0.396s-0.08,0.164-0.139,0.197c-0.059,0.035-0.127,0.052-0.205,0.052
		c-0.088,0-0.225-0.052-0.41-0.153c-0.186-0.104-0.418-0.213-0.695-0.33c-0.279-0.117-0.602-0.227-0.967-0.33
		c-0.367-0.102-0.784-0.153-1.253-0.153c-0.332,0-0.62,0.034-0.864,0.103s-0.444,0.166-0.601,0.293s-0.273,0.276-0.352,0.447
		s-0.117,0.354-0.117,0.549c0,0.303,0.093,0.557,0.278,0.762s0.43,0.386,0.732,0.542s0.646,0.303,1.033,0.439
		c0.385,0.137,0.775,0.286,1.172,0.446c0.395,0.162,0.785,0.35,1.172,0.564c0.385,0.215,0.729,0.479,1.032,0.791
		s0.547,0.687,0.732,1.121S351.313,114.715,351.313,115.311z"/>
	<path fill="#FFFFFF" d="M367.295,112.337c0,1.113-0.146,2.129-0.439,3.047s-0.737,1.709-1.333,2.373s-1.343,1.177-2.241,1.538
		s-1.948,0.542-3.149,0.542c-1.162,0-2.173-0.161-3.032-0.483s-1.572-0.791-2.139-1.406s-0.986-1.372-1.26-2.271
		s-0.41-1.924-0.41-3.076c0-1.113,0.148-2.132,0.446-3.054c0.298-0.924,0.745-1.715,1.341-2.373c0.596-0.66,1.341-1.17,2.233-1.531
		c0.895-0.361,1.941-0.542,3.143-0.542c1.172,0,2.188,0.159,3.047,0.476c0.859,0.318,1.569,0.784,2.131,1.399
		s0.979,1.372,1.253,2.271S367.295,111.175,367.295,112.337z M363.501,112.483c0-0.645-0.051-1.237-0.154-1.78
		c-0.102-0.541-0.275-1.013-0.52-1.413s-0.569-0.713-0.975-0.938s-0.915-0.337-1.53-0.337c-0.547,0-1.025,0.101-1.436,0.301
		s-0.747,0.493-1.011,0.879s-0.461,0.85-0.594,1.391c-0.131,0.543-0.197,1.16-0.197,1.854c0,0.645,0.054,1.238,0.161,1.779
		c0.107,0.543,0.28,1.014,0.521,1.414c0.238,0.4,0.563,0.711,0.974,0.93c0.41,0.221,0.918,0.33,1.523,0.33
		c0.557,0,1.04-0.1,1.45-0.301c0.41-0.199,0.747-0.49,1.011-0.871s0.459-0.842,0.586-1.385
		C363.438,113.795,363.501,113.177,363.501,112.483z"/>
	<path fill="#FFFFFF" d="M380.098,116.922c0,0.254-0.007,0.467-0.022,0.637c-0.014,0.172-0.034,0.315-0.059,0.433
		s-0.054,0.212-0.088,0.286c-0.034,0.072-0.109,0.166-0.227,0.277c-0.117,0.113-0.317,0.25-0.601,0.41
		c-0.283,0.162-0.605,0.306-0.967,0.433s-0.755,0.229-1.179,0.308c-0.426,0.078-0.862,0.117-1.312,0.117
		c-1.006,0-1.897-0.156-2.673-0.469c-0.777-0.313-1.429-0.773-1.956-1.385c-0.527-0.609-0.926-1.354-1.194-2.233
		s-0.402-1.885-0.402-3.018c0-1.309,0.163-2.438,0.49-3.392c0.327-0.951,0.784-1.74,1.37-2.365s1.279-1.089,2.08-1.392
		s1.68-0.454,2.637-0.454c0.391,0,0.773,0.034,1.149,0.103s0.728,0.161,1.055,0.278s0.62,0.249,0.879,0.396s0.442,0.273,0.55,0.381
		s0.183,0.198,0.228,0.271c0.043,0.074,0.077,0.169,0.102,0.286s0.045,0.262,0.059,0.433c0.016,0.171,0.022,0.378,0.022,0.622
		c0,0.566-0.049,0.965-0.146,1.194s-0.225,0.344-0.381,0.344c-0.166,0-0.342-0.068-0.527-0.205s-0.405-0.288-0.659-0.454
		s-0.557-0.317-0.908-0.454s-0.771-0.205-1.26-0.205c-0.957,0-1.689,0.369-2.197,1.105c-0.508,0.738-0.762,1.819-0.762,3.245
		c0,0.703,0.063,1.323,0.19,1.86s0.315,0.986,0.563,1.348c0.25,0.361,0.562,0.633,0.938,0.813c0.376,0.182,0.813,0.271,1.312,0.271
		c0.508,0,0.944-0.075,1.312-0.227c0.365-0.151,0.686-0.32,0.959-0.506s0.503-0.354,0.688-0.506c0.186-0.15,0.342-0.227,0.469-0.227
		c0.088,0,0.161,0.024,0.22,0.073s0.104,0.14,0.139,0.271c0.034,0.133,0.062,0.301,0.081,0.506S380.098,116.6,380.098,116.922z"/>
	<path fill="#FFFFFF" d="M386.733,101.512c0,0.742-0.151,1.255-0.454,1.538s-0.864,0.425-1.685,0.425c-0.83,0-1.39-0.137-1.678-0.41
		s-0.432-0.767-0.432-1.479c0-0.742,0.148-1.257,0.447-1.546c0.297-0.287,0.861-0.432,1.691-0.432c0.82,0,1.377,0.139,1.67,0.418
		C386.587,100.303,386.733,100.799,386.733,101.512z M386.455,119.002c0,0.098-0.029,0.184-0.088,0.256
		c-0.059,0.074-0.159,0.135-0.3,0.184c-0.143,0.049-0.33,0.085-0.564,0.109s-0.532,0.037-0.894,0.037s-0.659-0.013-0.894-0.037
		s-0.423-0.061-0.564-0.109s-0.241-0.109-0.3-0.184c-0.059-0.072-0.088-0.158-0.088-0.256v-13.037c0-0.098,0.029-0.184,0.088-0.256
		c0.059-0.074,0.158-0.137,0.3-0.191c0.142-0.053,0.33-0.095,0.564-0.124s0.532-0.044,0.894-0.044s0.659,0.015,0.894,0.044
		s0.422,0.071,0.564,0.124c0.141,0.055,0.241,0.117,0.3,0.191c0.059,0.072,0.088,0.158,0.088,0.256V119.002z"/>
	<path fill="#FFFFFF" d="M401.265,119.046c0,0.137-0.049,0.244-0.146,0.322s-0.252,0.134-0.461,0.169
		c-0.211,0.033-0.521,0.051-0.931,0.051c-0.439,0-0.76-0.018-0.96-0.051c-0.2-0.035-0.342-0.091-0.424-0.169
		c-0.084-0.078-0.125-0.186-0.125-0.322v-1.04c-0.537,0.576-1.15,1.025-1.838,1.348c-0.689,0.322-1.453,0.483-2.293,0.483
		c-0.693,0-1.331-0.091-1.912-0.271c-0.581-0.181-1.084-0.449-1.508-0.807c-0.426-0.355-0.755-0.798-0.989-1.325
		s-0.352-1.143-0.352-1.846c0-0.762,0.148-1.423,0.446-1.985c0.298-0.561,0.742-1.025,1.334-1.391
		c0.59-0.367,1.325-0.638,2.204-0.813s1.899-0.264,3.062-0.264h1.274v-0.791c0-0.41-0.042-0.769-0.124-1.077
		c-0.084-0.307-0.221-0.563-0.41-0.769c-0.191-0.205-0.445-0.356-0.762-0.454c-0.318-0.098-0.711-0.146-1.18-0.146
		c-0.615,0-1.164,0.068-1.648,0.205c-0.482,0.137-0.91,0.288-1.281,0.454s-0.682,0.317-0.93,0.454
		c-0.25,0.137-0.452,0.205-0.608,0.205c-0.107,0-0.203-0.034-0.286-0.103s-0.151-0.166-0.205-0.293s-0.095-0.283-0.124-0.469
		s-0.044-0.391-0.044-0.615c0-0.303,0.024-0.542,0.073-0.718s0.142-0.334,0.278-0.477c0.137-0.141,0.376-0.297,0.718-0.469
		c0.342-0.17,0.742-0.329,1.201-0.476s0.96-0.266,1.501-0.358c0.543-0.093,1.102-0.14,1.678-0.14c1.025,0,1.901,0.101,2.629,0.3
		c0.728,0.201,1.326,0.509,1.795,0.924s0.811,0.949,1.025,1.604s0.322,1.431,0.322,2.329V119.046z M397.646,113.45h-1.406
		c-0.596,0-1.104,0.044-1.523,0.132s-0.762,0.22-1.025,0.396s-0.457,0.388-0.579,0.638c-0.122,0.248-0.183,0.534-0.183,0.856
		c0,0.547,0.173,0.977,0.521,1.289c0.346,0.313,0.827,0.469,1.442,0.469c0.518,0,0.993-0.132,1.429-0.396
		c0.434-0.264,0.876-0.649,1.325-1.157V113.45z"/>
	<path fill="#FFFFFF" d="M417.422,105.438c0.41,0,0.696,0.088,0.856,0.264c0.162,0.176,0.242,0.43,0.242,0.762v12.539
		c0,0.098-0.029,0.184-0.088,0.256c-0.059,0.074-0.156,0.135-0.293,0.184s-0.325,0.085-0.564,0.109s-0.534,0.037-0.886,0.037
		c-0.361,0-0.662-0.013-0.901-0.037s-0.427-0.061-0.563-0.109s-0.234-0.109-0.293-0.184c-0.059-0.072-0.088-0.158-0.088-0.256
		v-10.576h-5.874v6.138c0,0.713,0.112,1.248,0.337,1.604s0.625,0.534,1.201,0.534c0.195,0,0.371-0.017,0.527-0.052
		c0.156-0.033,0.295-0.072,0.417-0.117c0.122-0.043,0.225-0.082,0.309-0.117c0.082-0.033,0.158-0.051,0.227-0.051
		c0.059,0,0.114,0.018,0.168,0.051c0.054,0.035,0.096,0.104,0.125,0.205c0.029,0.104,0.056,0.242,0.08,0.418s0.037,0.4,0.037,0.674
		c0,0.43-0.024,0.754-0.073,0.975c-0.049,0.219-0.117,0.381-0.205,0.482c-0.088,0.104-0.22,0.191-0.396,0.264
		c-0.176,0.074-0.379,0.137-0.607,0.191c-0.23,0.053-0.479,0.095-0.748,0.124s-0.539,0.044-0.813,0.044
		c-0.732,0-1.367-0.093-1.904-0.278s-0.981-0.471-1.333-0.856s-0.61-0.872-0.776-1.458s-0.249-1.279-0.249-2.08v-6.694h-1.567
		c-0.186,0-0.327-0.114-0.425-0.344s-0.146-0.613-0.146-1.15c0-0.283,0.012-0.522,0.036-0.718s0.062-0.349,0.11-0.462
		c0.049-0.111,0.11-0.192,0.183-0.241c0.074-0.049,0.159-0.073,0.257-0.073h1.553v-2.915c0-0.098,0.026-0.186,0.081-0.264
		c0.053-0.078,0.15-0.144,0.293-0.198c0.141-0.053,0.331-0.092,0.57-0.117c0.239-0.023,0.535-0.036,0.887-0.036
		c0.361,0,0.661,0.013,0.9,0.036c0.239,0.025,0.428,0.064,0.564,0.117c0.137,0.055,0.234,0.12,0.293,0.198s0.088,0.166,0.088,0.264
		v2.915H417.422z M418.813,101.512c0,0.742-0.151,1.255-0.454,1.538s-0.864,0.425-1.685,0.425c-0.83,0-1.39-0.137-1.678-0.41
		s-0.432-0.767-0.432-1.479c0-0.742,0.148-1.257,0.447-1.546c0.297-0.287,0.861-0.432,1.691-0.432c0.82,0,1.377,0.139,1.67,0.418
		C418.667,100.303,418.813,100.799,418.813,101.512z"/>
	<path fill="#FFFFFF" d="M434.253,105.921c0,0.049-0.003,0.107-0.008,0.176s-0.014,0.145-0.029,0.228
		c-0.014,0.083-0.034,0.178-0.059,0.285s-0.056,0.229-0.095,0.366l-3.926,11.821c-0.049,0.166-0.115,0.301-0.198,0.402
		c-0.083,0.104-0.219,0.184-0.41,0.242c-0.189,0.059-0.449,0.098-0.775,0.117c-0.328,0.02-0.755,0.029-1.282,0.029
		c-0.518,0-0.94-0.013-1.267-0.037c-0.328-0.024-0.584-0.065-0.77-0.124s-0.32-0.14-0.402-0.241
		c-0.084-0.104-0.149-0.232-0.198-0.389l-3.926-11.821c-0.059-0.195-0.105-0.371-0.14-0.527s-0.054-0.269-0.059-0.337
		s-0.007-0.132-0.007-0.19c0-0.098,0.026-0.183,0.081-0.257c0.053-0.072,0.148-0.134,0.285-0.183s0.324-0.083,0.564-0.103
		c0.238-0.02,0.539-0.029,0.9-0.029c0.4,0,0.723,0.013,0.967,0.037s0.437,0.059,0.578,0.102c0.142,0.045,0.242,0.108,0.301,0.191
		s0.107,0.183,0.146,0.3l2.974,9.595l0.088,0.366l0.088-0.366l2.93-9.595c0.029-0.117,0.075-0.217,0.14-0.3
		c0.063-0.083,0.163-0.146,0.3-0.191c0.137-0.043,0.319-0.077,0.55-0.102c0.229-0.024,0.529-0.037,0.9-0.037
		c0.361,0,0.656,0.01,0.887,0.029c0.229,0.02,0.407,0.054,0.534,0.103s0.215,0.11,0.264,0.183
		C434.229,105.738,434.253,105.823,434.253,105.921z"/>
	<path fill="#FFFFFF" d="M448.213,112.088c0,0.449-0.101,0.781-0.3,0.996c-0.201,0.215-0.477,0.322-0.828,0.322h-7.954
		c0,0.557,0.065,1.063,0.198,1.516c0.131,0.455,0.341,0.841,0.629,1.158s0.66,0.559,1.113,0.725
		c0.455,0.166,0.999,0.249,1.634,0.249c0.645,0,1.211-0.046,1.699-0.14c0.488-0.092,0.91-0.194,1.267-0.307s0.652-0.215,0.887-0.309
		c0.234-0.092,0.425-0.139,0.571-0.139c0.088,0,0.161,0.018,0.22,0.051c0.059,0.035,0.107,0.096,0.146,0.184s0.066,0.213,0.08,0.373
		c0.016,0.162,0.022,0.364,0.022,0.608c0,0.215-0.005,0.398-0.015,0.55s-0.024,0.28-0.044,0.388s-0.049,0.198-0.088,0.271
		c-0.039,0.074-0.091,0.145-0.153,0.213c-0.064,0.068-0.237,0.161-0.521,0.278s-0.645,0.232-1.084,0.345
		c-0.439,0.111-0.942,0.209-1.509,0.293c-0.566,0.082-1.172,0.124-1.816,0.124c-1.162,0-2.181-0.146-3.055-0.439
		s-1.604-0.737-2.189-1.333s-1.023-1.348-1.311-2.256c-0.289-0.908-0.433-1.973-0.433-3.193c0-1.162,0.151-2.209,0.454-3.143
		c0.303-0.932,0.742-1.723,1.318-2.373c0.576-0.648,1.276-1.145,2.102-1.486s1.756-0.513,2.791-0.513
		c1.094,0,2.029,0.161,2.805,0.483c0.777,0.322,1.414,0.77,1.912,1.34c0.498,0.572,0.864,1.248,1.099,2.029s0.352,1.631,0.352,2.549
		V112.088z M444.639,111.033c0.029-1.035-0.179-1.848-0.622-2.439c-0.445-0.59-1.131-0.886-2.059-0.886
		c-0.469,0-0.877,0.088-1.223,0.264c-0.348,0.176-0.636,0.413-0.865,0.71c-0.229,0.299-0.405,0.65-0.527,1.055
		c-0.122,0.406-0.192,0.838-0.212,1.297H444.639z"/>
</g>
<g>
	<path fill="#8F4319" d="M296.278,79.663c0,0.132-0.005,0.247-0.014,0.345c-0.009,0.099-0.021,0.189-0.038,0.273
		c-0.016,0.085-0.037,0.164-0.064,0.24c-0.027,0.074-0.06,0.155-0.096,0.242l-2.912,6.747c-0.027,0.06-0.063,0.107-0.105,0.144
		c-0.044,0.036-0.104,0.064-0.182,0.086c-0.077,0.02-0.177,0.033-0.297,0.041c-0.121,0.006-0.271,0.01-0.448,0.01
		c-0.241,0-0.433-0.008-0.574-0.023c-0.142-0.017-0.245-0.041-0.312-0.076c-0.065-0.033-0.101-0.077-0.105-0.129
		c-0.005-0.053,0.012-0.118,0.048-0.195l3.131-6.904h-3.719c-0.096,0-0.167-0.063-0.216-0.188c-0.047-0.126-0.071-0.325-0.071-0.599
		c0-0.137,0.007-0.254,0.021-0.353c0.014-0.098,0.033-0.179,0.059-0.242c0.024-0.063,0.055-0.109,0.088-0.137
		c0.035-0.027,0.074-0.041,0.12-0.041h5.257c0.082,0,0.15,0.008,0.205,0.023c0.055,0.017,0.098,0.052,0.13,0.106
		s0.056,0.132,0.071,0.232C296.271,79.367,296.278,79.499,296.278,79.663z"/>
	<path fill="#8F4319" d="M303.381,87.019c0,0.132-0.006,0.245-0.018,0.339c-0.011,0.093-0.028,0.169-0.051,0.229
		s-0.053,0.102-0.089,0.127c-0.036,0.024-0.077,0.037-0.123,0.037h-5.086c-0.101,0-0.187-0.009-0.26-0.027s-0.132-0.054-0.178-0.105
		c-0.046-0.053-0.079-0.129-0.099-0.229c-0.021-0.101-0.031-0.23-0.031-0.39c0-0.15,0.007-0.279,0.021-0.387
		c0.014-0.106,0.039-0.202,0.075-0.287c0.036-0.084,0.083-0.166,0.141-0.246c0.057-0.079,0.131-0.167,0.222-0.263l1.531-1.641
		c0.306-0.319,0.552-0.609,0.738-0.872c0.187-0.262,0.333-0.501,0.438-0.717c0.104-0.217,0.177-0.416,0.216-0.599
		c0.038-0.183,0.058-0.355,0.058-0.52c0-0.15-0.024-0.293-0.071-0.427c-0.049-0.135-0.119-0.252-0.213-0.353
		c-0.093-0.101-0.21-0.179-0.352-0.235c-0.142-0.058-0.308-0.086-0.499-0.086c-0.269,0-0.507,0.034-0.714,0.103
		c-0.208,0.068-0.391,0.145-0.547,0.229c-0.158,0.084-0.289,0.161-0.394,0.232c-0.104,0.07-0.187,0.105-0.246,0.105
		c-0.041,0-0.076-0.014-0.106-0.041c-0.029-0.027-0.053-0.073-0.071-0.137s-0.033-0.149-0.044-0.256
		c-0.012-0.107-0.018-0.238-0.018-0.394c0-0.104,0.004-0.192,0.01-0.263c0.008-0.071,0.018-0.133,0.031-0.186
		c0.014-0.052,0.032-0.098,0.055-0.137c0.022-0.038,0.063-0.085,0.119-0.14c0.058-0.055,0.162-0.124,0.314-0.208
		c0.153-0.085,0.341-0.167,0.564-0.246c0.224-0.08,0.47-0.147,0.738-0.202s0.549-0.082,0.841-0.082c0.46,0,0.862,0.058,1.206,0.175
		c0.345,0.115,0.631,0.277,0.858,0.484c0.228,0.208,0.397,0.454,0.509,0.738c0.112,0.285,0.168,0.592,0.168,0.92
		c0,0.287-0.027,0.569-0.082,0.848s-0.169,0.578-0.342,0.898c-0.173,0.322-0.417,0.678-0.731,1.066
		c-0.314,0.391-0.731,0.843-1.251,1.357l-1.032,1.06h3.486c0.046,0,0.088,0.014,0.126,0.041c0.039,0.027,0.072,0.069,0.1,0.126
		c0.027,0.058,0.048,0.133,0.062,0.227C303.374,86.78,303.381,86.891,303.381,87.019z"/>
</g>
</svg>
