<?xml version="1.0" encoding="iso-8859-1"?>
<!-- Generator: Adobe Illustrator 17.1.0, SVG Export Plug-In . SVG Version: 6.00 Build 0)  -->
<!DOCTYPE svg PUBLIC "-//W3C//DTD SVG 1.1//EN" "http://www.w3.org/Graphics/SVG/1.1/DTD/svg11.dtd">
<svg version="1.1" id="Capa_1" xmlns="http://www.w3.org/2000/svg" xmlns:xlink="http://www.w3.org/1999/xlink" x="0px" y="0px"
	 viewBox="0 0 424.082 424.082" style="enable-background:new 0 0 424.082 424.082;" xml:space="preserve">
<g>
	<path d="M55.341,117.012c4.354,0,8.661-0.742,12.797-2.207c9.658-3.418,17.405-10.393,21.816-19.639
		c2.942-6.167,4.155-12.852,3.629-19.485l9.594-1.083c5.717-0.646,11.52-5.206,13.498-10.607l3.008-8.217
		c1.174-3.205,0.865-6.45-0.848-8.901c-1.67-2.391-4.484-3.762-7.721-3.762c-0.375,0-0.762,0.018-1.161,0.056l-33.9,3.225
		c-6.051-3.89-13.203-6.1-20.718-6.1c-4.353,0-8.658,0.741-12.795,2.206c-19.936,7.06-30.413,29.021-23.354,48.953
		C24.601,106.74,39.13,117.012,55.341,117.012z"/>
	<path d="M423.516,361.204l-23.927-87.648c-1.476-5.408-2.749-14.45-2.779-19.744c-0.001-0.142-0.017-0.277-0.021-0.418
		c0.014-0.267,0.039-0.53,0.039-0.801l0.037-107.537c0.003-8.706-7.07-16.098-15.768-16.477l-44.801-1.951
		c-13.036,0-16.391,10.409-16.903,13.664l-8.127,51.669c-0.479,3.048-3.605,5.762-6.69,5.81l-9.466,0.146v-66.939
		c0-8.271-6.729-15-15-15H140.653c-8.271,0-15,6.729-15,15v66.904l-7.21-0.11c-3.084-0.048-6.21-2.762-6.689-5.81l-8.127-51.668
		c-0.51-3.242-4.283-13.665-16.903-13.665l-44.8,1.951c-8.698,0.379-15.771,7.771-15.768,16.477c0,0-0.616,109.012-0.616,129.905
		l-1.454,25.737c-0.309,5.461-2.437,14.302-4.647,19.306L1.302,361.049c-1.764,3.991-1.735,8.404,0.08,12.106
		c1.815,3.702,5.285,6.428,9.52,7.479l1.602,0.397c1.325,0.329,2.71,0.496,4.118,0.496c7.182,0,14.053-4.168,17.096-10.372
		l16.94-34.529c2.806-5.721,6.299-15.413,7.786-21.607l9.606-40.014l23.342,35.696c2.86,4.374,5.884,12.768,6.47,17.961
		l4.494,39.796c0.954,8.454,8.653,15.332,17.163,15.332l2.408-0.008c4.352-0.015,8.31-1.752,11.144-4.892s4.158-7.255,3.729-11.586
		l-4.791-48.303c-0.646-6.514-2.985-16.402-5.325-22.514l-22.562-58.928l-0.13-11.597l215.036-0.001l-0.194,17.303l-30.906,123.595
		c-1.075,4.298-0.254,8.61,2.251,11.831c2.505,3.22,6.483,5.076,10.915,5.091l2.409,0.008c0,0,0,0,0.001,0
		c8.313,0,16.478-6.295,18.588-14.33l15.286-58.197c1.415-5.385,5.055-13.95,7.95-18.704l13.063-21.453l32.091,98.805
		c2.217,6.829,8.846,11.598,16.12,11.598c0,0,0,0,0,0c1.322,0,2.639-0.16,3.913-0.477l1.602-0.397
		c4.157-1.031,7.637-3.628,9.797-7.311S424.644,365.336,423.516,361.204z M119.518,378.789L119.518,378.789v0.002V378.789z
		 M303.502,378.789L303.502,378.789v0.002V378.789z"/>
	<path d="M306.343,63.99c1.978,5.402,7.781,9.963,13.498,10.608l9.594,1.083c-0.526,6.634,0.686,13.318,3.629,19.485
		c4.411,9.246,12.159,16.221,21.815,19.638c4.137,1.465,8.443,2.208,12.798,2.208c0.001,0,0.001,0,0.002,0
		c16.21,0,30.738-10.271,36.153-25.562c7.059-19.933-3.418-41.894-23.355-48.954c-4.137-1.464-8.441-2.205-12.794-2.205
		c-7.515,0-14.667,2.21-20.718,6.1l-33.901-3.225c-0.398-0.038-0.785-0.056-1.16-0.056c-3.237,0-6.051,1.371-7.721,3.762
		c-1.713,2.451-2.022,5.696-0.849,8.901L306.343,63.99z"/>
</g>
<g>
</g>
<g>
</g>
<g>
</g>
<g>
</g>
<g>
</g>
<g>
</g>
<g>
</g>
<g>
</g>
<g>
</g>
<g>
</g>
<g>
</g>
<g>
</g>
<g>
</g>
<g>
</g>
<g>
</g>
</svg>
