<?xml version="1.0" encoding="utf-8"?>
<!-- Generator: Adobe Illustrator 16.0.0, SVG Export Plug-In . SVG Version: 6.00 Build 0)  -->
<!DOCTYPE svg PUBLIC "-//W3C//DTD SVG 1.1//EN" "http://www.w3.org/Graphics/SVG/1.1/DTD/svg11.dtd">
<svg version="1.1" xmlns="http://www.w3.org/2000/svg" xmlns:xlink="http://www.w3.org/1999/xlink" x="0px" y="0px"
	 width="512px" height="512px" viewBox="0 0 512 512" enable-background="new 0 0 512 512" xml:space="preserve">
<path d="M280.844,512c-4.396,0-8.82-0.53-13.199-1.598c-14.352-3.498-26.479-12.374-34.15-24.996
	c-14.14-23.257-9.029-52.916,10.763-70.281L97.484,173.679c-0.017-0.026-0.031-0.05-0.048-0.077L8.504,27.301
	c-2.751-4.528-1.312-10.43,3.213-13.18c4.528-2.749,10.431-1.312,13.181,3.213l83.996,138.181l40.834-24.824L107.05,60.482
	c-1.321-2.175-1.727-4.785-1.122-7.255c0.602-2.473,2.163-4.604,4.338-5.926L185.78,1.396c2.173-1.324,4.782-1.727,7.255-1.122
	c2.473,0.602,4.603,2.161,5.924,4.336l42.681,70.211l28.303-17.205c4.525-2.75,10.43-1.314,13.181,3.214l91.956,151.27
	l16.977-10.319c2.173-1.324,4.781-1.736,7.254-1.123c2.473,0.602,4.603,2.161,5.924,4.336l73.143,120.324l11.94-7.257
	c4.527-2.749,10.427-1.312,13.18,3.214c2.751,4.527,1.313,10.43-3.213,13.18l-20.085,12.209c-0.017,0.012-0.036,0.021-0.053,0.034
	c-0.017,0.012-0.036,0.021-0.053,0.033l-147.824,89.86c9.578,24.528,0.458,53.208-22.8,67.343
	C300.698,509.264,290.849,512,280.844,512z M280.686,420.581c-6.389,0-12.852,1.691-18.699,5.245
	c-17.013,10.344-22.439,32.601-12.099,49.613c5.01,8.243,12.932,14.039,22.301,16.327c9.372,2.28,19.07,0.784,27.313-4.229
	c17.006-10.338,22.436-32.574,12.118-49.587c-0.005-0.007-0.01-0.017-0.017-0.026c-0.005-0.007-0.007-0.015-0.012-0.021
	C304.797,426.749,292.88,420.581,280.686,420.581z M280.653,401.4c15.636,0,30.965,6.619,41.646,18.795l139.682-84.91
	l-68.158-112.125l-16.912,10.278c-0.021,0.015-0.043,0.029-0.065,0.041l-161.047,97.896l44.854,73.785
	C267.143,402.626,273.925,401.4,280.653,401.4z M175.094,264.414l30.739,50.568l48.985-29.778c0.015-0.007,0.029-0.017,0.046-0.026
	l103.819-63.111L271.712,78.996l-28.244,17.166c-0.019,0.015-0.04,0.026-0.06,0.039l-75.517,45.904
	c-0.028,0.017-0.055,0.036-0.084,0.05l-48.946,29.752L175.094,264.414z M128.425,58.712l37.699,62.015l59.123-35.939L187.55,22.773
	L128.425,58.712z"/>
</svg>
