<?xml version="1.0" encoding="utf-8"?>
<!-- Generator: Adobe Illustrator 16.0.0, SVG Export Plug-In . SVG Version: 6.00 Build 0)  -->
<!DOCTYPE svg PUBLIC "-//W3C//DTD SVG 1.1//EN" "http://www.w3.org/Graphics/SVG/1.1/DTD/svg11.dtd">
<svg version="1.1" id="Calque_1" xmlns="http://www.w3.org/2000/svg" xmlns:xlink="http://www.w3.org/1999/xlink" x="0px" y="0px"
     width="194.869px" height="249.644px" viewBox="0 0 194.869 249.644" enable-background="new 0 0 194.869 249.644"
     xml:space="preserve">
<g id="marker">
    <path fill="#53BBA9" d="M97.435,0C43.626,0,0,42.255,0,94.395c0,1.014,0.488,25.256,8.857,42.567
        c23.999,53.618,88.493,112.987,88.577,112.681c0.106,0.2,64.335-58.841,88.44-112.361c7.158-12.688,8.994-40.823,8.994-42.895
        C194.876,42.255,151.243,0,97.435,0z M97.442,124.815c-15.088,0-27.297-12.202-27.297-27.282c0-15.087,12.209-27.311,27.297-27.311
        c15.08,0,27.296,12.224,27.296,27.311C124.738,112.606,112.529,124.815,97.442,124.815z"/>
    <path fill="#2C7E6F" d="M97.442,54.638c-23.687,0-42.895,19.194-42.895,42.895c0,23.687,19.208,42.879,42.895,42.879
        s42.895-19.192,42.895-42.879C140.344,73.832,121.136,54.638,97.442,54.638z M97.442,124.815
        c-15.088,0-27.297-12.202-27.297-27.282c0-15.087,12.209-27.311,27.297-27.311c15.08,0,27.296,12.224,27.296,27.311
        C124.738,112.606,112.529,124.815,97.442,124.815z"/>
</g>
</svg>
