<?xml version="1.0" encoding="UTF-8"?><!DOCTYPE svg PUBLIC "-//W3C//DTD SVG 1.1//EN" "http://www.w3.org/Graphics/SVG/1.1/DTD/svg11.dtd"><svg xmlns="http://www.w3.org/2000/svg"><symbol id="shapes-bin" viewBox="0 0 548.457 548.457"><path d="M151.57 525.938H331c-4.16-9.046-6.55-19.077-6.55-29.682 0-39.33 31.996-71.327 71.327-71.327 7.898 0 15.48 1.348 22.586 3.728l18.265-291.77c0-12.595-10.213-22.138-22.807-22.138H128.765c-12.594 0-22.807 9.543-22.807 22.137l22.807 364.226c0 12.604 10.213 24.825 22.806 24.825zM263.03 382.5h-47.81v-38.25h47.812v38.25zm125.5-64.527s-4.036 50.212-40.985 69.193c-3.242.04-7.87.048-12.546.048-8.875 0-17.902-.038-17.902-.038l-3.93 29.998-33.852-57.08L319.9 314.15 317.64 342.5l16.018 3.252 13.712-6.942 40.985-20.74.172-.097zm-2.057-8.808l-1.912.966-41.186 20.848-13.846-26.967-3.414-6.645 4.11-2.113 38.863-19.967 17.386 33.88zM285.34 182.577c11.638 0 24.136 2.38 35.62 9.43 4.973 7.984 15.816 26.01 15.816 26.01l27.674-12.222-31.202 58.57-60.34-10.825 25.398-12.794-5.537-15.376-13.054-8.12L240.702 193l-.153-.096s20.54-10.327 44.79-10.327zm-51.245 16.658l1.817 1.128 39.206 24.375-15.854 25.838-3.91 6.37-3.94-2.42-37.237-22.845 19.918-32.445zm-10.586 66.67l21.333 57.087-25.905-14.955-13.282 12.766v61.478s-40.115-26.535-40.115-68.065c4.21-8.415 16.248-27.08 16.248-27.08l-24.7-17.203 66.42-4.028zM100.468 61.057V72.82c0 12.593 10.213 22.806 22.807 22.806h279.512c12.594 0 22.807-10.213 22.807-22.807V61.056c0-12.594-10.213-22.807-22.807-22.807h-44.504c.2-1.205.373-2.42.373-3.682v-11.76C358.656 10.212 348.443 0 335.85 0H209.336c-12.594 0-22.807 10.213-22.807 22.807V34.57c0 1.26.172 2.476.373 3.68h-63.63c-12.592 0-22.805 10.213-22.805 22.807z"/><path d="M447.99 496.256c0-21.172-12.7-39.407-30.86-47.593-6.52-2.936-13.73-4.61-21.343-4.61-28.783 0-52.2 23.42-52.2 52.203 0 11.025 3.45 21.238 9.312 29.682 9.437 13.588 25.13 22.52 42.887 22.52 28.783 0 52.202-23.42 52.202-52.202z"/></symbol><symbol id="shapes-close" viewBox="0 0 174.239 174.239"><path d="M87.12 0C39.082 0 0 39.082 0 87.12s39.082 87.12 87.12 87.12 87.12-39.082 87.12-87.12S135.157 0 87.12 0zm0 159.305c-39.802 0-72.185-32.383-72.185-72.185S47.318 14.935 87.12 14.935s72.185 32.383 72.185 72.185-32.384 72.185-72.185 72.185z"/><path d="M120.83 53.414c-2.917-2.917-7.647-2.917-10.56 0L87.12 76.568 63.97 53.414c-2.918-2.917-7.643-2.917-10.56 0s-2.917 7.642 0 10.56l23.15 23.152-23.15 23.154c-2.918 2.917-2.918 7.642 0 10.56 1.457 1.457 3.368 2.187 5.28 2.187 1.91 0 3.823-.73 5.28-2.188l23.15-23.154 23.15 23.153c1.46 1.457 3.37 2.187 5.28 2.187 1.912 0 3.822-.73 5.28-2.188 2.918-2.918 2.918-7.643 0-10.56L97.68 87.127l23.15-23.153c2.917-2.917 2.917-7.643 0-10.56z"/></symbol><symbol id="shapes-collect" viewBox="0 0 612 612"><path d="M3.18 201.694l38.31 29.933L5.433 300.7c-18.028 31.85 12.943 62.878 32.676 73.68 19.425 10.63 49.576 11.895 77.745 11.512l50.704-82.89 38.31 20.723-66.48-123.18-135.21 1.15zM8.813 370.78l82.253 151.962c16.526 21.105 47.7 26.094 80 25.327h86.76V404.165l-164.506-1.15c-25.54 1.532-58.967-3.84-84.507-32.236zM526.31 90.732l-44.753 18.995-42.933-65.022c-19.116-31.21-61.27-19.164-80.282-7.14-18.716 11.835-34.44 37.593-47.76 62.416l47.913 84.533-36.697 23.46 139.966 1.576L526.31 90.73zM375.69 13.686l-172.786-1.732c-26.47 4.22-45.948 29.067-60.936 57.69l-42.062 75.883 125.86 69.766L306.53 71.97c11.04-23.083 31.944-49.714 69.162-58.284zm7.516 586.36l5.082-48.35 77.685-6.026c36.563-1.59 46.465-44.297 45.167-66.755-1.277-22.108-16.184-48.348-31.437-72.033l-97.162.925-2.73-43.47L310.58 485.99l72.628 114.056zm140.407-94.38l85.283-150.28c9.142-25.2-3.146-54.28-20.915-81.266l-45.976-73.577L419.97 276.8l86.2 140.12c14.836 20.845 27.993 52.04 17.445 88.747z"/></symbol><symbol id="shapes-desktop" viewBox="0 0 203.344 203.344"><path d="M199.78 142.966H68.17c-1.965 0-3.563-1.6-3.563-3.564v-82.5c0-1.965 1.6-3.563 3.563-3.563h131.61c1.965 0 3.563 1.598 3.563 3.562v82.5c0 1.966-1.598 3.564-3.563 3.564zm-36.47 26.04h-13.334v-16.04h-32v16.04h-13.334c-2.762 0-5 2.237-5 5s2.238 5 5 5h58.667c2.76 0 5-2.24 5-5s-2.24-5-5-5zM79.843 43.337H68.17c-.73 0-1.44.074-2.14.186-.412-.11-.835-.186-1.28-.186H15.094c-2.762 0-5 2.238-5 5s2.238 5 5 5h40.004c-.31 1.138-.49 2.33-.49 3.563v9.31H15.093c-2.762 0-5 2.238-5 5s2.238 5 5 5h39.513v12.873H15.094c-2.762 0-5 2.238-5 5s2.238 5 5 5h39.513V139.4c0 7.48 6.085 13.565 13.563 13.565h11.674v21.04c0 2.76-2.238 5-5 5H5c-2.762 0-5-2.24-5-5V29.337c0-2.762 2.238-5 5-5h69.844c2.762 0 5 2.238 5 5v14zm-47.63 98.726c0 4.257 3.45 7.708 7.708 7.708 4.257 0 7.708-3.45 7.708-7.708 0-4.257-3.45-7.708-7.708-7.708-4.257 0-7.708 3.45-7.708 7.708z"/></symbol><symbol id="shapes-employee" viewBox="0 0 385.327 385.327"><path d="M196.59 89.517c24.72 0 44.745-20.047 44.745-44.77C241.335 20.05 221.31 0 196.59 0c-24.726 0-44.77 20.05-44.77 44.746-.002 24.723 20.044 44.77 44.77 44.77zM289.83 220.877c-5.567-12.765-10.245-26.1-14.77-38.99-11.85-33.81-26.026-81.478-48.706-81.478h-59.73c-23.557 0-36.878 47.667-48.706 81.477-4.548 12.89-9.2 26.225-14.788 38.99-3.545 8.114-3.232 17.588 3.84 21.854 1.13.683.77 4.013.713 5.933-.02.738-.125 2.173-2 2.173h-1.84c-5.5 0-10 4.5-10 10v60.902c0 5.5 4.5 10 10 10h18.9c5.5 0 10-4.5 10-10v-60.902c0-5.5-4.5-10-10-10h-1.77c-1.29 0-1.46-1.523-1.682-2.173-.436-1.277-.004-3.875 1.214-4.362 4.318-1.728 7.557-5.856 9.69-10.74 4.363-10.004 11.46-31.736 16.12-45.076 1.083-3.1 2.43-5.12 2.162.27V230.5c0 2.08-.42 8.39 1.337 10.54 1.34 1.645 3.668 1 3.668 5v117.69c0 11.93 8.208 21.6 19.66 21.6s17.667-9.466 17.667-21.395V250.83c0-1.416.264-3.468 4.398-3.468h.956c4.18 0 4.48 2.427 4.48 3.2v113.102c0 11.93 6.3 21.663 17.752 21.663s19.66-9.67 19.66-21.6l-.08-117.064c0-1.932 2.562-3.158 3.528-4.355 1.86-2.305 2.98-5.227 2.98-8.402v-46.903c0-4.515.93-1.95 1.4-.22 3.65 13.388 10.78 37.545 15.345 48.01 2.855 6.525 7.063 10.438 13.76 10.438 2.328 0 4.697-.48 6.96-1.458 8.784-3.847 11.728-14.088 7.886-22.895zm-75.998-52.904l-14.747 13.563c-1.38 1.268-3.638 1.268-5.018 0l-14.747-13.563c-1.38-1.268-2.194-3.807-1.81-5.64l7.688-36.724c.115-.55.463-2.21.434-2.588l-.604-7.745c-.146-1.87 1.268-3.398 3.142-3.398h16.813c1.874 0 3.287 1.53 3.142 3.397l-.604 7.745c-.028.376.32 2.04.435 2.587l7.69 36.722c.382 1.834-.432 4.373-1.813 5.64z"/></symbol><symbol id="shapes-envelope" viewBox="0 0 242.565 243.226"><path fill="#D17C40" d="M242.565 91.623c-1.11-3.183-2.828-6.196-5.375-8.742l-99.8-75.69c-13.013-9.587-19.646-9.587-32.445 0L5.575 82.88c-2.547 2.546-4.28 5.56-5.382 8.742l120.97 106.122 121.402-106.12z"/><path fill="#E4E6E6" d="M30.32 23.416h181.925v151.588H30.32V23.416z"/><path fill="#E8AB55" d="M12.487 233.1l108.647-84.626 108.928 84.64c4.02-2.06 7.33-5.242 9.535-9.18l-102.2-80.286c-12.91-9.52-19.697-9.67-32.444 0L2.893 223.794c2.2 3.99 5.517 7.232 9.594 9.305z"/><path fill="#C2C5C5" d="M60.64 61.316v15.16h121.284v-15.16H60.64zm0 45.467h121.284V91.638H60.64v15.145z"/><path fill="#E8AB55" d="M121.283 182.584l121.282-90.962v128.86c0 12.57-10.192 22.743-22.74 22.743H22.74C10.17 243.225 0 233.053 0 220.483V91.623l121.283 90.96z"/><path fill="#F3B45A" d="M222.245 242.982c4.908-.526 9.356-2.584 12.82-5.736l-113.93-88.788L7.468 237.246c3.47 3.168 7.905 5.21 12.835 5.744l201.94-.008z"/><path fill="#F8D7A7" d="M2.887 231.383c2.206 3.98 5.522 7.224 9.6 9.318l108.647-84.624L230.062 240.7c4.02-2.057 7.33-5.232 9.535-9.187l-102.2-80.302c-14.33-10.593-17.803-11.087-32.444 0L2.887 231.384z"/></symbol><symbol id="shapes-error" viewBox="0 0 543.987 543.987"><path d="M85.265 74.203C-23.952 177.31-28.9 349.43 74.207 458.647c1.81 1.925 3.655 3.818 5.526 5.684 106.203 106.21 278.398 106.21 384.596 0 106.208-106.197 106.208-278.392 0-384.595C360.296-24.39 192.3-26.845 85.264 74.203zm52.166 117.065l53.842-53.84 80.765 80.764 80.765-80.765 53.847 53.84-80.766 80.793 80.77 80.737-53.847 53.847-80.765-80.77-80.765 80.77-53.84-53.847 80.758-80.737-80.764-80.792z"/></symbol><symbol id="shapes-icon-green" viewBox="0 0 22.296 22.296"><g fill="#030104"><path d="M13.15 18.625l1.845.73c-1.015 1.177-2.253 1.924-3.716 2.233-1.463.315-3.126.17-4.98-.43-2.94-.945-4.854-2.448-5.748-4.5-.697-1.642-.736-3.44-.105-5.394.755-2.334 2.076-3.924 3.967-4.772 1.89-.846 3.95-.912 6.19-.19 2.514.812 4.27 2.143 5.277 3.996 1.006 1.85 1.02 4.192.032 7.028L4.716 13.71c-.323 1.117-.244 2.092.25 2.93.49.838.6 1.032 2.28 1.753.673.292 3.26 1.49 5.903.232zm-.938-5.012c.314-1.087.244-2.016-.208-2.78-.453-.768-1.14-1.297-2.048-1.593-.975-.315-1.877-.28-2.708.11-.823.387-1.397 1.088-1.714 2.11l6.678 2.153zM12.066 6.184s3.298-6.768 10.23-3.56c0 0-4.03 4.685-10.23 3.56zM11.587 5.443S13.322 1.37 7.817.545c0 0 .17 5.072 3.77 4.898z"/></g></symbol><symbol id="shapes-input-check" viewBox="0 0 438.533 438.533"><circle fill="#FFF" cx="219.267" cy="219.267" r="187.5"/><path d="M409.133 109.203c-19.607-33.592-46.205-60.19-79.798-79.796C295.735 9.8 259.058 0 219.273 0c-39.78 0-76.47 9.8-110.063 29.407-33.595 19.604-60.192 46.2-79.8 79.796C9.8 142.8 0 179.49 0 219.267c0 39.78 9.804 76.462 29.407 110.062 19.607 33.59 46.204 60.188 79.8 79.797 33.596 19.605 70.282 29.407 110.062 29.407s76.47-9.802 110.064-29.407c33.593-19.603 60.19-46.206 79.795-79.798 19.603-33.597 29.402-70.285 29.402-110.063 0-39.782-9.8-76.472-29.4-110.064zm-47.688 76.66L206.42 340.89c-3.617 3.62-7.992 5.428-13.134 5.428-4.948 0-9.23-1.81-12.847-5.428L77.082 237.54c-3.422-3.43-5.137-7.704-5.137-12.848 0-5.328 1.71-9.71 5.137-13.136l25.98-25.693c3.622-3.616 7.9-5.424 12.85-5.424s9.236 1.808 12.85 5.423l64.526 64.523 116.484-116.2c3.616-3.616 7.897-5.425 12.847-5.425 4.946 0 9.233 1.81 12.848 5.427l25.98 25.697c3.433 3.424 5.14 7.8 5.14 13.13 0 5.14-1.707 9.423-5.143 12.85z"/></symbol><symbol id="shapes-list" viewBox="0 0 362 362"><path d="M314.493 46.162h-50.348c-1.78 0-2.03 1.946-2.03 1.946l-2.255 15.88s-.56 2.174 1.837 2.174h32.796c5.5 0 10 4.5 10 10V332c0 5.5-4.5 10-10 10H67.507c-5.5 0-10-4.5-10-10V76.162c0-5.5 4.5-10 10-10h33.373c1.708 0 1.31-1.827 1.31-1.827L99.87 47.99s-.354-1.828-1.854-1.828H47.508c-5.5 0-10 4.5-10 10V352c0 5.5 4.5 10 10 10h266.985c5.5 0 10-4.5 10-10V56.162c0-5.5-4.5-10-10-10z"/><path d="M236.58 29.996h-20.64c-1.25 0-1.432-1.808-1.61-2.693C211.22 11.733 197.485 0 181 0c-16.334 0-29.97 11.52-33.244 26.876-.22 1.023-.15 3.12-1.734 3.12H125.42c-3.3 0-5.62 2.673-5.156 5.94l5.318 37.456c.464 3.267 3.543 5.94 6.844 5.94h97.148c3.3 0 6.38-2.673 6.843-5.94l5.318-37.455c.465-3.268-1.855-5.94-5.156-5.94zM181 38.5c-5.66 0-10.25-4.59-10.25-10.25S175.34 18 181 18s10.25 4.59 10.25 10.25S186.66 38.5 181 38.5zM203.82 135.73c0 2.182-1.782 3.966-3.964 3.966H91.218c-2.18 0-3.965-1.784-3.965-3.966v-8.15c0-2.182 1.785-3.967 3.965-3.967h108.64c2.18 0 3.964 1.785 3.964 3.966v8.15zM256.42 148.398c-1.702 1.7-4.483 1.7-6.185 0l-15.584-15.586c-1.7-1.7-1.698-4.482 0-6.183l3.997-3.995c1.7-1.7 4.483-1.7 6.183 0l5.407 5.407c1.7 1.7 4.482 1.7 6.182 0l13.132-13.13c1.7-1.7 4.483-1.702 6.182 0l3.995 3.993c1.7 1.7 1.7 4.483 0 6.184l-23.31 23.308zM203.82 191.7c0 2.18-1.782 3.966-3.964 3.966H91.218c-2.18 0-3.965-1.785-3.965-3.967v-8.15c0-2.183 1.785-3.968 3.965-3.968h108.64c2.18 0 3.964 1.785 3.964 3.967v8.15zM256.42 204.367c-1.702 1.7-4.483 1.7-6.185 0L234.65 188.78c-1.7-1.7-1.698-4.483 0-6.183l3.997-3.994c1.7-1.7 4.483-1.7 6.183.002l5.407 5.406c1.7 1.7 4.482 1.7 6.182 0l13.132-13.13c1.7-1.7 4.483-1.7 6.182 0l3.995 3.994c1.7 1.7 1.7 4.482 0 6.184l-23.31 23.31z"/><g><path d="M170.75 247.668c0 2.182-1.782 3.966-3.964 3.966H91.218c-2.18 0-3.965-1.784-3.965-3.966v-8.15c0-2.182 1.785-3.967 3.965-3.967h75.568c2.182 0 3.965 1.786 3.965 3.967v8.15zM256.42 260.335c-1.702 1.7-4.483 1.7-6.185 0L234.65 244.75c-1.7-1.7-1.698-4.484 0-6.184l3.997-3.994c1.7-1.7 4.483-1.7 6.183 0l5.407 5.407c1.7 1.7 4.482 1.7 6.182 0l13.132-13.132c1.7-1.7 4.483-1.7 6.182 0l3.995 3.994c1.7 1.7 1.7 4.483 0 6.184l-23.31 23.31z"/></g></symbol><symbol id="shapes-location-point" viewBox="0 0 194.869 249.644"><path fill="#53BBA9" d="M97.435 0C43.625 0 0 42.255 0 94.395c0 1.014.488 25.256 8.857 42.567 24 53.618 88.493 112.987 88.577 112.68.106.2 64.335-58.84 88.44-112.36 7.158-12.688 8.994-40.823 8.994-42.895C194.876 42.255 151.243 0 97.435 0zm.007 124.815c-15.088 0-27.297-12.202-27.297-27.282 0-15.087 12.21-27.31 27.297-27.31 15.08 0 27.296 12.223 27.296 27.31 0 15.073-12.21 27.282-27.296 27.282z"/><path fill="#2C7E6F" d="M97.442 54.638c-23.687 0-42.895 19.194-42.895 42.895 0 23.687 19.208 42.88 42.895 42.88s42.895-19.193 42.895-42.88c.007-23.7-19.2-42.895-42.895-42.895zm0 70.177c-15.088 0-27.297-12.202-27.297-27.282 0-15.087 12.21-27.31 27.297-27.31 15.08 0 27.296 12.223 27.296 27.31 0 15.073-12.21 27.282-27.296 27.282z"/></symbol><symbol id="shapes-logo-echotri" viewBox="-2 -3 455.5 133"><path fill="#C2C575" d="M46.845 72.25c0-17.397 14.327-31.5 32-31.5 11.15 0 20.962 5.616 26.69 14.127C102.446 40.66 89.616 30 74.25 30c-17.673 0-32 14.103-32 31.5 0 6.422 1.957 12.393 5.31 17.373-.465-2.137-.715-4.352-.715-6.623z"/><path fill="#C2C575" d="M76.036 24.767c22.146 0 40.3 17.447 42.092 39.644.096-1.19.158-2.39.158-3.605 0-23.886-18.916-43.25-42.25-43.25s-42.25 19.364-42.25 43.25c0 1.216.062 2.416.158 3.606 1.79-22.196 19.945-39.643 42.092-39.643z"/><path fill="#C2C575" d="M78.206 5c-14.915 0-28.292 6.424-37.43 16.593C49.582 13.92 61.178 9.25 73.892 9.25c27.545 0 49.875 21.882 49.875 48.875 0 12.377-4.704 23.67-12.444 32.282C121.6 81.454 128.08 68.41 128.08 53.875 128.08 26.882 105.75 5 78.207 5z"/><path fill="#C58B75" d="M86.44 44.856c.79 2.99 1.222 6.14 1.222 9.4 0 19.055-14.438 34.5-32.25 34.5-12.18 0-22.778-7.224-28.265-17.882 2.666 16.258 16.204 28.633 32.515 28.633 18.226 0 33-15.446 33-34.5 0-7.524-2.31-14.48-6.222-20.15z"/><path fill="#C58B75" d="M98.844 64.56c0 .142.01.28.01.422 0 21.333-18.135 38.625-40.507 38.625-22.372 0-40.507-17.293-40.507-38.625 0-.142.01-.28.01-.423-.73 2.864-1.128 5.85-1.128 8.922 0 21.332 18.636 38.625 41.625 38.625 22.99 0 41.625-17.293 41.625-38.625 0-3.072-.398-6.056-1.128-8.92z"/><path fill="#C58B75" d="M62.605 121.105c-28.72 0-52-22.723-52-50.75 0-17.292 8.868-32.556 22.4-41.717-17.398 8.208-29.4 25.594-29.4 45.717 0 28.027 23.28 50.75 52 50.75 11 0 21.197-3.342 29.6-9.03-6.835 3.223-14.5 5.03-22.6 5.03z"/><path fill="#8F4319" d="M80.833 75.68S74.666 79.417 72 80c-1.5.328-4.994 1-10.833-1.834C55.792 75.56 55 68.5 55 68.5h16.333s16.1.166 20.936 0c.146-1.09.23-2.203.23-3.334C92.5 51.543 81.456 40.5 67.832 40.5S43.166 51.543 43.166 65.167 54.21 89.833 67.833 89.833c6.68 0 12.736-2.66 17.178-6.974l-4.177-7.18zM58.067 52.757c1.928-2.27 5.44-3.64 9.433-3.776 4.302-.145 6.818 1.404 9.25 3.77 3.083 3 3.083 8.084 3.083 8.084L55 60.5s.667-4.917 3.067-7.743zM144.167 23.5l13-4.333L156.333 44s6.833-5.25 13.667-4.29 17 5.124 17.334 13.29c.332 8.167 0 36.833 0 36.833h-12.168L175 57s-.14-2.12-2.358-4.192c-2.475-2.308-2.475-2.308-7.382-2.1-4.833 1.167-8.926 3.792-8.926 3.792l.5 35.333h-12.667V23.5z"/><g fill="#9AA017"><path d="M211.333 19.167v12.166h22.334v12.02c6.515 2.894 11.394 9.398 12.666 17.31V31h22V19.167h-57zM233.667 86.188v1.725h12.666v-19.03c-1.272 7.91-6.15 14.413-12.666 17.305z"/></g><path fill="#8F4319" d="M219.176 39.58c-12.79 0-23.158 11.418-23.158 25.502 0 14.087 10.367 25.506 23.158 25.506 12.787 0 23.158-11.42 23.158-25.506 0-14.084-10.37-25.503-23.158-25.503zm.55 41.086c-6.753 0-12.226-7.088-12.226-15.833C207.5 56.09 212.973 49 219.725 49c6.75 0 12.226 7.09 12.226 15.833-.002 8.745-5.475 15.833-12.225 15.833z"/><path fill="#9AA017" d="M305.428 58.878s12.905-9.055 12.572-19.3-8.333-20.412-19-20.412h-27v68.746h13.667V59.667h7.167L311 87.912h15l-20.572-29.034zm-9.76-9.297h-12v-20s10.166.168 12.832 0 8 4.668 8 10.08c0 8.42-8.833 9.92-8.833 9.92zM327.667 19.167h13v69.5h-13z"/><path fill="#8F4319" d="M131.36 75.627c-.003-.002.006-.016.005-.02-2.7 2.928-6.48 4.754-10.67 4.754-8.206 0-14.86-6.98-14.86-15.59s6.654-15.59 14.86-15.59c4.03 0 7.68 1.69 10.357 4.423l-.056-.064 6.03-7.22c-4.247-4.373-9.996-7.063-16.33-7.063-13.066 0-23.66 11.423-23.66 25.515 0 14.09 10.594 25.514 23.66 25.514 6.608 0 12.58-2.925 16.873-7.636-.16-.183-5.964-6.828-6.21-7.023z"/><g fill="#FFF"><path d="M135.82 112.44c0 1.16-.17 2.2-.513 3.12s-.845 1.693-1.51 2.328-1.483 1.118-2.46 1.45-2.1.498-3.37.498c-1.19 0-2.26-.15-3.207-.446-.947-.298-1.748-.75-2.402-1.355s-1.155-1.36-1.5-2.264c-.348-.9-.52-1.96-.52-3.17v-11.528c0-.098.028-.186.087-.264s.164-.142.315-.19.35-.088.593-.117.557-.043.938-.043c.372 0 .68.015.924.044s.44.07.586.118.25.112.315.19.095.166.095.264v11.19c0 .753.093 1.405.278 1.956.186.553.452 1.01.798 1.37s.762.633 1.245.813 1.024.272 1.62.272c.605 0 1.147-.093 1.626-.278s.884-.456 1.216-.813.588-.795.77-1.317.27-1.116.27-1.78v-11.41c0-.1.03-.187.088-.265s.16-.142.308-.19.344-.088.593-.117.56-.043.93-.043.677.015.917.044.432.07.58.118.248.112.307.19.088.166.088.264v11.367zM152.197 119.002c0 .098-.03.184-.088.256-.06.074-.157.135-.294.184s-.325.085-.564.11-.535.036-.886.036c-.36 0-.662-.013-.9-.037s-.428-.06-.565-.108-.233-.11-.292-.184c-.06-.072-.088-.158-.088-.256v-7.456c0-.635-.046-1.133-.14-1.494s-.226-.67-.402-.93c-.176-.26-.403-.46-.68-.6s-.604-.214-.975-.214c-.47 0-.942.17-1.42.513s-.978.84-1.495 1.495v8.687c0 .098-.03.184-.088.256-.06.074-.16.135-.3.184s-.33.085-.564.11-.532.036-.894.036-.66-.013-.894-.037-.422-.06-.564-.108-.242-.11-.3-.184c-.06-.072-.088-.158-.088-.256v-13.066c0-.098.024-.184.073-.256.048-.074.136-.135.263-.184s.29-.085.49-.11.453-.036.755-.036c.313 0 .57.013.776.037s.364.06.476.11.193.108.242.183c.05.072.073.158.073.256v1.51c.723-.782 1.458-1.368 2.205-1.76s1.526-.585 2.336-.585c.89 0 1.638.147 2.25.44s1.103.69 1.478 1.194.647 1.09.813 1.765.25 1.483.25 2.43v8.072zM167.886 112.088c0 .45-.1.78-.3.996s-.477.322-.828.322h-7.954c0 .557.066 1.063.198 1.516.132.455.342.84.63 1.158s.66.56 1.113.725 1 .25 1.633.25c.645 0 1.21-.047 1.7-.14.487-.093.91-.195 1.266-.308s.652-.215.886-.31c.234-.09.425-.138.57-.138.09 0 .162.017.22.05.06.035.108.096.147.184s.066.213.08.373c.016.162.023.364.023.608 0 .215-.005.398-.015.55s-.024.28-.044.388-.048.198-.087.27c-.04.075-.09.146-.154.214s-.238.16-.52.278-.646.232-1.085.345c-.44.11-.942.21-1.51.293-.565.082-1.17.124-1.815.124-1.162 0-2.18-.146-3.054-.44s-1.604-.736-2.19-1.332-1.023-1.348-1.31-2.256-.433-1.974-.433-3.194c0-1.162.15-2.21.454-3.143.303-.932.742-1.723 1.318-2.373.576-.648 1.277-1.145 2.102-1.486s1.755-.513 2.79-.513c1.095 0 2.03.162 2.806.484s1.414.77 1.912 1.34c.498.572.864 1.248 1.1 2.03s.35 1.63.35 2.548v.586zm-3.574-1.055c.03-1.035-.178-1.848-.623-2.44-.445-.59-1.13-.885-2.06-.885-.468 0-.875.088-1.222.264s-.635.413-.864.71c-.23.3-.405.65-.527 1.055-.122.406-.193.838-.212 1.297h5.507zM189.155 117.99c0 .284-.013.522-.037.71-.024.192-.06.346-.11.463s-.108.203-.183.257c-.072.054-.153.08-.24.08h-9.522c-.322 0-.593-.096-.813-.285-.22-.19-.33-.5-.33-.93V101.76c0-.43.11-.738.33-.93.22-.19.49-.285.813-.285h9.463c.088 0 .166.024.234.073s.127.135.176.257.085.277.11.47c.023.188.036.43.036.724 0 .272-.013.505-.036.694-.025.19-.062.345-.11.462s-.107.203-.176.257-.146.08-.234.08h-6.768v4.63h5.728c.088 0 .168.026.242.08.072.054.134.137.183.25s.086.263.11.452c.024.19.037.423.037.696 0 .284-.013.52-.036.704-.024.186-.06.335-.11.446-.048.113-.11.193-.182.242-.074.05-.154.073-.242.073h-5.728v5.347h6.826c.088 0 .17.027.24.08.075.055.136.14.185.257s.084.27.108.46c.025.19.037.428.037.71zM204.814 119.002c0 .098-.03.184-.088.256-.06.074-.156.135-.293.184s-.325.085-.563.11c-.24.023-.535.036-.887.036-.36 0-.662-.013-.9-.037-.24-.023-.428-.06-.564-.108s-.235-.11-.294-.184c-.06-.072-.088-.158-.088-.256v-7.456c0-.635-.047-1.133-.14-1.494-.093-.36-.227-.67-.402-.93-.176-.26-.403-.46-.68-.6-.28-.143-.605-.214-.976-.214-.47 0-.942.17-1.42.513s-.978.84-1.495 1.495v8.687c0 .098-.03.184-.088.256-.06.074-.16.135-.3.184-.143.05-.33.085-.564.11s-.532.036-.894.036-.66-.013-.895-.037-.423-.06-.564-.108-.24-.11-.3-.184c-.058-.072-.087-.158-.087-.256v-13.066c0-.098.024-.184.073-.256.05-.074.137-.135.264-.184s.29-.085.49-.11.452-.036.755-.036c.313 0 .57.013.776.037s.364.06.478.11c.11.048.192.108.24.183.05.072.074.158.074.256v1.51c.723-.782 1.457-1.368 2.205-1.76.746-.39 1.525-.585 2.336-.585.89 0 1.638.147 2.248.44s1.105.69 1.48 1.194c.376.503.647 1.09.814 1.765s.25 1.483.25 2.43v8.072zM215.89 117.713c0 .43-.028.76-.082.988-.054.23-.124.393-.212.485s-.218.176-.388.248c-.172.074-.372.137-.602.19-.23.054-.48.096-.746.125-.27.03-.54.044-.813.044-.732 0-1.367-.093-1.904-.278s-.98-.47-1.333-.856-.61-.872-.776-1.458-.25-1.28-.25-2.08v-6.694h-1.566c-.186 0-.327-.114-.425-.344s-.146-.613-.146-1.15c0-.283.012-.522.037-.718.023-.195.06-.35.11-.462.048-.11.108-.192.183-.24.072-.05.158-.074.256-.074h1.553v-2.915c0-.098.026-.186.08-.264s.15-.145.293-.2c.14-.052.33-.09.57-.116.24-.023.535-.036.887-.036.36 0 .66.013.9.036.24.025.428.064.564.117.138.056.235.12.294.2s.088.165.088.263v2.915h2.842c.098 0 .183.024.257.073.073.05.135.13.184.242.05.113.085.267.11.462.023.195.036.435.036.718 0 .537-.05.92-.146 1.15s-.24.344-.425.344h-2.857v6.138c0 .713.112 1.248.337 1.604s.625.534 1.2.534c.196 0 .372-.017.528-.052.156-.033.295-.072.418-.117.12-.043.224-.082.307-.117.083-.033.16-.05.228-.05.06 0 .115.017.17.05.053.035.095.104.124.205.03.105.056.243.08.42.022.175.035.4.035.673zM226.948 107.15c0 .353-.01.64-.03.865s-.048.4-.087.527-.09.215-.153.264-.144.073-.24.073c-.08 0-.167-.018-.265-.053l-.33-.11c-.122-.038-.256-.074-.402-.108s-.308-.053-.483-.053c-.205 0-.41.042-.615.124-.205.085-.418.214-.637.39-.22.176-.45.41-.69.703s-.494.654-.768 1.084v8.145c0 .098-.03.184-.088.256-.06.074-.16.135-.3.184-.144.05-.33.085-.565.11s-.532.036-.894.036-.658-.013-.893-.037-.423-.06-.564-.108-.24-.11-.3-.184c-.06-.072-.088-.158-.088-.256v-13.066c0-.098.024-.184.073-.256.05-.074.137-.135.264-.184s.29-.085.49-.11.452-.036.755-.036c.313 0 .57.013.776.037s.363.06.477.11c.11.048.192.108.24.183.05.072.074.158.074.256v1.626c.342-.488.664-.89.967-1.208s.592-.57.865-.755.547-.316.82-.39c.273-.073.547-.11.82-.11.127 0 .264.008.41.023.146.014.298.04.454.072.155.035.292.074.41.117.116.045.2.09.255.14s.093.103.117.16.047.14.066.243c.02.102.034.256.044.46s.016.485.016.836zM240.952 112.088c0 .45-.1.78-.3.996s-.477.322-.828.322h-7.954c0 .557.066 1.063.197 1.516.133.455.342.84.63 1.158.288.317.66.56 1.114.725.454.166 1 .25 1.634.25.645 0 1.21-.047 1.7-.14.487-.093.91-.195 1.267-.308.356-.112.652-.215.887-.31.234-.09.425-.138.57-.138.09 0 .162.017.22.05.06.035.108.096.147.184s.065.213.08.373c.015.162.022.364.022.608 0 .215-.005.398-.015.55s-.023.28-.043.388-.05.198-.088.27c-.04.075-.092.146-.155.214s-.236.16-.52.278-.645.232-1.084.345c-.438.11-.94.21-1.508.293-.566.082-1.172.124-1.816.124-1.162 0-2.18-.146-3.054-.44-.875-.292-1.604-.736-2.19-1.332s-1.023-1.348-1.312-2.256-.432-1.974-.432-3.194c0-1.162.15-2.21.454-3.143.303-.932.742-1.723 1.318-2.373.576-.648 1.276-1.145 2.103-1.486.824-.342 1.755-.513 2.79-.513 1.094 0 2.028.162 2.806.484.774.322 1.412.77 1.91 1.34.498.572.864 1.248 1.1 2.03s.35 1.63.35 2.548v.586zm-3.574-1.055c.03-1.035-.18-1.848-.623-2.44-.444-.59-1.13-.885-2.058-.885-.47 0-.877.088-1.224.264s-.635.413-.863.71c-.23.3-.406.65-.527 1.055-.123.406-.193.838-.213 1.297h5.508zM257.14 112.278c0 1.162-.125 2.21-.375 3.142-.248.934-.612 1.727-1.09 2.38s-1.075 1.158-1.788 1.51-1.528.527-2.446.527c-.38 0-.73-.036-1.046-.11-.318-.072-.626-.186-.924-.336-.298-.15-.593-.34-.886-.563s-.596-.488-.908-.79v6.15c0 .1-.03.187-.088.265s-.16.144-.3.197c-.143.053-.33.095-.564.124s-.532.044-.894.044-.66-.015-.894-.044-.423-.07-.564-.125-.24-.12-.3-.198-.088-.166-.088-.264v-18.252c0-.098.024-.184.073-.256.05-.074.134-.135.256-.184s.283-.085.484-.11c.2-.023.45-.036.754-.036.294 0 .54.013.74.037.2.024.36.06.483.11s.208.108.257.183c.05.072.073.158.073.256v1.538c.38-.39.754-.734 1.12-1.032.366-.298.74-.547 1.12-.748.382-.2.774-.35 1.18-.446s.838-.146 1.297-.146c.957 0 1.772.188 2.446.563.674.377 1.224.892 1.647 1.546.426.655.735 1.417.93 2.286s.296 1.796.296 2.782zm-3.84.264c0-.557-.04-1.09-.123-1.604-.084-.512-.226-.97-.426-1.37s-.463-.72-.79-.958-.734-.36-1.223-.36c-.244 0-.486.038-.725.11-.24.074-.484.193-.732.36-.25.165-.506.38-.77.644s-.542.59-.835.98v4.308c.518.654 1.01 1.16 1.48 1.517s.956.533 1.464.533c.478 0 .886-.122 1.222-.366.338-.244.613-.564.828-.96.215-.395.373-.842.477-1.34.102-.5.154-.997.154-1.495zM268.477 107.15c0 .353-.01.64-.03.865s-.048.4-.087.527-.09.215-.153.264c-.064.05-.145.073-.242.073-.078 0-.166-.018-.264-.053l-.33-.11s-.255-.074-.4-.108-.31-.053-.484-.053c-.205 0-.41.042-.615.124-.204.085-.416.214-.637.39-.22.176-.45.41-.688.703-.24.293-.496.654-.77 1.084v8.145c0 .098-.03.184-.088.256-.06.074-.16.135-.3.184s-.33.085-.564.11-.532.036-.894.036-.66-.013-.895-.037-.423-.06-.563-.108c-.143-.05-.242-.11-.3-.184-.06-.072-.09-.158-.09-.256v-13.066c0-.098.025-.184.074-.256.05-.074.137-.135.264-.184s.29-.085.49-.11c.2-.023.452-.036.755-.036.313 0 .57.013.776.037s.364.06.477.11.193.108.242.183c.048.072.072.158.072.256v1.626c.342-.488.664-.89.967-1.208s.59-.57.863-.755.547-.316.82-.39c.273-.073.547-.11.82-.11.127 0 .264.008.41.023.146.014.298.04.454.072.156.035.293.074.41.117.117.045.202.09.257.14.053.05.092.103.117.16.024.06.047.14.066.243.02.102.034.256.044.46s.017.485.017.836zM274.717 101.512c0 .742-.15 1.255-.454 1.538s-.864.425-1.685.425c-.83 0-1.39-.137-1.677-.41-.288-.273-.432-.767-.432-1.48 0-.74.148-1.256.446-1.545.298-.287.862-.432 1.692-.432.82 0 1.377.14 1.67.418.294.277.44.773.44 1.486zm-.28 17.49c0 .098-.028.184-.087.256-.06.074-.16.135-.3.184s-.33.085-.564.11-.532.036-.894.036-.66-.013-.894-.037-.423-.06-.563-.108c-.143-.05-.242-.11-.3-.184-.06-.072-.09-.158-.09-.256v-13.037c0-.098.03-.184.09-.256.058-.075.157-.138.3-.192.14-.053.33-.095.563-.124s.532-.044.894-.044.66.015.894.044.422.07.563.124c.14.055.24.117.3.19s.088.16.088.257v13.037zM287.314 115.31c0 .743-.14 1.397-.417 1.964-.28.566-.672 1.04-1.18 1.42s-1.108.668-1.802.857c-.693.192-1.445.287-2.256.287-.49 0-.956-.036-1.4-.11-.444-.072-.842-.166-1.193-.277-.352-.112-.645-.228-.88-.345s-.404-.228-.512-.33c-.107-.103-.19-.263-.25-.483-.058-.22-.087-.544-.087-.974 0-.283.01-.51.03-.68s.048-.31.087-.41c.04-.105.088-.172.146-.206s.133-.052.22-.052c.108 0 .267.062.477.183.21.123.472.257.784.403s.677.283 1.092.41.887.19 1.414.19c.332 0 .627-.034.887-.103.258-.068.482-.166.674-.293.19-.127.334-.288.432-.483s.145-.42.145-.674c0-.293-.09-.544-.27-.754s-.42-.395-.718-.55c-.3-.157-.636-.304-1.012-.44s-.762-.288-1.156-.454c-.397-.166-.783-.356-1.16-.57s-.712-.48-1.01-.792c-.298-.313-.537-.688-.718-1.128s-.27-.967-.27-1.582c0-.625.12-1.198.365-1.72s.596-.97 1.055-1.342 1.018-.66 1.678-.864c.658-.205 1.398-.308 2.22-.308.41 0 .807.03 1.192.088s.735.132 1.048.22.576.184.79.285c.216.104.37.19.463.264.092.074.158.146.197.22.04.073.068.16.088.265.02.102.037.23.05.38.017.152.023.34.023.564 0 .264-.006.48-.02.645-.015.167-.04.3-.073.397-.035.098-.08.164-.14.197-.06.035-.127.052-.205.052-.088 0-.225-.052-.41-.153-.186-.104-.417-.213-.696-.33-.277-.117-.6-.227-.967-.33-.366-.102-.784-.153-1.253-.153-.332 0-.62.034-.864.103s-.444.166-.6.293-.274.276-.353.447-.117.354-.117.55c0 .302.093.556.278.76s.43.387.733.543.646.303 1.032.44.777.285 1.172.445c.396.163.786.35 1.172.565s.73.48 1.032.79.547.688.732 1.122.28.948.28 1.544zM302.153 112.088c0 .45-.1.78-.3.996s-.477.322-.828.322h-7.954c0 .557.067 1.063.198 1.516.133.455.342.84.63 1.158.288.317.66.56 1.114.725.453.166.998.25 1.633.25.645 0 1.21-.047 1.7-.14.487-.093.91-.195 1.267-.308.355-.112.65-.215.886-.31.234-.09.425-.138.57-.138.09 0 .162.017.22.05.06.035.108.096.147.184s.065.213.08.373c.015.162.022.364.022.608 0 .215-.005.398-.015.55s-.024.28-.044.388-.05.198-.088.27c-.04.075-.09.146-.154.214s-.236.16-.52.278-.645.232-1.084.345c-.44.11-.942.21-1.51.293-.565.082-1.17.124-1.815.124-1.162 0-2.18-.146-3.054-.44-.875-.292-1.604-.736-2.19-1.332s-1.023-1.348-1.312-2.256-.43-1.974-.43-3.194c0-1.162.15-2.21.453-3.143.303-.932.742-1.723 1.318-2.373.577-.648 1.277-1.145 2.104-1.486.824-.342 1.755-.513 2.79-.513 1.094 0 2.028.162 2.806.484.775.322 1.413.77 1.91 1.34.5.572.865 1.248 1.1 2.03s.352 1.63.352 2.548v.586zm-3.574-1.055c.028-1.035-.18-1.848-.624-2.44-.444-.59-1.13-.885-2.058-.885-.47 0-.877.088-1.224.264s-.635.413-.863.71c-.23.3-.405.65-.526 1.055-.123.406-.193.838-.213 1.297h5.51zM327.715 118.064c.117.352.19.63.22.835s-.01.357-.117.46c-.107.103-.298.166-.57.19s-.65.037-1.13.037c-.497 0-.886-.008-1.163-.02-.28-.017-.49-.046-.638-.09-.146-.044-.25-.104-.308-.183s-.108-.18-.147-.308l-1.274-3.81h-7.12l-1.2 3.707c-.04.137-.092.252-.154.344-.064.094-.167.167-.31.22-.14.054-.34.09-.6.11-.26.02-.598.03-1.018.03-.45 0-.8-.016-1.055-.045s-.43-.1-.527-.212-.132-.27-.103-.477.103-.48.22-.82l5.845-16.816c.06-.166.127-.3.205-.402.078-.104.202-.18.373-.234s.408-.087.71-.103c.304-.014.704-.02 1.202-.02.576 0 1.035.007 1.377.02.342.016.607.05.8.104.188.055.325.135.41.242.08.107.152.254.21.44l5.86 16.802zm-8.7-13.9h-.016l-2.682 8.056h5.376l-2.68-8.057zM339.346 115.31c0 .743-.14 1.397-.417 1.964-.28.566-.673 1.04-1.18 1.42s-1.11.668-1.803.857c-.693.192-1.445.287-2.256.287-.487 0-.954-.036-1.398-.11-.444-.072-.842-.166-1.193-.277-.353-.112-.646-.228-.88-.345s-.405-.228-.513-.33c-.107-.103-.19-.263-.25-.483-.058-.22-.087-.544-.087-.974 0-.283.01-.51.03-.68s.048-.31.087-.41c.04-.105.088-.172.146-.206s.132-.052.22-.052c.107 0 .266.062.476.183.21.123.47.257.783.403s.676.283 1.09.41.888.19 1.415.19c.332 0 .627-.034.887-.103.258-.068.482-.166.674-.293.188-.127.333-.288.43-.483s.147-.42.147-.674c0-.293-.09-.544-.27-.754s-.42-.395-.718-.55c-.3-.157-.637-.304-1.013-.44s-.762-.288-1.156-.454c-.395-.166-.78-.356-1.157-.57s-.713-.48-1.01-.792c-.3-.313-.538-.688-.72-1.128s-.27-.967-.27-1.582c0-.625.122-1.198.366-1.72s.595-.97 1.054-1.342 1.018-.66 1.678-.864c.658-.205 1.398-.308 2.22-.308.41 0 .807.03 1.192.088s.735.132 1.048.22.576.184.79.285c.216.104.37.19.463.264.092.074.158.146.197.22.04.073.068.16.088.265.02.102.037.23.05.38.017.152.023.34.023.564 0 .264-.007.48-.022.645-.013.167-.038.3-.07.397-.036.098-.082.164-.14.197-.06.035-.128.052-.206.052-.088 0-.225-.052-.41-.153-.186-.104-.417-.213-.696-.33-.277-.117-.6-.227-.967-.33-.364-.102-.782-.153-1.25-.153-.333 0-.62.034-.865.103s-.444.166-.6.293-.274.276-.353.447-.117.354-.117.55c0 .302.093.556.278.76s.43.387.732.543.646.303 1.032.44.777.285 1.172.445c.395.163.785.35 1.17.565s.73.48 1.034.79.547.688.732 1.122.28.948.28 1.544zM351.313 115.31c0 .743-.14 1.397-.418 1.964-.277.566-.67 1.04-1.18 1.42s-1.107.668-1.8.857c-.694.192-1.446.287-2.257.287-.488 0-.955-.036-1.398-.11-.445-.072-.843-.166-1.194-.277-.352-.112-.645-.228-.88-.345s-.404-.228-.512-.33c-.107-.103-.19-.263-.25-.483-.058-.22-.087-.544-.087-.974 0-.283.01-.51.03-.68s.048-.31.087-.41c.04-.105.088-.172.146-.206s.132-.052.22-.052c.107 0 .266.062.477.183.21.123.47.257.783.403s.676.283 1.092.41c.414.127.886.19 1.413.19.332 0 .627-.034.886-.103s.485-.166.675-.293c.19-.127.335-.288.433-.483s.146-.42.146-.674c0-.293-.09-.544-.27-.754-.183-.21-.422-.395-.72-.55s-.635-.304-1.01-.44c-.377-.137-.762-.288-1.158-.454-.395-.166-.78-.356-1.156-.57-.377-.216-.714-.48-1.012-.792s-.537-.688-.717-1.128c-.18-.44-.27-.967-.27-1.582 0-.625.122-1.198.366-1.72s.596-.97 1.055-1.342 1.02-.66 1.678-.864c.66-.205 1.4-.308 2.22-.308.41 0 .808.03 1.194.088.385.06.734.132 1.047.22s.575.184.79.285c.215.104.368.19.46.264.094.074.16.146.2.22.038.073.067.16.087.265.02.102.036.23.052.38.013.152.02.34.02.564 0 .264-.008.48-.02.645-.017.167-.04.3-.075.397s-.08.164-.14.197c-.058.035-.126.052-.204.052-.087 0-.224-.052-.41-.153-.185-.104-.417-.213-.694-.33-.28-.117-.602-.227-.967-.33-.368-.102-.785-.153-1.254-.153-.332 0-.62.034-.864.103s-.444.166-.6.293-.274.276-.353.447-.118.354-.118.55c0 .302.093.556.278.76s.43.387.732.543.646.303 1.033.44c.385.136.775.285 1.172.445.395.163.785.35 1.172.565.384.215.728.48 1.03.79s.548.688.733 1.122.28.948.28 1.544zM367.295 112.337c0 1.113-.146 2.13-.44 3.047s-.736 1.71-1.332 2.373-1.343 1.177-2.24 1.538-1.95.542-3.15.542c-1.162 0-2.173-.16-3.032-.483s-1.57-.79-2.138-1.406-.986-1.372-1.26-2.27-.41-1.925-.41-3.077c0-1.112.148-2.13.446-3.053.298-.924.745-1.715 1.34-2.373.597-.66 1.342-1.17 2.234-1.53.895-.362 1.94-.543 3.143-.543 1.172 0 2.188.16 3.047.477.86.318 1.57.784 2.13 1.4s.98 1.37 1.254 2.27.41 1.928.41 3.09zm-3.794.146c0-.645-.05-1.237-.153-1.78-.102-.54-.275-1.013-.52-1.413s-.57-.713-.975-.938-.915-.337-1.53-.337c-.547 0-1.025.1-1.436.3s-.747.494-1.01.88-.462.85-.595 1.39c-.13.544-.196 1.16-.196 1.855 0 .645.054 1.238.16 1.78.108.542.28 1.013.522 1.413.238.4.563.71.974.93.41.22.918.33 1.523.33.557 0 1.04-.1 1.45-.3.41-.2.747-.49 1.01-.872s.46-.84.587-1.384c.128-.54.19-1.16.19-1.853zM380.098 116.922c0 .254-.007.467-.022.637-.014.17-.034.314-.06.432s-.053.212-.087.286c-.035.072-.11.166-.228.277-.117.113-.317.25-.6.41-.284.162-.606.306-.968.433s-.755.23-1.18.308c-.425.078-.86.117-1.31.117-1.007 0-1.898-.156-2.674-.47-.777-.312-1.43-.772-1.956-1.384-.527-.61-.926-1.355-1.194-2.234s-.402-1.885-.402-3.018c0-1.31.163-2.438.49-3.392.327-.95.784-1.74 1.37-2.365s1.28-1.088 2.08-1.39 1.68-.455 2.637-.455c.39 0 .773.034 1.15.103s.727.16 1.054.278.62.25.878.396.442.273.55.38.183.2.228.272c.043.074.077.17.102.286s.045.262.06.433c.015.17.02.378.02.622 0 .566-.048.965-.145 1.194s-.225.343-.38.343c-.167 0-.343-.068-.528-.205s-.405-.288-.66-.454-.556-.317-.907-.454-.77-.205-1.26-.205c-.957 0-1.69.37-2.197 1.105-.507.738-.76 1.82-.76 3.245 0 .703.062 1.323.19 1.86s.314.986.562 1.348c.25.36.562.633.938.813.376.182.813.27 1.312.27.508 0 .944-.074 1.312-.226.365-.15.686-.32.96-.506s.502-.354.687-.506c.187-.15.343-.227.47-.227.088 0 .16.025.22.074s.104.14.14.27c.033.134.06.302.08.507s.028.47.028.792zM386.733 101.512c0 .742-.15 1.255-.454 1.538s-.865.425-1.686.425c-.83 0-1.39-.137-1.678-.41s-.432-.767-.432-1.48c0-.74.148-1.256.447-1.545.298-.287.862-.432 1.692-.432.82 0 1.377.14 1.67.418.295.277.44.773.44 1.486zm-.278 17.49c0 .098-.03.184-.088.256-.06.074-.16.135-.3.184-.143.05-.33.085-.564.11s-.532.036-.894.036-.66-.013-.895-.037-.423-.06-.564-.108-.24-.11-.3-.184c-.058-.072-.087-.158-.087-.256v-13.037c0-.098.03-.184.088-.256.06-.075.16-.138.3-.192.143-.053.33-.095.565-.124s.532-.044.894-.044.658.015.893.044.422.07.564.124c.14.055.24.117.3.19s.088.16.088.257v13.037zM401.265 119.046c0 .137-.05.244-.146.322s-.253.134-.462.17c-.21.032-.52.05-.93.05-.44 0-.76-.018-.96-.05-.2-.036-.343-.092-.425-.17-.084-.078-.125-.186-.125-.322v-1.04c-.537.576-1.15 1.025-1.838 1.348-.69.322-1.453.483-2.293.483-.693 0-1.33-.09-1.912-.27-.58-.182-1.084-.45-1.508-.808-.426-.356-.755-.8-.99-1.326s-.35-1.143-.35-1.846c0-.762.147-1.423.445-1.985.298-.56.742-1.025 1.334-1.39.59-.368 1.325-.64 2.204-.814s1.9-.265 3.062-.265h1.274v-.79c0-.41-.042-.77-.124-1.078-.084-.307-.22-.563-.41-.77-.19-.204-.445-.355-.762-.453-.318-.098-.71-.146-1.18-.146-.615 0-1.164.068-1.648.205-.482.137-.91.288-1.28.454s-.683.317-.93.454c-.25.138-.453.206-.61.206-.106 0-.202-.034-.285-.103s-.15-.166-.205-.293-.095-.283-.124-.47-.044-.39-.044-.614c0-.303.024-.542.073-.718s.142-.334.278-.477c.137-.14.376-.296.718-.468.342-.17.742-.33 1.2-.476s.96-.266 1.502-.358c.543-.093 1.102-.14 1.678-.14 1.025 0 1.9.1 2.63.3.727.2 1.325.51 1.794.924s.81.95 1.025 1.604.322 1.43.322 2.33v8.79zm-3.62-5.596h-1.405c-.596 0-1.104.044-1.523.132s-.762.22-1.025.396-.457.388-.58.638c-.12.248-.182.534-.182.856 0 .547.173.977.52 1.29.347.312.828.468 1.443.468.518 0 .993-.132 1.43-.396.433-.264.875-.65 1.324-1.157v-2.227zM417.422 105.438c.41 0 .696.088.856.264.162.176.242.43.242.762v12.54c0 .097-.03.183-.088.255-.06.073-.156.134-.293.183s-.326.085-.565.11-.534.036-.886.036c-.362 0-.663-.014-.902-.038s-.427-.06-.563-.11-.234-.108-.293-.183c-.06-.073-.088-.16-.088-.257v-10.576h-5.874v6.138c0 .713.112 1.248.337 1.604s.625.533 1.2.533c.196 0 .372-.017.528-.052.156-.032.295-.07.417-.116.122-.043.225-.082.31-.117.08-.033.157-.05.226-.05.06 0 .114.017.168.05.054.035.096.104.125.205.03.104.057.242.08.418s.038.4.038.674c0 .43-.024.754-.073.975-.05.218-.117.38-.205.48-.088.105-.22.192-.396.265-.176.074-.38.137-.607.19-.23.054-.48.096-.748.125s-.54.044-.814.044c-.732 0-1.367-.093-1.904-.278s-.98-.47-1.333-.856-.61-.872-.777-1.458-.25-1.28-.25-2.08v-6.694h-1.566c-.186 0-.327-.114-.425-.344s-.146-.613-.146-1.15c0-.283.012-.522.036-.718s.062-.35.11-.462c.05-.11.11-.192.183-.24.074-.05.16-.074.257-.074h1.553v-2.915c0-.098.026-.186.08-.264.054-.077.15-.143.294-.197.14-.053.33-.092.57-.117.238-.023.534-.036.886-.036.36 0 .66.013.9.036.24.025.428.064.564.117.137.055.234.12.293.198s.088.167.088.265v2.915h8.452zm1.39-3.926c0 .742-.15 1.255-.453 1.538s-.865.425-1.686.425c-.83 0-1.39-.137-1.678-.41s-.432-.767-.432-1.48c0-.74.148-1.256.447-1.545.298-.287.862-.432 1.692-.432.82 0 1.377.14 1.67.418.295.277.44.773.44 1.486zM434.253 105.92c0 .05-.003.108-.008.177s-.014.145-.03.228c-.013.083-.033.178-.058.285s-.056.23-.095.366l-3.926 11.82c-.05.167-.115.302-.198.403-.083.103-.22.183-.41.24-.19.06-.45.1-.775.118-.328.02-.755.03-1.282.03-.517 0-.94-.014-1.266-.038-.328-.024-.584-.065-.77-.124s-.32-.14-.402-.24c-.084-.105-.15-.233-.198-.39l-3.926-11.82c-.06-.196-.105-.372-.14-.528s-.054-.27-.06-.337-.006-.13-.006-.19c0-.097.026-.182.08-.256.054-.072.15-.134.286-.183s.324-.082.564-.102c.238-.02.54-.03.9-.03.4 0 .723.014.967.038s.436.06.577.102c.142.045.242.108.3.19s.108.184.147.3l2.974 9.596.088.366.088-.366 2.93-9.595c.03-.118.075-.218.14-.3.063-.084.163-.147.3-.192.137-.043.32-.077.55-.102.23-.024.53-.037.9-.037.36 0 .656.01.887.028.23.02.408.054.535.103s.215.11.264.184c.05.074.073.16.073.257zM448.213 112.088c0 .45-.1.78-.3.996-.2.215-.477.322-.828.322h-7.954c0 .557.066 1.063.2 1.516.13.455.34.84.628 1.158s.66.56 1.113.725c.456.166 1 .25 1.635.25.645 0 1.21-.047 1.7-.14.487-.093.91-.195 1.266-.308s.653-.215.888-.31c.234-.09.425-.138.57-.138.09 0 .162.017.22.05.06.035.108.096.147.184s.066.213.08.373c.016.162.022.364.022.608 0 .215-.005.398-.015.55s-.024.28-.044.388-.05.198-.088.27c-.04.075-.09.146-.153.214-.064.068-.237.16-.52.278s-.646.232-1.085.345c-.44.11-.942.21-1.51.293-.565.082-1.17.124-1.815.124-1.162 0-2.18-.146-3.055-.44s-1.604-.736-2.19-1.332-1.022-1.348-1.31-2.256c-.29-.91-.433-1.974-.433-3.194 0-1.162.15-2.21.453-3.143.303-.932.742-1.723 1.318-2.373.577-.648 1.277-1.145 2.103-1.486s1.756-.513 2.79-.513c1.095 0 2.03.162 2.806.484.776.322 1.413.77 1.91 1.34.5.572.865 1.248 1.1 2.03s.352 1.63.352 2.548v.586zm-3.574-1.055c.028-1.035-.18-1.848-.623-2.44-.445-.59-1.13-.885-2.06-.885-.468 0-.876.088-1.222.264-.348.176-.636.413-.865.71-.23.3-.405.65-.527 1.055-.122.406-.192.838-.212 1.297h5.51z"/></g><g fill="#8F4319"><path d="M296.278 79.663c0 .132-.005.247-.014.345-.01.1-.02.19-.038.273-.016.086-.037.165-.064.24-.027.075-.06.156-.096.243l-2.912 6.747c-.027.06-.063.107-.105.144-.045.036-.105.064-.183.086-.077.02-.177.033-.297.04-.12.007-.27.01-.448.01-.24 0-.433-.007-.574-.022-.142-.017-.245-.04-.312-.076-.065-.033-.1-.077-.105-.13-.004-.052.013-.117.05-.194l3.13-6.904h-3.72c-.095 0-.166-.063-.215-.188-.047-.126-.07-.325-.07-.6 0-.136.006-.253.02-.352.014-.098.033-.18.06-.242.023-.063.054-.11.087-.137.035-.027.074-.04.12-.04h5.257c.08 0 .15.007.204.022.055.017.098.052.13.106s.056.132.07.232c.017.102.024.234.024.398zM303.38 87.02c0 .13-.005.244-.017.338-.01.093-.028.17-.05.23s-.054.1-.09.126c-.036.024-.077.037-.123.037h-5.086c-.1 0-.187-.008-.26-.026s-.132-.054-.178-.105c-.046-.054-.08-.13-.1-.23-.02-.1-.03-.23-.03-.39 0-.15.007-.28.02-.387.015-.106.04-.202.076-.287.036-.084.083-.166.14-.246.058-.08.132-.167.223-.263l1.53-1.64c.307-.32.553-.61.74-.873.186-.262.332-.5.437-.717.104-.217.177-.416.216-.6.038-.182.058-.354.058-.52 0-.15-.024-.292-.07-.426-.05-.134-.12-.25-.214-.352-.093-.1-.21-.18-.352-.235-.142-.058-.308-.086-.5-.086-.268 0-.506.034-.713.103-.208.068-.39.145-.547.23-.158.083-.29.16-.394.23-.104.07-.187.106-.246.106-.04 0-.076-.014-.106-.04-.03-.028-.053-.074-.07-.138s-.034-.15-.045-.256c-.013-.107-.02-.238-.02-.394 0-.104.005-.192.01-.263.01-.07.02-.133.032-.186.014-.053.032-.1.055-.138.022-.038.063-.085.12-.14.057-.055.16-.124.313-.208.153-.085.34-.167.564-.246.224-.08.47-.147.738-.202s.55-.082.84-.082c.46 0 .863.058 1.207.175.344.114.63.276.857.483.228.208.397.454.51.738.11.286.167.593.167.92 0 .288-.027.57-.082.85s-.17.577-.342.897c-.173.322-.417.678-.73 1.066-.315.39-.732.843-1.252 1.357l-1.032 1.06h3.486c.046 0 .088.014.126.04.04.028.072.07.1.127.027.058.048.133.062.227.014.096.02.207.02.335z"/></g></symbol><symbol id="shapes-movers" viewBox="0 0 424.082 424.082"><path d="M55.34 117.012c4.355 0 8.662-.742 12.798-2.207 9.658-3.418 17.405-10.393 21.816-19.64 2.942-6.166 4.155-12.85 3.63-19.484l9.593-1.082c5.717-.646 11.52-5.206 13.498-10.607l3.008-8.216c1.174-3.205.865-6.45-.848-8.9-1.67-2.392-4.484-3.763-7.72-3.763-.376 0-.763.02-1.162.057l-33.9 3.225c-6.05-3.89-13.203-6.1-20.718-6.1-4.353 0-8.658.74-12.795 2.206-19.936 7.06-30.413 29.02-23.354 48.953 5.415 15.29 19.944 25.562 36.155 25.562zM423.516 361.204l-23.927-87.648c-1.477-5.408-2.75-14.45-2.78-19.744 0-.142-.017-.277-.02-.418.013-.267.038-.53.038-.8l.037-107.538c.003-8.706-7.07-16.098-15.768-16.477l-44.8-1.952c-13.037 0-16.392 10.41-16.904 13.664l-8.127 51.67c-.48 3.047-3.605 5.76-6.69 5.81l-9.466.145v-66.94c0-8.27-6.73-15-15-15H140.653c-8.27 0-15 6.73-15 15v66.905l-7.21-.11c-3.084-.048-6.21-2.762-6.69-5.81l-8.126-51.668c-.51-3.242-4.283-13.665-16.903-13.665l-44.8 1.95c-8.698.38-15.77 7.77-15.768 16.477 0 0-.616 109.012-.616 129.905L24.086 300.7c-.31 5.46-2.437 14.3-4.647 19.305L1.3 361.05c-1.764 3.99-1.735 8.403.08 12.105 1.815 3.702 5.285 6.428 9.52 7.48l1.602.396c1.325.33 2.71.497 4.118.497 7.182 0 14.053-4.168 17.096-10.372l16.94-34.53c2.806-5.72 6.3-15.412 7.786-21.606l9.606-40.015L91.392 310.7c2.86 4.375 5.884 12.77 6.47 17.962l4.494 39.796c.954 8.454 8.653 15.332 17.163 15.332l2.407-.008c4.352-.015 8.31-1.752 11.144-4.892s4.16-7.255 3.73-11.586L132.01 319c-.647-6.513-2.986-16.4-5.326-22.513l-22.562-58.928-.13-11.598h215.036l-.194 17.302-30.906 123.595c-1.075 4.297-.254 8.61 2.25 11.83 2.506 3.22 6.484 5.076 10.916 5.09l2.41.01c8.313 0 16.478-6.296 18.588-14.33l15.286-58.198c1.415-5.385 5.055-13.95 7.95-18.704l13.063-21.453 32.092 98.805c2.217 6.83 8.846 11.598 16.12 11.598 1.322 0 2.64-.16 3.913-.477l1.602-.396c4.157-1.03 7.637-3.628 9.797-7.31s2.73-7.988 1.602-12.12zM119.518 378.79zm183.984 0zM306.343 63.99c1.978 5.402 7.78 9.963 13.498 10.608l9.595 1.083c-.526 6.635.686 13.32 3.63 19.486 4.41 9.246 12.158 16.22 21.814 19.638 4.136 1.465 8.442 2.208 12.797 2.208h.002c16.21 0 30.737-10.27 36.152-25.562 7.06-19.933-3.418-41.894-23.355-48.954-4.137-1.464-8.44-2.205-12.794-2.205-7.515 0-14.667 2.21-20.718 6.1l-33.9-3.224c-.4-.038-.786-.056-1.16-.056-3.238 0-6.052 1.37-7.722 3.762-1.713 2.45-2.022 5.696-.85 8.9l3.01 8.218z"/></symbol><symbol id="shapes-organize" viewBox="0 0 612 612"><path d="M612 463.78c0-70.34-49.018-129.198-114.75-144.378-10.763-2.482-21.95-3.84-33.47-3.84-3.217 0-6.396.14-9.56.34-71.83 4.58-129.726 60.29-137.69 131.145-.618 5.494-.967 11.073-.967 16.734 0 10.663 1.152 21.053 3.29 31.08C333.138 561.79 392.582 612 463.78 612 545.64 612 612 545.64 612 463.78zm-148.22 98.017c-54.132 0-98.015-43.883-98.015-98.016s43.883-98.015 98.016-98.015 98.017 43.883 98.017 98.016-43.883 98.017-98.016 98.017z"/><path d="M482.906 396.844h-33.468v52.594h-52.594v33.468h86.062v-33.468M109.97 0c-9.23 0-16.735 7.507-16.735 16.734v78.89c0 9.23 7.506 16.735 16.734 16.735h14.343c9.228 0 16.734-7.508 16.734-16.735v-78.89C141.047 7.506 133.54 0 124.312 0H109.97zM372.938 0c-9.228 0-16.734 7.507-16.734 16.734v78.89c0 9.23 7.507 16.735 16.734 16.735h14.344c9.228 0 16.734-7.508 16.734-16.735v-78.89C404.016 7.506 396.51 0 387.28 0H372.94z"/><path d="M38.25 494.86h236.672c-2.333-11.6-3.572-23.587-3.572-35.86 0-4.02.177-8 .435-11.953H71.72c-15.846 0-28.69-12.843-28.69-28.688v-229.5h411.19v88.706c3.164-.163 6.353-.253 9.56-.253 11.438 0 22.61 1.11 33.47 3.14V93.234c0-21.123-17.126-38.25-38.25-38.25h-31.078v40.642c0 22.41-18.23 40.64-40.64 40.64h-14.345c-22.41 0-40.64-18.23-40.64-40.64v-40.64H164.952v40.64c0 22.41-18.23 40.64-40.64 40.64h-14.345c-22.41 0-40.64-18.23-40.64-40.64v-40.64H38.25C17.126 54.984 0 72.11 0 93.234v363.374c0 21.123 17.126 38.25 38.25 38.25z"/><circle cx="134.774" cy="260.578" r="37.954"/><circle cx="248.625" cy="260.578" r="37.954"/><circle cx="362.477" cy="260.578" r="37.954"/><circle cx="248.625" cy="375.328" r="37.953"/><circle cx="134.774" cy="375.328" r="37.953"/></symbol><symbol id="shapes-papers" viewBox="0 0 486.31 486.31"><path d="M.018 393.086c.335 7.91 5.78 14.674 13.434 16.707l183.256 48.558c4.355 1.152 8.823 1.722 13.273 1.722 5.72 0 11.417-.936 16.88-2.818l247.237-85.063c7.655-2.632 12.633-10.028 12.185-18.108-.446-8.084-6.21-14.882-14.107-16.66l-31.558-7.076-203.08 69.875c-8.887 3.06-18.156 4.612-27.557 4.612-7.3 0-14.586-.95-21.68-2.826L43.935 363.752l-31.974 11.52C4.518 377.955-.334 385.176.018 393.086z"/><path d="M.018 305.044c.335 7.91 5.797 14.677 13.45 16.71l183.24 48.555c4.354 1.153 8.822 1.73 13.272 1.73 5.718 0 11.416-.946 16.878-2.827l247.238-85.064c7.655-2.634 12.633-10.032 12.185-18.11-.445-8.086-6.21-14.883-14.106-16.66l-31.558-7.077-203.08 69.876c-8.887 3.058-18.156 4.602-27.557 4.602-7.302 0-14.587-.943-21.682-2.817L43.936 275.71l-31.974 11.522c-7.444 2.68-12.296 9.903-11.944 17.812z"/><path d="M237.538 224.128c-8.888 3.06-18.157 4.604-27.558 4.604-7.3 0-14.586-.944-21.68-2.818L43.935 187.67l-31.974 11.52C4.518 201.872-.334 209.094.018 217.004c.335 7.908 5.797 14.674 13.45 16.707l183.24 48.558c4.354 1.152 8.822 1.722 13.272 1.722 5.718 0 11.416-.937 16.878-2.817l247.238-85.065c7.655-2.634 12.633-10.032 12.185-18.11-.445-8.085-6.21-14.882-14.106-16.66l-31.558-7.077-203.078 69.868z"/><path d="M13.452 145.662l183.256 48.557c4.355 1.15 8.823 1.72 13.273 1.72 5.72 0 11.417-.937 16.88-2.818l247.237-85.063c7.655-2.636 12.633-10.032 12.185-18.11-.446-8.087-6.21-14.883-14.107-16.66L268.008 27.493c-3.748-.84-7.557-1.256-11.352-1.256-5.973 0-11.912 1.023-17.582 3.066L11.962 111.14C4.518 113.822-.334 121.044.018 128.954c.335 7.91 5.78 14.674 13.434 16.708z"/></symbol><symbol id="shapes-people" viewBox="0 0 28 28"><path d="M6 18V8s.005-.45.24-1H2S0 7 0 9v7c0 2 2 2 2 2v10h6v-8s-2 0-2-2zM6 6c.52 0 1-.144 1.427-.376.06-.036.125-.068.188-.103C8.445 4.99 9 4.06 9 3c0-1.657-1.343-3-3-3S3 1.343 3 3s1.343 3 3 3zM26 7h-4.238c.233.55.238 1 .238 1v10l-2 2v8h6V18s2 0 2-2V9s0-2-2-2zM20.38 5.52c.065.034.134.067.194.104C21 5.856 21.48 6 22 6c1.657 0 3-1.343 3-3s-1.343-3-3-3-3 1.343-3 3c0 1.06.552 1.985 1.38 2.52z"/><circle cx="14" cy="3" r="3"/><path d="M20 9s0-2-2-2h-8S8 7 8 9v7c0 2 2 2 2 2v10h8V18s2 0 2-2V9z"/></symbol><symbol id="shapes-safe" viewBox="0 0 442.662 442.662"><path d="M370.75 84.98h14.2v42.955h-14.2c-3.085 0-5.603-2.506-5.603-5.603v-31.75c0-3.084 2.518-5.602 5.604-5.602zm-5.603 183.98v31.748c0 3.098 2.518 5.604 5.604 5.604h14.2v-42.955h-14.2c-3.085 0-5.603 2.516-5.603 5.603zm-170.2-95.29l-30.76-30.752c-11.7 13.516-18.832 31.094-18.832 50.342 0 19.24 7.133 36.815 18.84 50.342l30.75-30.76V173.67zm47.1-7.923l30.742-30.752c-13.515-11.7-31.104-18.832-50.337-18.832-19.243 0-36.822 7.133-50.342 18.832l30.752 30.752h39.185zm7.913 7.923v39.178l30.753 30.754c11.7-13.526 18.83-31.108 18.83-50.336 0-19.237-7.12-36.816-18.83-50.343L249.96 173.67zM384.95 48.974v24.8h-14.2c-9.27 0-16.81 7.542-16.81 16.81v31.748c0 9.267 7.54 16.81 16.81 16.81h14.2V252.15h-14.2c-9.27 0-16.81 7.54-16.81 16.81v31.75c0 9.27 7.54 16.81 16.81 16.81h14.2v20.026c0 3.087-2.513 5.604-5.605 5.604H65.56c-3.093 0-5.603-2.517-5.603-5.604V48.974c0-3.1 2.51-5.604 5.603-5.604h313.786c3.092 0 5.603 2.51 5.603 5.604zM310.76 193.26c0-48.7-39.613-88.31-88.31-88.31-48.7 0-88.31 39.604-88.31 88.31 0 48.69 39.61 88.307 88.31 88.307 48.696 0 88.31-39.618 88.31-88.307zM202.87 220.762l-30.76 30.764c13.52 11.7 31.1 18.83 50.343 18.83 19.238 0 36.822-7.13 50.336-18.83l-30.753-30.764H202.87zM421.18 0v442.662H316.587l-7.848-42.953H133.918l-7.844 42.952H21.484V0h399.695zm-11.207 90.583c0-8.244-5.974-15.078-13.817-16.5V48.98c0-9.27-7.545-16.81-16.81-16.81H65.56c-9.27 0-16.81 7.54-16.81 16.81v288.57c0 9.268 7.54 16.813 16.81 16.813h313.786c9.265 0 16.81-7.545 16.81-16.812v-20.32c7.844-1.43 13.817-8.27 13.817-16.516V268.96c0-8.24-5.974-15.08-13.817-16.505V138.843c7.844-1.422 13.817-8.263 13.817-16.51v-31.75z"/></symbol><symbol id="shapes-trolley" viewBox="0 0 512 512"><path d="M280.844 512c-4.396 0-8.82-.53-13.2-1.598-14.35-3.498-26.478-12.374-34.15-24.996-14.14-23.257-9.028-52.916 10.764-70.28L97.484 173.678l-.048-.078-88.932-146.3c-2.75-4.53-1.312-10.43 3.213-13.18 4.528-2.75 10.43-1.313 13.18 3.212l83.997 138.18 40.834-24.823-42.678-70.208c-1.32-2.175-1.727-4.785-1.122-7.255.602-2.473 2.163-4.604 4.338-5.926L185.78 1.397c2.173-1.324 4.782-1.727 7.255-1.122 2.473.602 4.603 2.16 5.924 4.336l42.68 70.21 28.303-17.204c4.525-2.75 10.43-1.314 13.18 3.214L375.08 212.1l16.977-10.32c2.173-1.323 4.78-1.735 7.254-1.122 2.474.602 4.604 2.16 5.925 4.336l73.143 120.324 11.94-7.257c4.527-2.748 10.427-1.31 13.18 3.215 2.75 4.527 1.313 10.43-3.213 13.18l-20.085 12.21c-.017.01-.036.02-.053.033-.017.012-.036.02-.053.033L332.27 436.59c9.578 24.53.458 53.21-22.8 67.344-8.772 5.33-18.62 8.066-28.626 8.066zm-.158-91.42c-6.39 0-12.852 1.692-18.7 5.246-17.012 10.344-22.438 32.6-12.098 49.613 5.01 8.242 12.932 14.038 22.3 16.326 9.373 2.28 19.07.784 27.314-4.23 17.006-10.337 22.436-32.573 12.118-49.586l-.017-.026c-.005-.007-.007-.015-.012-.02-6.793-11.155-18.71-17.323-30.904-17.323zm-.033-19.18c15.636 0 30.965 6.62 41.646 18.795l139.68-84.91-68.157-112.125-16.912 10.278c-.02.015-.042.03-.064.04L215.8 331.376l44.853 73.785c6.49-2.534 13.272-3.76 20-3.76zm-105.56-136.986l30.74 50.568 48.985-29.778c.015-.007.03-.017.046-.026l103.82-63.11L271.71 78.995l-28.244 17.166c-.02.015-.04.026-.06.04l-75.517 45.903c-.027.017-.054.036-.083.05l-48.946 29.752 56.234 92.507zM128.426 58.712l37.7 62.015 59.122-35.94-37.697-62.014-59.125 35.94z"/></symbol></svg>