<?xml version="1.0" encoding="UTF-8"?><!DOCTYPE svg PUBLIC "-//W3C//DTD SVG 1.1//EN" "http://www.w3.org/Graphics/SVG/1.1/DTD/svg11.dtd"><svg xmlns="http://www.w3.org/2000/svg"><symbol id="shapes-bin" viewBox="0 0 548.457 548.457"><path d="M151.57 525.938h179.431c-4.16-9.046-6.551-19.077-6.551-29.682 0-39.331 31.996-71.327 71.327-71.327 7.898 0 15.481 1.349 22.586 3.729l18.265-291.771c0-12.594-10.213-22.137-22.807-22.137H128.764c-12.594 0-22.807 9.543-22.807 22.137l22.807 364.226c0 12.604 10.213 24.825 22.806 24.825zM263.031 382.5h-47.812v-38.25h47.813v38.25zm125.498-64.527s-4.035 50.212-40.984 69.193c-3.242.039-7.87.048-12.546.048-8.874 0-17.901-.038-17.901-.038l-3.931 29.998-33.851-57.079 40.583-45.947-2.257 28.353 16.018 3.251 13.712-6.942 40.985-20.741.172-.096zm-2.056-8.808l-1.912.966-41.187 20.847-13.846-26.967-3.414-6.646 4.111-2.113 38.862-19.967 17.386 33.88zM285.34 182.577c11.638 0 24.136 2.381 35.62 9.429 4.973 7.985 15.816 26.01 15.816 26.01l27.674-12.221-31.202 58.57-60.34-10.825 25.398-12.794-5.537-15.376-13.053-8.119L240.702 193l-.153-.096s20.54-10.327 44.791-10.327zm-51.245 16.658l1.817 1.128 39.206 24.375-15.854 25.838-3.911 6.369-3.94-2.419-37.236-22.845 19.918-32.446zm-10.586 66.669l21.334 57.088-25.905-14.955-13.282 12.766v61.478s-40.115-26.536-40.115-68.066c4.208-8.415 16.247-27.081 16.247-27.081l-24.7-17.202 66.421-4.028zM100.468 61.057v11.762c0 12.594 10.213 22.807 22.807 22.807h279.512c12.594 0 22.807-10.213 22.807-22.807V61.057c0-12.594-10.213-22.807-22.807-22.807h-44.504c.201-1.205.373-2.419.373-3.682V22.807C358.656 10.213 348.443 0 335.849 0H209.337c-12.594 0-22.807 10.213-22.807 22.807v11.762c0 1.262.172 2.477.373 3.682h-63.629c-12.593-.001-22.806 10.212-22.806 22.806z"/><path d="M447.989 496.256c0-21.172-12.699-39.407-30.858-47.593-6.521-2.936-13.731-4.609-21.344-4.609-28.783 0-52.201 23.419-52.201 52.202 0 11.025 3.452 21.238 9.313 29.682 9.438 13.588 25.131 22.52 42.888 22.52 28.783-.001 52.202-23.419 52.202-52.202z"/></symbol><symbol id="shapes-close" viewBox="0 0 174.239 174.239"><path d="M87.12 0C39.082 0 0 39.082 0 87.12s39.082 87.12 87.12 87.12 87.12-39.082 87.12-87.12S135.157 0 87.12 0zm0 159.305c-39.802 0-72.185-32.383-72.185-72.185S47.318 14.935 87.12 14.935s72.185 32.383 72.185 72.185-32.384 72.185-72.185 72.185z"/><path d="M120.83 53.414c-2.917-2.917-7.647-2.917-10.559 0L87.12 76.568 63.969 53.414c-2.917-2.917-7.642-2.917-10.559 0s-2.917 7.642 0 10.559l23.151 23.153-23.152 23.154a7.464 7.464 0 0 0 0 10.559 7.445 7.445 0 0 0 5.28 2.188 7.437 7.437 0 0 0 5.28-2.188L87.12 97.686l23.151 23.153a7.445 7.445 0 0 0 5.28 2.188 7.442 7.442 0 0 0 5.28-2.188 7.464 7.464 0 0 0 0-10.559L97.679 87.127l23.151-23.153a7.465 7.465 0 0 0 0-10.56z"/></symbol><symbol id="shapes-collect" viewBox="0 0 612 612"><path d="M3.18 201.694l38.31 29.933L5.433 300.7c-18.028 31.851 12.943 62.878 32.676 73.679 19.426 10.632 49.577 11.896 77.746 11.513l50.704-82.889 38.31 20.722-66.479-123.181-135.21 1.15zM8.813 370.78l82.253 151.962c16.526 21.105 47.7 26.094 80 25.327h86.76V404.166L93.32 403.015c-25.539 1.533-58.967-3.839-84.507-32.235zM526.309 90.732l-44.752 18.995-42.933-65.022c-19.116-31.209-61.27-19.164-80.282-7.141-18.716 11.836-34.44 37.594-47.761 62.417l47.914 84.532-36.697 23.46 139.966 1.576 64.545-118.817zM375.692 13.686l-172.786-1.732c-26.471 4.221-45.948 29.067-60.936 57.691l-42.062 75.882 125.861 69.766L306.53 71.97c11.039-23.083 31.944-49.714 69.162-58.284zm7.516 586.36l5.082-48.351 77.685-6.025c36.563-1.59 46.465-44.297 45.167-66.755-1.277-22.108-16.184-48.348-31.437-72.033l-97.162.925-2.729-43.47-69.235 121.653 72.629 114.056zm140.407-94.379l85.283-150.281c9.142-25.199-3.146-54.28-20.915-81.266l-45.976-73.577L419.97 276.8l86.199 140.12c14.837 20.845 27.994 52.039 17.446 88.747z"/></symbol><symbol id="shapes-computer" viewBox="0 0 485.211 485.211"><path d="M121.304 75.816H30.327C13.564 75.816 0 89.409 0 106.141v333.586c0 16.76 13.564 30.322 30.327 30.322h90.978c16.762 0 30.324-13.562 30.324-30.322V106.141c-.001-16.732-13.563-30.325-30.325-30.325zM45.49 379.073c-8.382 0-15.163-6.781-15.163-15.168 0-8.377 6.781-15.158 15.163-15.158 8.38 0 15.161 6.781 15.161 15.158 0 8.387-6.781 15.168-15.161 15.168zm75.814-181.955H30.327v-30.324h90.978v30.324zm0-60.651H30.327v-30.326h90.978v30.326zM318.423 409.396v-30.322h-90.98v30.322c-16.759 0-30.327 13.567-30.327 30.331h151.629c0-16.764-13.562-30.331-30.322-30.331z"/><path d="M454.889 15.163H90.978c-16.762 0-30.327 13.593-30.327 30.327H454.89v242.604H181.955v60.653h272.934c16.759 0 30.322-13.562 30.322-30.332V45.489c0-16.734-13.564-30.326-30.322-30.326zM272.933 333.584c-8.382 0-15.163-6.777-15.163-15.169 0-8.377 6.781-15.158 15.163-15.158 8.383 0 15.164 6.781 15.164 15.158 0 8.392-6.782 15.169-15.164 15.169z"/></symbol><symbol id="shapes-desktop" viewBox="0 0 203.344 203.344"><path d="M199.78 142.966H68.17a3.567 3.567 0 0 1-3.563-3.564v-82.5a3.567 3.567 0 0 1 3.563-3.563h131.61a3.567 3.567 0 0 1 3.563 3.563v82.5a3.566 3.566 0 0 1-3.563 3.564zm-36.471 26.039h-13.333v-16.039h-32v16.039h-13.334c-2.762 0-5 2.238-5 5s2.238 5 5 5h58.667a5 5 0 1 0 0-10zM79.844 43.338H68.17c-.73 0-1.441.074-2.141.186a4.959 4.959 0 0 0-1.279-.186H15.094c-2.762 0-5 2.238-5 5s2.238 5 5 5h40.004a13.484 13.484 0 0 0-.491 3.563v9.309H15.094c-2.762 0-5 2.238-5 5s2.238 5 5 5h39.513v12.873H15.094c-2.762 0-5 2.238-5 5s2.238 5 5 5h39.513v40.318c0 7.479 6.085 13.564 13.563 13.564h11.674v21.039a5 5 0 0 1-5 5H5a5 5 0 0 1-5-5V29.338a5 5 0 0 1 5-5h69.844a5 5 0 0 1 5 5v14zm-47.63 98.726a7.708 7.708 0 1 0 15.416 0 7.708 7.708 0 0 0-15.416 0z"/></symbol><symbol id="shapes-employee" viewBox="0 0 385.327 385.327"><path d="M196.59 89.517c24.72 0 44.745-20.047 44.745-44.771C241.335 20.05 221.31 0 196.59 0c-24.726 0-44.771 20.05-44.771 44.746-.001 24.723 20.045 44.771 44.771 44.771zM289.831 220.877c-5.568-12.765-10.246-26.099-14.77-38.99-11.852-33.809-26.027-81.478-48.707-81.478h-59.73c-23.557 0-36.878 47.668-48.706 81.478-4.548 12.891-9.201 26.225-14.788 38.99-3.545 8.114-3.232 17.588 3.839 21.854 1.131.682.77 4.012.714 5.932-.021.738-.125 2.173-2 2.173h-1.841c-5.5 0-10 4.5-10 10v60.902c0 5.5 4.5 10 10 10h18.9c5.5 0 10-4.5 10-10v-60.902c0-5.5-4.5-10-10-10h-1.768c-1.292 0-1.461-1.523-1.683-2.173-.437-1.277-.005-3.875 1.213-4.362 4.318-1.729 7.557-5.857 9.69-10.74 4.363-10.005 11.461-31.737 16.12-45.077 1.083-3.099 2.431-5.121 2.162.271v41.743c0 2.08-.419 8.39 1.337 10.541 1.341 1.644 3.668 1 3.668 5v117.689c0 11.929 8.207 21.599 19.66 21.599s17.666-9.465 17.666-21.394V250.831c0-1.417.264-3.469 4.398-3.469h.956c4.179 0 4.48 2.427 4.48 3.2v113.102c0 11.929 6.298 21.663 17.751 21.663s19.66-9.67 19.66-21.599l-.079-117.065c0-1.932 2.561-3.158 3.527-4.355a13.346 13.346 0 0 0 2.979-8.402v-46.903c0-4.515.932-1.95 1.402-.219 3.648 13.387 10.779 37.544 15.344 48.01 2.855 6.524 7.063 10.437 13.76 10.437 2.328 0 4.697-.48 6.959-1.459 8.785-3.847 11.729-14.088 7.887-22.895zm-75.999-52.904l-14.747 13.563c-1.38 1.268-3.638 1.268-5.018 0l-14.747-13.563c-1.381-1.268-2.194-3.807-1.811-5.641l7.689-36.723c.115-.548.463-2.21.434-2.587l-.604-7.745c-.146-1.869 1.268-3.398 3.142-3.398h16.813c1.874 0 3.287 1.53 3.142 3.398l-.604 7.745c-.029.376.318 2.039.434 2.587l7.689 36.723c.383 1.834-.431 4.373-1.812 5.641z"/></symbol><symbol id="shapes-envelope" viewBox="0 0 242.565 243.226"><path fill="#D17C40" d="M242.565 91.623c-1.11-3.183-2.828-6.196-5.375-8.742l-99.8-75.692c-13.013-9.586-19.646-9.586-32.445 0L5.574 82.88c-2.546 2.546-4.278 5.559-5.381 8.742l120.971 106.122L242.565 91.623z"/><path fill="#E4E6E6" d="M30.32 23.416h181.925v151.588H30.32V23.416z"/><path fill="#E8AB55" d="M12.487 233.099l108.647-84.625 108.928 84.639a22.85 22.85 0 0 0 9.535-9.178l-102.2-80.287c-12.909-9.52-19.697-9.669-32.444 0L2.894 223.794a22.683 22.683 0 0 0 9.593 9.305z"/><path fill="#C2C5C5" d="M60.641 61.316v15.161h121.283V61.316H60.641zm0 45.467h121.283V91.638H60.641v15.145z"/><path fill="#E8AB55" d="M121.283 182.584l121.282-90.962v128.86c0 12.57-10.192 22.743-22.741 22.743H22.74C10.171 243.226 0 233.053 0 220.483V91.623l121.283 90.961z"/><path fill="#F3B45A" d="M222.245 242.982c4.908-.526 9.356-2.584 12.82-5.736l-113.931-88.788L7.469 237.246c3.472 3.168 7.906 5.21 12.836 5.744l201.94-.008z"/><path fill="#F8D7A7" d="M2.887 231.383a22.957 22.957 0 0 0 9.6 9.318l108.647-84.625 108.928 84.625a22.765 22.765 0 0 0 9.535-9.188l-102.2-80.302c-14.331-10.594-17.803-11.088-32.444 0L2.887 231.383z"/></symbol><symbol id="shapes-error" viewBox="0 0 254 254"><circle fill="#FFF" cx="133.75" cy="117.25" r="93.25"/><path d="M39.812 34.647c-50.996 48.144-53.307 128.51-5.163 179.505.846.899 1.707 1.783 2.58 2.654 49.589 49.592 129.991 49.592 179.577 0 49.592-49.586 49.592-129.988 0-179.577C168.23-11.389 89.789-12.534 39.812 34.647zM64.17 89.308l25.139-25.14 37.711 37.711 37.711-37.711 25.142 25.14-37.711 37.724 37.714 37.697-25.142 25.143-37.712-37.713-37.711 37.713-25.14-25.143 37.708-37.697L64.17 89.308z"/></symbol><symbol id="shapes-icon-green" viewBox="0 0 22.296 22.296"><path d="M13.149 18.625l1.846.729c-1.015 1.178-2.253 1.925-3.716 2.234-1.462.315-3.125.171-4.979-.429-2.94-.946-4.854-2.449-5.748-4.502-.697-1.641-.736-3.438-.105-5.393.755-2.334 2.076-3.924 3.967-4.772 1.89-.846 3.951-.912 6.191-.19 2.513.812 4.268 2.143 5.276 3.996 1.005 1.851 1.019 4.192.031 7.028L4.716 13.711c-.323 1.116-.244 2.091.25 2.929.489.838.599 1.032 2.279 1.753.674.292 3.261 1.49 5.904.232zm-.937-5.012c.314-1.087.244-2.016-.208-2.781-.453-.767-1.139-1.296-2.048-1.592-.975-.315-1.877-.28-2.708.109-.823.388-1.397 1.089-1.714 2.11l6.678 2.154zM12.066 6.184s3.298-6.768 10.23-3.559c.001 0-4.031 4.684-10.23 3.559zM11.587 5.443S13.322 1.369 7.816.545c0 0 .172 5.072 3.771 4.898z"/></symbol><symbol id="shapes-input-check" viewBox="0 0 438.533 438.533"><circle fill="#FFF" cx="219.267" cy="219.267" r="187.5"/><path d="M409.133 109.203c-19.607-33.592-46.205-60.189-79.798-79.796C295.735 9.801 259.058 0 219.273 0c-39.781 0-76.47 9.801-110.063 29.407-33.595 19.604-60.192 46.201-79.8 79.796C9.801 142.8 0 179.489 0 219.267c0 39.78 9.804 76.462 29.407 110.062 19.607 33.592 46.204 60.189 79.799 79.798 33.597 19.605 70.283 29.407 110.063 29.407s76.47-9.802 110.065-29.407c33.593-19.603 60.189-46.206 79.795-79.798 19.604-33.596 29.403-70.284 29.403-110.062.001-39.782-9.8-76.472-29.399-110.064zm-47.688 76.66L206.42 340.89c-3.617 3.619-7.992 5.428-13.134 5.428-4.948 0-9.229-1.809-12.847-5.428L77.083 237.539c-3.422-3.429-5.137-7.703-5.137-12.847 0-5.328 1.709-9.709 5.137-13.136l25.981-25.693c3.621-3.616 7.898-5.424 12.85-5.424s9.235 1.809 12.85 5.424l64.525 64.523 116.485-116.199c3.616-3.617 7.897-5.426 12.847-5.426 4.945 0 9.232 1.809 12.847 5.426l25.981 25.697c3.432 3.424 5.14 7.801 5.14 13.129 0 5.141-1.708 9.424-5.144 12.85z"/></symbol><symbol id="shapes-list" viewBox="0 0 362 362"><path d="M314.493 46.162h-50.348c-1.781 0-2.029 1.946-2.029 1.946l-2.256 15.88s-.559 2.174 1.837 2.174h32.796c5.5 0 10 4.5 10 10V332c0 5.5-4.5 10-10 10H67.507c-5.5 0-10-4.5-10-10V76.162c0-5.5 4.5-10 10-10h33.373c1.708 0 1.311-1.827 1.311-1.827L99.87 47.989s-.354-1.827-1.854-1.827H47.508c-5.5 0-10 4.5-10 10V352c0 5.5 4.5 10 10 10h266.985c5.5 0 10-4.5 10-10V56.162c0-5.5-4.5-10-10-10z"/><path d="M236.579 29.996h-20.64c-1.25 0-1.431-1.808-1.608-2.693C211.221 11.734 197.484 0 181 0c-16.334 0-29.969 11.52-33.244 26.876-.219 1.023-.15 3.12-1.734 3.12H125.42c-3.299 0-5.62 2.673-5.156 5.941l5.318 37.455c.464 3.267 3.543 5.94 6.844 5.94h97.148c3.299 0 6.379-2.673 6.843-5.94l5.318-37.455c.465-3.268-1.855-5.941-5.156-5.941zM181.001 38.5c-5.662 0-10.25-4.589-10.25-10.25S175.339 18 181.001 18c5.66 0 10.25 4.589 10.25 10.25s-4.59 10.25-10.25 10.25zM203.821 135.73a3.976 3.976 0 0 1-3.965 3.966H91.218a3.977 3.977 0 0 1-3.965-3.966v-8.151a3.978 3.978 0 0 1 3.965-3.966h108.639a3.977 3.977 0 0 1 3.965 3.966v8.151h-.001zM256.419 148.398a4.386 4.386 0 0 1-6.184 0l-15.584-15.586a4.386 4.386 0 0 1 0-6.183l3.996-3.994a4.385 4.385 0 0 1 6.183.001l5.407 5.406a4.383 4.383 0 0 0 6.182 0l13.133-13.131a4.383 4.383 0 0 1 6.182 0l3.995 3.994a4.387 4.387 0 0 1 0 6.184l-23.31 23.309zM203.821 191.699a3.977 3.977 0 0 1-3.965 3.967H91.218a3.978 3.978 0 0 1-3.965-3.967v-8.15a3.978 3.978 0 0 1 3.965-3.967h108.639a3.977 3.977 0 0 1 3.965 3.967v8.15h-.001zM256.419 204.367a4.389 4.389 0 0 1-6.184 0l-15.584-15.586a4.388 4.388 0 0 1 0-6.184l3.996-3.994a4.385 4.385 0 0 1 6.183.002l5.407 5.406a4.386 4.386 0 0 0 6.182 0l13.133-13.131a4.382 4.382 0 0 1 6.182 0l3.995 3.994c1.7 1.699 1.7 4.482 0 6.184l-23.31 23.309z"/><g><path d="M170.751 247.668a3.976 3.976 0 0 1-3.965 3.966H91.218a3.977 3.977 0 0 1-3.965-3.966v-8.151a3.978 3.978 0 0 1 3.965-3.966h75.568a3.977 3.977 0 0 1 3.965 3.966v8.151zM256.419 260.335a4.387 4.387 0 0 1-6.184 0l-15.584-15.586a4.386 4.386 0 0 1 0-6.183l3.996-3.994a4.386 4.386 0 0 1 6.183.001l5.407 5.406a4.384 4.384 0 0 0 6.182 0l13.133-13.131a4.384 4.384 0 0 1 6.182 0l3.995 3.994c1.7 1.7 1.7 4.483 0 6.184l-23.31 23.309z"/></g></symbol><symbol id="shapes-location-point" viewBox="0 0 194.869 249.644"><path fill="#53BBA9" d="M97.435 0C43.626 0 0 42.255 0 94.395c0 1.014.488 25.256 8.857 42.567C32.856 190.58 97.35 249.949 97.434 249.643c.106.2 64.335-58.841 88.44-112.361 7.158-12.688 8.994-40.823 8.994-42.895C194.876 42.255 151.243 0 97.435 0zm.007 124.815c-15.088 0-27.297-12.202-27.297-27.282 0-15.087 12.209-27.311 27.297-27.311 15.08 0 27.296 12.224 27.296 27.311 0 15.073-12.209 27.282-27.296 27.282z"/><path fill="#2C7E6F" d="M97.442 54.638c-23.687 0-42.895 19.194-42.895 42.895 0 23.687 19.208 42.879 42.895 42.879s42.895-19.192 42.895-42.879c.007-23.701-19.201-42.895-42.895-42.895zm0 70.177c-15.088 0-27.297-12.202-27.297-27.282 0-15.087 12.209-27.311 27.297-27.311 15.08 0 27.296 12.224 27.296 27.311 0 15.073-12.209 27.282-27.296 27.282z"/></symbol><symbol id="shapes-logo-echotri" viewBox="-2 -3 455.5 133"><path fill="#C2C575" d="M46.845 72.25c0-17.397 14.327-31.5 32-31.5 11.149 0 20.962 5.616 26.691 14.127C102.444 40.661 89.615 30 74.25 30c-17.673 0-32 14.103-32 31.5a31 31 0 0 0 5.309 17.373 31.18 31.18 0 0 1-.714-6.623z"/><path fill="#C2C575" d="M76.036 24.767c22.146 0 40.301 17.447 42.092 39.644.096-1.19.158-2.391.158-3.606 0-23.886-18.916-43.25-42.25-43.25s-42.25 19.364-42.25 43.25c0 1.216.062 2.416.158 3.606 1.791-22.197 19.945-39.644 42.092-39.644z"/><path fill="#C2C575" d="M78.206 5c-14.915 0-28.292 6.424-37.431 16.593C49.583 13.919 61.179 9.25 73.893 9.25c27.545 0 49.875 21.882 49.875 48.875 0 12.377-4.704 23.671-12.444 32.282 10.276-8.953 16.757-21.998 16.757-36.532C128.081 26.882 105.751 5 78.206 5z"/><path fill="#C58B75" d="M86.44 44.856a36.76 36.76 0 0 1 1.222 9.401c0 19.054-14.438 34.5-32.25 34.5-12.179 0-22.778-7.225-28.265-17.883 2.666 16.258 16.204 28.633 32.515 28.633 18.226 0 33-15.446 33-34.5 0-7.524-2.311-14.48-6.222-20.151z"/><path fill="#C58B75" d="M98.844 64.561c.001.141.011.28.011.421 0 21.333-18.136 38.625-40.508 38.625-22.372 0-40.507-17.293-40.507-38.625 0-.142.01-.281.011-.423a36.074 36.074 0 0 0-1.129 8.923c0 21.332 18.636 38.625 41.625 38.625s41.625-17.293 41.625-38.625c0-3.072-.398-6.056-1.128-8.921z"/><path fill="#C58B75" d="M62.605 121.105c-28.719 0-52-22.723-52-50.75 0-17.292 8.868-32.556 22.401-41.717C15.607 36.846 3.605 54.232 3.605 74.355c0 28.027 23.281 50.75 52 50.75 11.001 0 21.197-3.342 29.599-9.031-6.834 3.224-14.5 5.031-22.599 5.031z"/><path fill="#8F4319" d="M80.833 75.68S74.666 79.417 72 80c-1.501.328-4.994 1-10.833-1.834C55.792 75.559 55 68.5 55 68.5h16.333s16.1.166 20.936 0c.147-1.091.23-2.203.23-3.334C92.5 51.543 81.457 40.5 67.833 40.5S43.166 51.543 43.166 65.167 54.21 89.833 67.833 89.833c6.68 0 12.736-2.659 17.178-6.974l-4.178-7.179zM58.067 52.757c1.928-2.27 5.441-3.641 9.433-3.776 4.302-.146 6.818 1.403 9.25 3.77 3.083 3 3.083 8.083 3.083 8.083L55 60.5s.667-4.917 3.067-7.743zM144.167 23.5l13-4.333L156.333 44s6.833-5.249 13.667-4.291S187 44.834 187.334 53c.332 8.167 0 36.833 0 36.833h-12.168L175 57s-.139-2.121-2.358-4.192c-2.475-2.308-2.475-2.308-7.382-2.1-4.833 1.167-8.926 3.792-8.926 3.792l.5 35.333h-12.667V23.5z"/><g fill="#9AA017"><path d="M211.333 19.167v12.166h22.334v12.021c6.515 2.893 11.394 9.397 12.666 17.309V31h22V19.167h-57zM233.667 86.188v1.725h12.666v-19.03c-1.272 7.91-6.151 14.413-12.666 17.305z"/></g><path fill="#8F4319" d="M219.176 39.579c-12.791 0-23.158 11.419-23.158 25.503 0 14.087 10.367 25.506 23.158 25.506 12.787 0 23.158-11.419 23.158-25.506 0-14.084-10.371-25.503-23.158-25.503zm.549 41.087c-6.752 0-12.225-7.088-12.225-15.833 0-8.744 5.473-15.833 12.225-15.833 6.75 0 12.226 7.089 12.226 15.833-.003 8.745-5.476 15.833-12.226 15.833z"/><path fill="#9AA017" d="M305.428 58.878s12.905-9.055 12.572-19.3-8.333-20.412-19-20.412h-27v68.746h13.667V59.667h7.167L311 87.912h15l-20.572-29.034zm-9.761-9.297h-12v-20s10.167.167 12.833 0 8 4.667 8 10.079c0 8.421-8.833 9.921-8.833 9.921zM327.667 19.167h13v69.5h-13z"/><path fill="#8F4319" d="M131.36 75.627c-.003-.002.006-.016.005-.02-2.701 2.928-6.479 4.754-10.669 4.754-8.207 0-14.86-6.98-14.86-15.59s6.653-15.59 14.86-15.59c4.03 0 7.679 1.689 10.356 4.422l-.056-.064 6.03-7.22c-4.247-4.372-9.996-7.062-16.33-7.062-13.066 0-23.659 11.423-23.659 25.515 0 14.091 10.593 25.514 23.659 25.514 6.608 0 12.581-2.925 16.873-7.636-.16-.183-5.963-6.828-6.209-7.023z"/><g fill="#FFF"><path d="M135.82 112.439c0 1.162-.171 2.202-.513 3.12s-.845 1.694-1.509 2.329-1.484 1.118-2.461 1.45-2.1.498-3.369.498c-1.191 0-2.261-.149-3.208-.446-.947-.298-1.748-.75-2.402-1.355s-1.155-1.359-1.501-2.264c-.347-.902-.52-1.96-.52-3.171v-11.528c0-.098.029-.186.088-.264s.164-.142.315-.19.349-.088.593-.117.557-.044.938-.044c.371 0 .679.015.923.044s.439.068.586.117.251.112.315.19.095.166.095.264v11.191c0 .752.093 1.404.278 1.955.186.553.452 1.009.798 1.37s.762.633 1.245.813 1.023.271 1.619.271c.605 0 1.147-.093 1.626-.278s.884-.456 1.216-.813.588-.796.769-1.318.271-1.116.271-1.78v-11.411c0-.098.029-.186.088-.264s.161-.142.308-.19.344-.088.593-.117.559-.044.93-.044.676.015.916.044.432.068.579.117.249.112.308.19.088.166.088.264v11.367zM152.197 119.002a.392.392 0 0 1-.088.256c-.059.074-.156.135-.293.184s-.325.085-.564.109-.535.037-.886.037c-.361 0-.662-.013-.901-.037s-.427-.061-.564-.109-.234-.109-.293-.184a.392.392 0 0 1-.088-.256v-7.456c0-.635-.046-1.133-.139-1.494s-.227-.671-.403-.931c-.176-.258-.403-.458-.681-.6s-.603-.213-.974-.213c-.469 0-.942.171-1.421.513s-.977.84-1.494 1.494v8.687a.392.392 0 0 1-.088.256c-.059.074-.159.135-.3.184s-.33.085-.564.109-.532.037-.894.037-.659-.013-.894-.037-.422-.061-.564-.109-.242-.109-.3-.184a.392.392 0 0 1-.088-.256v-13.066c0-.098.024-.184.073-.256.049-.074.137-.135.264-.184s.291-.085.491-.109.452-.037.754-.037c.313 0 .571.013.776.037s.364.061.476.109.193.109.242.184a.445.445 0 0 1 .073.256v1.509c.723-.781 1.458-1.367 2.205-1.758s1.526-.586 2.336-.586c.889 0 1.638.146 2.249.439s1.104.691 1.479 1.194.647 1.091.813 1.765.249 1.484.249 2.432v8.071zM167.886 112.088c0 .449-.101.781-.301.996s-.476.322-.827.322h-7.954c0 .557.066 1.063.198 1.516.132.455.342.841.63 1.158s.659.559 1.113.725.999.249 1.633.249a9.07 9.07 0 0 0 1.699-.14c.488-.092.911-.194 1.267-.307s.652-.215.886-.309c.234-.092.425-.139.571-.139.088 0 .161.018.22.051.059.035.107.096.146.184s.066.213.081.373c.015.162.022.364.022.608 0 .215-.005.398-.015.55s-.024.28-.044.388-.049.198-.088.271c-.039.074-.09.145-.154.213s-.237.161-.52.278-.645.232-1.084.345a15.43 15.43 0 0 1-1.509.293c-.566.082-1.172.124-1.816.124-1.162 0-2.18-.146-3.054-.439s-1.604-.737-2.19-1.333-1.023-1.348-1.311-2.256-.432-1.973-.432-3.193c0-1.162.151-2.209.454-3.143.303-.932.742-1.723 1.318-2.373.576-.648 1.277-1.145 2.102-1.486s1.755-.513 2.791-.513c1.094 0 2.029.161 2.805.483s1.414.77 1.912 1.34c.498.572.864 1.248 1.099 2.029s.352 1.631.352 2.549v.586zm-3.574-1.055c.029-1.035-.178-1.848-.623-2.439-.444-.59-1.13-.886-2.058-.886-.469 0-.876.088-1.223.264s-.635.413-.864.71c-.229.299-.405.65-.527 1.055a5.243 5.243 0 0 0-.212 1.297h5.507zM189.155 117.991c0 .283-.013.521-.037.71-.024.191-.061.345-.109.462s-.109.203-.184.257a.392.392 0 0 1-.241.08h-9.521c-.322 0-.593-.096-.813-.285-.219-.191-.329-.501-.329-.931v-16.523c0-.43.11-.739.329-.931.221-.189.491-.285.813-.285h9.463c.088 0 .166.024.234.073s.127.135.176.257.085.277.11.469c.023.189.036.432.036.725 0 .273-.013.506-.036.695-.025.191-.062.345-.11.462s-.107.203-.176.257-.146.08-.234.08h-6.768v4.629h5.728c.088 0 .168.027.242.08.072.055.134.138.183.25s.085.264.11.453c.023.191.036.423.036.696 0 .283-.013.518-.036.703a1.732 1.732 0 0 1-.11.446.538.538 0 0 1-.183.242.428.428 0 0 1-.242.073h-5.728v5.347h6.826c.088 0 .169.027.241.08.074.055.135.14.184.257s.085.271.109.462c.025.19.037.427.037.71zM204.814 119.002a.392.392 0 0 1-.088.256c-.059.074-.156.135-.293.184s-.325.085-.563.109c-.24.024-.535.037-.887.037-.361 0-.662-.013-.9-.037-.24-.024-.428-.061-.564-.109s-.234-.109-.293-.184a.392.392 0 0 1-.088-.256v-7.456c0-.635-.047-1.133-.139-1.494a3.013 3.013 0 0 0-.403-.931 1.807 1.807 0 0 0-.681-.6 2.122 2.122 0 0 0-.975-.213c-.469 0-.942.171-1.421.513s-.977.84-1.494 1.494v8.687a.392.392 0 0 1-.088.256.646.646 0 0 1-.3.184c-.143.049-.33.085-.564.109s-.532.037-.894.037-.659-.013-.894-.037-.423-.061-.564-.109-.241-.109-.3-.184a.392.392 0 0 1-.088-.256v-13.066c0-.098.024-.184.073-.256.049-.074.137-.135.264-.184s.29-.085.49-.109.452-.037.755-.037c.313 0 .571.013.776.037s.363.061.477.109a.533.533 0 0 1 .241.184.445.445 0 0 1 .073.256v1.509c.723-.781 1.457-1.367 2.205-1.758a4.968 4.968 0 0 1 2.336-.586c.889 0 1.638.146 2.248.439s1.104.691 1.48 1.194c.375.503.646 1.091.813 1.765s.249 1.484.249 2.432v8.071zM215.889 117.713c0 .43-.027.76-.081.988-.054.23-.124.392-.212.484s-.218.176-.388.248a3.627 3.627 0 0 1-.602.191 6.373 6.373 0 0 1-.746.124c-.27.029-.54.044-.813.044-.732 0-1.367-.093-1.904-.278s-.981-.471-1.333-.856-.61-.872-.776-1.458-.249-1.279-.249-2.08v-6.694h-1.567c-.186 0-.327-.114-.425-.344s-.146-.613-.146-1.15c0-.283.012-.522.037-.718.023-.195.061-.349.109-.462a.533.533 0 0 1 .184-.241.445.445 0 0 1 .256-.073h1.553v-2.915c0-.098.026-.186.08-.264s.151-.144.293-.198a2.39 2.39 0 0 1 .572-.117c.238-.023.534-.036.886-.036.361 0 .661.013.901.036.238.025.427.064.563.117.137.055.234.12.293.198s.088.166.088.264v2.915h2.842c.098 0 .183.024.257.073.072.049.134.13.183.241.049.113.085.267.11.462.023.195.036.435.036.718 0 .537-.049.921-.146 1.15s-.239.344-.425.344h-2.856v6.138c0 .713.112 1.248.337 1.604s.625.534 1.201.534c.195 0 .371-.017.527-.052.156-.033.295-.072.418-.117.121-.043.224-.082.307-.117a.627.627 0 0 1 .228-.051c.059 0 .114.018.169.051.053.035.095.104.124.205.029.104.056.242.081.418.021.176.034.4.034.674zM226.948 107.151c0 .352-.01.64-.029.864s-.049.4-.088.527-.091.215-.154.264-.144.073-.241.073a.793.793 0 0 1-.264-.052c-.098-.033-.208-.07-.329-.109-.123-.039-.257-.075-.403-.109s-.308-.052-.483-.052c-.205 0-.41.042-.615.124a2.611 2.611 0 0 0-.637.389c-.221.176-.45.41-.689.703s-.495.654-.769 1.084v8.145a.392.392 0 0 1-.088.256.646.646 0 0 1-.3.184c-.143.049-.33.085-.564.109s-.532.037-.894.037-.659-.013-.894-.037-.423-.061-.564-.109-.241-.109-.3-.184a.392.392 0 0 1-.088-.256v-13.066c0-.098.024-.184.073-.256.049-.074.137-.135.264-.184s.29-.085.49-.109.452-.037.755-.037c.313 0 .571.013.776.037s.363.061.477.109a.533.533 0 0 1 .241.184.445.445 0 0 1 .073.256v1.626c.342-.488.664-.891.967-1.208s.591-.569.864-.755.547-.315.82-.388c.273-.074.547-.11.82-.11a4.023 4.023 0 0 1 1.274.211c.117.045.202.091.256.14s.093.103.117.161.047.139.066.242c.02.102.034.256.044.461s.016.484.016.835zM240.952 112.088c0 .449-.101.781-.301.996s-.476.322-.827.322h-7.954c0 .557.066 1.063.197 1.516.133.455.342.841.631 1.158.287.317.658.559 1.113.725.453.166.998.249 1.633.249a9.07 9.07 0 0 0 1.699-.14c.488-.092.91-.194 1.268-.307.355-.112.651-.215.886-.309.234-.092.425-.139.571-.139.088 0 .161.018.22.051.059.035.107.096.146.184s.065.213.081.373c.014.162.021.364.021.608 0 .215-.005.398-.015.55s-.024.28-.044.388-.049.198-.088.271c-.039.074-.091.145-.154.213s-.236.161-.52.278-.645.232-1.084.345a15.43 15.43 0 0 1-1.509.293c-.566.082-1.172.124-1.816.124-1.162 0-2.181-.146-3.054-.439-.875-.293-1.604-.737-2.19-1.333s-1.023-1.348-1.312-2.256-.432-1.973-.432-3.193c0-1.162.151-2.209.454-3.143.303-.932.742-1.723 1.318-2.373a5.661 5.661 0 0 1 2.103-1.486c.824-.342 1.755-.513 2.79-.513 1.094 0 2.028.161 2.806.483.775.322 1.413.77 1.911 1.34.498.572.864 1.248 1.099 2.029s.352 1.631.352 2.549v.586zm-3.574-1.055c.029-1.035-.179-1.848-.623-2.439-.444-.59-1.13-.886-2.058-.886-.469 0-.877.088-1.224.264s-.635.413-.863.71c-.23.299-.406.65-.527 1.055a5.243 5.243 0 0 0-.213 1.297h5.508zM257.139 112.278c0 1.162-.124 2.21-.374 3.142-.248.934-.612 1.727-1.091 2.381s-1.074 1.157-1.787 1.509-1.528.527-2.446.527a4.61 4.61 0 0 1-1.047-.11 4.036 4.036 0 0 1-.924-.336c-.298-.151-.593-.34-.886-.564s-.596-.488-.908-.791v6.152c0 .098-.029.186-.088.264s-.159.144-.3.197c-.143.054-.33.096-.564.125s-.532.044-.894.044-.659-.015-.894-.044-.423-.071-.564-.125-.241-.119-.3-.197-.088-.166-.088-.264v-18.252c0-.098.024-.184.073-.256.049-.074.134-.135.256-.184s.283-.085.484-.109c.199-.024.451-.037.754-.037.293 0 .539.013.74.037.199.024.36.061.482.109s.208.109.257.184a.445.445 0 0 1 .073.256v1.538c.381-.391.754-.734 1.121-1.032a6.765 6.765 0 0 1 1.12-.748c.381-.199.773-.349 1.179-.446s.838-.146 1.297-.146c.957 0 1.772.188 2.446.563a4.621 4.621 0 0 1 1.647 1.546c.426.654.735 1.416.931 2.285s.295 1.796.295 2.782zm-3.838.264c0-.557-.042-1.091-.124-1.604-.084-.512-.226-.969-.426-1.369s-.464-.72-.791-.959-.734-.359-1.223-.359c-.244 0-.486.037-.725.109-.24.074-.484.193-.732.359-.25.166-.506.381-.77.645s-.542.591-.835.981v4.307c.518.654 1.011 1.16 1.479 1.517s.957.534 1.465.534c.479 0 .887-.122 1.223-.366.338-.244.613-.564.828-.959.215-.396.373-.843.477-1.341.102-.499.154-.997.154-1.495zM268.477 107.151c0 .352-.01.64-.029.864s-.049.4-.088.527-.091.215-.153.264a.387.387 0 0 1-.242.073.793.793 0 0 1-.264-.052c-.098-.033-.208-.07-.33-.109s-.256-.075-.402-.109-.308-.052-.483-.052c-.205 0-.41.042-.615.124a2.654 2.654 0 0 0-.638.389c-.219.176-.449.41-.688.703-.24.293-.496.654-.77 1.084v8.145a.392.392 0 0 1-.088.256c-.059.074-.159.135-.301.184s-.329.085-.563.109-.532.037-.894.037-.659-.013-.894-.037-.423-.061-.563-.109c-.143-.049-.242-.109-.301-.184a.392.392 0 0 1-.088-.256v-13.066c0-.098.024-.184.073-.256.049-.074.137-.135.264-.184s.29-.085.491-.109c.199-.024.451-.037.754-.037.313 0 .571.013.776.037s.363.061.476.109.193.109.242.184a.445.445 0 0 1 .073.256v1.626c.342-.488.664-.891.967-1.208s.591-.569.864-.755.547-.315.82-.388c.273-.074.547-.11.82-.11a4.023 4.023 0 0 1 1.274.211.852.852 0 0 1 .257.14.477.477 0 0 1 .117.161c.023.059.046.139.065.242.02.102.034.256.044.461s.017.484.017.835zM274.717 101.512c0 .742-.151 1.255-.454 1.538s-.864.425-1.685.425c-.83 0-1.39-.137-1.677-.41-.289-.273-.433-.767-.433-1.479 0-.742.148-1.257.446-1.546.298-.287.862-.432 1.692-.432.82 0 1.377.139 1.67.418.294.277.441.773.441 1.486zm-.279 17.49a.392.392 0 0 1-.088.256c-.059.074-.159.135-.301.184s-.329.085-.563.109-.532.037-.894.037-.659-.013-.894-.037-.423-.061-.563-.109c-.143-.049-.242-.109-.301-.184a.392.392 0 0 1-.088-.256v-13.037c0-.098.029-.184.088-.256a.685.685 0 0 1 .301-.191c.141-.053.329-.095.563-.124s.532-.044.894-.044.659.015.894.044.422.071.563.124a.7.7 0 0 1 .301.191.392.392 0 0 1 .088.256v13.037zM287.314 115.311c0 .742-.14 1.396-.417 1.963-.279.566-.672 1.04-1.18 1.421s-1.108.667-1.802.856a8.467 8.467 0 0 1-2.256.286c-.488 0-.955-.036-1.399-.11a8.461 8.461 0 0 1-1.193-.277c-.352-.112-.645-.228-.879-.345s-.405-.228-.513-.329c-.107-.104-.19-.264-.249-.484-.059-.219-.088-.544-.088-.974 0-.283.01-.51.029-.681s.049-.309.088-.41c.039-.104.088-.171.146-.205s.132-.052.22-.052c.107 0 .266.062.476.183.21.123.472.257.784.403s.676.283 1.091.41.887.19 1.414.19c.332 0 .627-.034.887-.103a2.25 2.25 0 0 0 .674-.293c.189-.127.334-.288.432-.483s.146-.42.146-.674c0-.293-.091-.544-.271-.754s-.42-.394-.717-.55c-.299-.156-.636-.303-1.012-.439s-.762-.288-1.156-.454c-.396-.166-.782-.356-1.158-.571s-.713-.479-1.01-.791c-.299-.313-.538-.688-.719-1.128s-.271-.967-.271-1.582c0-.625.122-1.198.366-1.721s.596-.97 1.055-1.341 1.018-.659 1.678-.864c.658-.205 1.398-.308 2.219-.308.41 0 .808.029 1.193.088s.735.132 1.048.22.576.184.791.285c.215.104.368.191.462.264a.728.728 0 0 1 .197.221c.039.072.068.16.088.264.02.102.037.229.051.381.016.151.022.339.022.563 0 .264-.007.479-.022.645a1.731 1.731 0 0 1-.072.396c-.035.098-.081.164-.14.197a.393.393 0 0 1-.205.052c-.088 0-.225-.052-.41-.153a6.99 6.99 0 0 0-.696-.33 8.203 8.203 0 0 0-.967-.33 4.665 4.665 0 0 0-1.252-.153c-.332 0-.62.034-.864.103s-.444.166-.601.293a1.235 1.235 0 0 0-.469.996c0 .303.093.557.278.762s.43.386.732.542.646.303 1.032.439.777.286 1.172.446c.396.162.786.35 1.172.564s.73.479 1.033.791.547.687.732 1.121.28.948.28 1.544zM302.153 112.088c0 .449-.101.781-.301.996s-.476.322-.827.322h-7.954c0 .557.066 1.063.197 1.516.133.455.342.841.631 1.158.287.317.658.559 1.113.725.453.166.998.249 1.633.249a9.07 9.07 0 0 0 1.699-.14c.488-.092.91-.194 1.268-.307.355-.112.651-.215.886-.309.234-.092.425-.139.571-.139.088 0 .161.018.22.051.059.035.107.096.146.184s.065.213.081.373c.014.162.021.364.021.608 0 .215-.005.398-.015.55s-.024.28-.044.388-.049.198-.088.271c-.039.074-.091.145-.154.213s-.236.161-.52.278-.645.232-1.084.345a15.43 15.43 0 0 1-1.509.293c-.566.082-1.172.124-1.816.124-1.162 0-2.181-.146-3.054-.439-.875-.293-1.604-.737-2.19-1.333s-1.023-1.348-1.312-2.256-.432-1.973-.432-3.193c0-1.162.151-2.209.454-3.143.303-.932.742-1.723 1.318-2.373a5.661 5.661 0 0 1 2.103-1.486c.824-.342 1.755-.513 2.79-.513 1.094 0 2.028.161 2.806.483.775.322 1.413.77 1.911 1.34.498.572.864 1.248 1.099 2.029s.352 1.631.352 2.549v.586zm-3.574-1.055c.029-1.035-.179-1.848-.623-2.439-.444-.59-1.13-.886-2.058-.886-.469 0-.877.088-1.224.264s-.635.413-.863.71c-.23.299-.406.65-.527 1.055a5.243 5.243 0 0 0-.213 1.297h5.508zM327.715 118.064c.117.352.19.63.22.835s-.01.358-.117.462c-.107.102-.298.165-.571.189s-.649.037-1.128.037c-.498 0-.887-.008-1.164-.021a3.029 3.029 0 0 1-.638-.088c-.146-.045-.249-.105-.308-.184s-.107-.181-.146-.308l-1.274-3.809h-7.119l-1.201 3.706a1.205 1.205 0 0 1-.153.344.628.628 0 0 1-.309.221c-.142.053-.342.09-.6.109-.26.02-.599.029-1.019.029-.449 0-.801-.015-1.055-.044s-.43-.1-.527-.212-.132-.271-.103-.477.103-.479.22-.82l5.845-16.816a1.46 1.46 0 0 1 .205-.402c.078-.104.202-.181.373-.234s.408-.088.711-.104c.303-.014.703-.021 1.201-.021.576 0 1.035.008 1.377.021.342.016.607.05.799.104.189.054.326.134.41.241.082.107.153.254.212.439l5.859 16.803zm-8.701-13.901h-.015l-2.681 8.057h5.376l-2.68-8.057zM339.346 115.311c0 .742-.14 1.396-.417 1.963-.279.566-.672 1.04-1.18 1.421s-1.108.667-1.802.856a8.467 8.467 0 0 1-2.256.286c-.488 0-.955-.036-1.399-.11a8.461 8.461 0 0 1-1.193-.277c-.352-.112-.645-.228-.879-.345s-.405-.228-.513-.329c-.107-.104-.19-.264-.249-.484-.059-.219-.088-.544-.088-.974 0-.283.01-.51.029-.681s.049-.309.088-.41c.039-.104.088-.171.146-.205s.132-.052.22-.052c.107 0 .266.062.476.183.21.123.472.257.784.403s.676.283 1.091.41.887.19 1.414.19c.332 0 .627-.034.887-.103a2.25 2.25 0 0 0 .674-.293c.189-.127.334-.288.432-.483s.146-.42.146-.674c0-.293-.091-.544-.271-.754s-.42-.394-.717-.55c-.299-.156-.636-.303-1.012-.439s-.762-.288-1.156-.454c-.396-.166-.782-.356-1.158-.571s-.713-.479-1.01-.791c-.299-.313-.538-.688-.719-1.128s-.271-.967-.271-1.582c0-.625.122-1.198.366-1.721s.596-.97 1.055-1.341 1.018-.659 1.678-.864c.658-.205 1.398-.308 2.219-.308.41 0 .808.029 1.193.088s.735.132 1.048.22.576.184.791.285c.215.104.368.191.462.264a.728.728 0 0 1 .197.221c.039.072.068.16.088.264.02.102.037.229.051.381.016.151.022.339.022.563 0 .264-.007.479-.022.645a1.731 1.731 0 0 1-.072.396c-.035.098-.081.164-.14.197a.393.393 0 0 1-.205.052c-.088 0-.225-.052-.41-.153a6.99 6.99 0 0 0-.696-.33 8.203 8.203 0 0 0-.967-.33 4.665 4.665 0 0 0-1.252-.153c-.332 0-.62.034-.864.103s-.444.166-.601.293a1.235 1.235 0 0 0-.469.996c0 .303.093.557.278.762s.43.386.732.542.646.303 1.032.439.777.286 1.172.446c.396.162.786.35 1.172.564s.73.479 1.033.791.547.687.732 1.121.28.948.28 1.544zM351.313 115.311c0 .742-.139 1.396-.418 1.963-.277.566-.671 1.04-1.179 1.421s-1.108.667-1.802.856a8.467 8.467 0 0 1-2.256.286 8.49 8.49 0 0 1-1.398-.11 8.444 8.444 0 0 1-1.194-.277c-.352-.112-.645-.228-.879-.345s-.405-.228-.513-.329c-.107-.104-.19-.264-.249-.484-.059-.219-.088-.544-.088-.974 0-.283.01-.51.029-.681s.049-.309.088-.41c.039-.104.088-.171.146-.205s.132-.052.22-.052c.107 0 .266.062.477.183.209.123.471.257.783.403s.676.283 1.092.41c.414.127.886.19 1.413.19.332 0 .627-.034.886-.103s.484-.166.674-.293c.191-.127.335-.288.433-.483s.146-.42.146-.674a1.12 1.12 0 0 0-.271-.754c-.182-.21-.421-.394-.719-.55s-.635-.303-1.01-.439a25.699 25.699 0 0 1-1.158-.454 10.507 10.507 0 0 1-1.156-.571c-.377-.215-.714-.479-1.012-.791s-.537-.688-.717-1.128c-.182-.439-.271-.967-.271-1.582 0-.625.122-1.198.366-1.721s.596-.97 1.055-1.341 1.019-.659 1.677-.864c.66-.205 1.399-.308 2.22-.308.41 0 .808.029 1.194.088.385.059.734.132 1.047.22s.576.184.791.285c.215.104.368.191.461.264a.72.72 0 0 1 .198.221c.039.072.068.16.088.264.02.102.036.229.052.381a8.472 8.472 0 0 1 0 1.208c-.016.166-.04.298-.074.396s-.08.164-.139.197a.393.393 0 0 1-.205.052c-.088 0-.225-.052-.41-.153a7.183 7.183 0 0 0-.695-.33 8.463 8.463 0 0 0-.967-.33 4.683 4.683 0 0 0-1.253-.153c-.332 0-.62.034-.864.103s-.444.166-.601.293a1.235 1.235 0 0 0-.469.996c0 .303.093.557.278.762s.43.386.732.542.646.303 1.033.439c.385.137.775.286 1.172.446.395.162.785.35 1.172.564.385.215.729.479 1.032.791s.547.687.732 1.121.28.948.28 1.544zM367.295 112.337c0 1.113-.146 2.129-.439 3.047s-.737 1.709-1.333 2.373-1.343 1.177-2.241 1.538-1.948.542-3.149.542c-1.162 0-2.173-.161-3.032-.483s-1.572-.791-2.139-1.406-.986-1.372-1.26-2.271-.41-1.924-.41-3.076c0-1.113.148-2.132.446-3.054.298-.924.745-1.715 1.341-2.373.596-.66 1.341-1.17 2.233-1.531.895-.361 1.941-.542 3.143-.542 1.172 0 2.188.159 3.047.476.859.318 1.569.784 2.131 1.399s.979 1.372 1.253 2.271.409 1.928.409 3.09zm-3.794.146c0-.645-.051-1.237-.154-1.78-.102-.541-.275-1.013-.52-1.413s-.569-.713-.975-.938-.915-.337-1.53-.337c-.547 0-1.025.101-1.436.301s-.747.493-1.011.879-.461.85-.594 1.391a7.928 7.928 0 0 0-.197 1.854c0 .645.054 1.238.161 1.779.107.543.28 1.014.521 1.414.238.4.563.711.974.93.41.221.918.33 1.523.33.557 0 1.04-.1 1.45-.301.41-.199.747-.49 1.011-.871s.459-.842.586-1.385a8.09 8.09 0 0 0 .191-1.853zM380.098 116.922a7.5 7.5 0 0 1-.022.637c-.014.172-.034.315-.059.433s-.054.212-.088.286a1.038 1.038 0 0 1-.227.277c-.117.113-.317.25-.601.41-.283.162-.605.306-.967.433s-.755.229-1.179.308a7.26 7.26 0 0 1-1.312.117c-1.006 0-1.897-.156-2.673-.469a5.001 5.001 0 0 1-1.956-1.385c-.527-.609-.926-1.354-1.194-2.233s-.402-1.885-.402-3.018c0-1.309.163-2.438.49-3.392.327-.951.784-1.74 1.37-2.365s1.279-1.089 2.08-1.392 1.68-.454 2.637-.454a6.743 6.743 0 0 1 2.204.381c.327.117.62.249.879.396s.442.273.55.381.183.198.228.271c.043.074.077.169.102.286s.045.262.059.433c.016.171.022.378.022.622 0 .566-.049.965-.146 1.194s-.225.344-.381.344c-.166 0-.342-.068-.527-.205s-.405-.288-.659-.454-.557-.317-.908-.454-.771-.205-1.26-.205c-.957 0-1.689.369-2.197 1.105-.508.738-.762 1.819-.762 3.245 0 .703.063 1.323.19 1.86s.315.986.563 1.348c.25.361.562.633.938.813.376.182.813.271 1.312.271.508 0 .944-.075 1.312-.227.365-.151.686-.32.959-.506s.503-.354.688-.506c.186-.15.342-.227.469-.227.088 0 .161.024.22.073s.104.14.139.271c.034.133.062.301.081.506s.028.469.028.791zM386.733 101.512c0 .742-.151 1.255-.454 1.538s-.864.425-1.685.425c-.83 0-1.39-.137-1.678-.41s-.432-.767-.432-1.479c0-.742.148-1.257.447-1.546.297-.287.861-.432 1.691-.432.82 0 1.377.139 1.67.418.295.277.441.773.441 1.486zm-.278 17.49a.392.392 0 0 1-.088.256.646.646 0 0 1-.3.184c-.143.049-.33.085-.564.109s-.532.037-.894.037-.659-.013-.894-.037-.423-.061-.564-.109-.241-.109-.3-.184a.392.392 0 0 1-.088-.256v-13.037c0-.098.029-.184.088-.256a.687.687 0 0 1 .3-.191c.142-.053.33-.095.564-.124s.532-.044.894-.044.659.015.894.044.422.071.564.124a.703.703 0 0 1 .3.191.392.392 0 0 1 .088.256v13.037zM401.265 119.046c0 .137-.049.244-.146.322s-.252.134-.461.169a6.454 6.454 0 0 1-.931.051 6.53 6.53 0 0 1-.96-.051c-.2-.035-.342-.091-.424-.169a.418.418 0 0 1-.125-.322v-1.04a5.959 5.959 0 0 1-1.838 1.348c-.689.322-1.453.483-2.293.483a6.439 6.439 0 0 1-1.912-.271 4.278 4.278 0 0 1-1.508-.807c-.426-.355-.755-.798-.989-1.325s-.352-1.143-.352-1.846c0-.762.148-1.423.446-1.985.298-.561.742-1.025 1.334-1.391.59-.367 1.325-.638 2.204-.813s1.899-.264 3.062-.264h1.274v-.791c0-.41-.042-.769-.124-1.077a1.83 1.83 0 0 0-.41-.769 1.703 1.703 0 0 0-.762-.454c-.318-.098-.711-.146-1.18-.146-.615 0-1.164.068-1.648.205-.482.137-.91.288-1.281.454s-.682.317-.93.454c-.25.137-.452.205-.608.205-.107 0-.203-.034-.286-.103s-.151-.166-.205-.293-.095-.283-.124-.469-.044-.391-.044-.615c0-.303.024-.542.073-.718s.142-.334.278-.477c.137-.141.376-.297.718-.469.342-.17.742-.329 1.201-.476s.96-.266 1.501-.358a9.921 9.921 0 0 1 1.678-.14c1.025 0 1.901.101 2.629.3.728.201 1.326.509 1.795.924s.811.949 1.025 1.604.322 1.431.322 2.329v8.791zm-3.619-5.596h-1.406c-.596 0-1.104.044-1.523.132s-.762.22-1.025.396-.457.388-.579.638a1.917 1.917 0 0 0-.183.856c0 .547.173.977.521 1.289.346.313.827.469 1.442.469.518 0 .993-.132 1.429-.396.434-.264.876-.649 1.325-1.157v-2.227zM417.422 105.438c.41 0 .696.088.856.264.162.176.242.43.242.762v12.539a.392.392 0 0 1-.088.256c-.059.074-.156.135-.293.184s-.325.085-.564.109-.534.037-.886.037c-.361 0-.662-.013-.901-.037s-.427-.061-.563-.109-.234-.109-.293-.184a.392.392 0 0 1-.088-.256v-10.576h-5.874v6.138c0 .713.112 1.248.337 1.604s.625.534 1.201.534c.195 0 .371-.017.527-.052.156-.033.295-.072.417-.117.122-.043.225-.082.309-.117a.618.618 0 0 1 .227-.051c.059 0 .114.018.168.051.054.035.096.104.125.205.029.104.056.242.08.418s.037.4.037.674c0 .43-.024.754-.073.975-.049.219-.117.381-.205.482-.088.104-.22.191-.396.264a3.888 3.888 0 0 1-.607.191c-.23.053-.479.095-.748.124s-.539.044-.813.044c-.732 0-1.367-.093-1.904-.278s-.981-.471-1.333-.856-.61-.872-.776-1.458-.249-1.279-.249-2.08v-6.694h-1.567c-.186 0-.327-.114-.425-.344s-.146-.613-.146-1.15c0-.283.012-.522.036-.718s.062-.349.11-.462a.546.546 0 0 1 .183-.241.453.453 0 0 1 .257-.073h1.553v-2.915c0-.098.026-.186.081-.264.053-.078.15-.144.293-.198.141-.053.331-.092.57-.117a9.45 9.45 0 0 1 .887-.036c.361 0 .661.013.9.036.239.025.428.064.564.117.137.055.234.12.293.198s.088.166.088.264v2.915h8.451zm1.391-3.926c0 .742-.151 1.255-.454 1.538s-.864.425-1.685.425c-.83 0-1.39-.137-1.678-.41s-.432-.767-.432-1.479c0-.742.148-1.257.447-1.546.297-.287.861-.432 1.691-.432.82 0 1.377.139 1.67.418.295.277.441.773.441 1.486zM434.253 105.921a2.514 2.514 0 0 1-.037.404 7.893 7.893 0 0 1-.154.651l-3.926 11.821a1.136 1.136 0 0 1-.198.402c-.083.104-.219.184-.41.242a3.372 3.372 0 0 1-.775.117c-.328.02-.755.029-1.282.029-.518 0-.94-.013-1.267-.037-.328-.024-.584-.065-.77-.124s-.32-.14-.402-.241a1.157 1.157 0 0 1-.198-.389l-3.926-11.821c-.059-.195-.105-.371-.14-.527s-.054-.269-.059-.337-.007-.132-.007-.19c0-.098.026-.183.081-.257.053-.072.148-.134.285-.183s.324-.083.564-.103c.238-.02.539-.029.9-.029.4 0 .723.013.967.037s.437.059.578.102c.142.045.242.108.301.191s.107.183.146.3l2.974 9.595.088.366.088-.366 2.93-9.595a.785.785 0 0 1 .14-.3.596.596 0 0 1 .3-.191c.137-.043.319-.077.55-.102.229-.024.529-.037.9-.037.361 0 .656.01.887.029.229.02.407.054.534.103s.215.11.264.183c.05.074.074.159.074.257zM448.213 112.088c0 .449-.101.781-.3.996-.201.215-.477.322-.828.322h-7.954c0 .557.065 1.063.198 1.516.131.455.341.841.629 1.158s.66.559 1.113.725c.455.166.999.249 1.634.249a9.07 9.07 0 0 0 1.699-.14c.488-.092.91-.194 1.267-.307s.652-.215.887-.309c.234-.092.425-.139.571-.139.088 0 .161.018.22.051.059.035.107.096.146.184s.066.213.08.373c.016.162.022.364.022.608 0 .215-.005.398-.015.55s-.024.28-.044.388-.049.198-.088.271a1.037 1.037 0 0 1-.153.213c-.064.068-.237.161-.521.278s-.645.232-1.084.345a15.43 15.43 0 0 1-1.509.293c-.566.082-1.172.124-1.816.124-1.162 0-2.181-.146-3.055-.439s-1.604-.737-2.189-1.333-1.023-1.348-1.311-2.256c-.289-.908-.433-1.973-.433-3.193 0-1.162.151-2.209.454-3.143.303-.932.742-1.723 1.318-2.373.576-.648 1.276-1.145 2.102-1.486s1.756-.513 2.791-.513c1.094 0 2.029.161 2.805.483.777.322 1.414.77 1.912 1.34.498.572.864 1.248 1.099 2.029s.352 1.631.352 2.549v.586zm-3.574-1.055c.029-1.035-.179-1.848-.622-2.439-.445-.59-1.131-.886-2.059-.886-.469 0-.877.088-1.223.264a2.501 2.501 0 0 0-.865.71c-.229.299-.405.65-.527 1.055a5.29 5.29 0 0 0-.212 1.297h5.508z"/></g><g fill="#8F4319"><path d="M296.278 79.663c0 .132-.005.247-.014.345a2.533 2.533 0 0 1-.038.273 1.59 1.59 0 0 1-.064.24c-.027.074-.06.155-.096.242l-2.912 6.747a.417.417 0 0 1-.105.144.498.498 0 0 1-.182.086c-.077.02-.177.033-.297.041-.121.006-.271.01-.448.01-.241 0-.433-.008-.574-.023a.957.957 0 0 1-.312-.076c-.065-.033-.101-.077-.105-.129a.395.395 0 0 1 .048-.195l3.131-6.904h-3.719c-.096 0-.167-.063-.216-.188-.047-.126-.071-.325-.071-.599 0-.137.007-.254.021-.353.014-.098.033-.179.059-.242a.334.334 0 0 1 .088-.137.19.19 0 0 1 .12-.041h5.257c.082 0 .15.008.205.023.055.017.098.052.13.106s.056.132.071.232c.016.102.023.234.023.398zM303.381 87.019c0 .132-.006.245-.018.339-.011.093-.028.169-.051.229s-.053.102-.089.127a.217.217 0 0 1-.123.037h-5.086c-.101 0-.187-.009-.26-.027s-.132-.054-.178-.105a.491.491 0 0 1-.099-.229 3.064 3.064 0 0 1-.01-.777 1.106 1.106 0 0 1 .216-.533c.057-.079.131-.167.222-.263l1.531-1.641a7.81 7.81 0 0 0 .738-.872c.187-.262.333-.501.438-.717.104-.217.177-.416.216-.599.038-.183.058-.355.058-.52 0-.15-.024-.293-.071-.427a1.02 1.02 0 0 0-.213-.353.935.935 0 0 0-.352-.235 1.313 1.313 0 0 0-.499-.086c-.269 0-.507.034-.714.103a3.362 3.362 0 0 0-.547.229 4.412 4.412 0 0 0-.394.232c-.104.07-.187.105-.246.105a.153.153 0 0 1-.106-.041c-.029-.027-.053-.073-.071-.137s-.033-.149-.044-.256a3.617 3.617 0 0 1-.008-.657c.008-.071.018-.133.031-.186a.552.552 0 0 1 .055-.137.743.743 0 0 1 .119-.14 1.65 1.65 0 0 1 .314-.208c.153-.085.341-.167.564-.246.224-.08.47-.147.738-.202s.549-.082.841-.082c.46 0 .862.058 1.206.175.345.115.631.277.858.484.228.208.397.454.509.738.112.285.168.592.168.92 0 .287-.027.569-.082.848s-.169.578-.342.898a7.025 7.025 0 0 1-.731 1.066c-.314.391-.731.843-1.251 1.357l-1.032 1.06h3.486c.046 0 .088.014.126.041a.32.32 0 0 1 .1.126.834.834 0 0 1 .062.227c.014.096.021.207.021.335z"/></g></symbol><symbol id="shapes-movers" viewBox="0 0 424.082 424.082"><path d="M55.341 117.012a38.24 38.24 0 0 0 12.797-2.207c9.658-3.418 17.405-10.393 21.816-19.639 2.942-6.167 4.155-12.852 3.629-19.485l9.594-1.083c5.717-.646 11.52-5.206 13.498-10.607l3.008-8.217c1.174-3.205.865-6.45-.848-8.901-1.67-2.391-4.484-3.762-7.721-3.762-.375 0-.762.018-1.161.056l-33.9 3.225a38.283 38.283 0 0 0-20.718-6.1c-4.353 0-8.658.741-12.795 2.206-19.936 7.06-30.413 29.021-23.354 48.953 5.415 15.289 19.944 25.561 36.155 25.561zM423.516 361.204l-23.927-87.648c-1.476-5.408-2.749-14.45-2.779-19.744-.001-.142-.017-.277-.021-.418.014-.267.039-.53.039-.801l.037-107.537c.003-8.706-7.07-16.098-15.768-16.477l-44.801-1.951c-13.036 0-16.391 10.409-16.903 13.664l-8.127 51.669c-.479 3.048-3.605 5.762-6.69 5.81l-9.466.146v-66.939c0-8.271-6.729-15-15-15H140.653c-8.271 0-15 6.729-15 15v66.904l-7.21-.11c-3.084-.048-6.21-2.762-6.689-5.81l-8.127-51.668c-.51-3.242-4.283-13.665-16.903-13.665l-44.8 1.951c-8.698.379-15.771 7.771-15.768 16.477 0 0-.616 109.012-.616 129.905l-1.454 25.737c-.309 5.461-2.437 14.302-4.647 19.306L1.302 361.049c-1.764 3.991-1.735 8.404.08 12.106 1.815 3.702 5.285 6.428 9.52 7.479l1.602.397a17.1 17.1 0 0 0 4.118.496c7.182 0 14.053-4.168 17.096-10.372l16.94-34.529c2.806-5.721 6.299-15.413 7.786-21.607l9.606-40.014 23.342 35.696c2.86 4.374 5.884 12.768 6.47 17.961l4.494 39.796c.954 8.454 8.653 15.332 17.163 15.332l2.408-.008c4.352-.015 8.31-1.752 11.144-4.892s4.158-7.255 3.729-11.586l-4.791-48.303c-.646-6.514-2.985-16.402-5.325-22.514l-22.562-58.928-.13-11.597 215.036-.001-.194 17.303-30.906 123.595c-1.075 4.298-.254 8.61 2.251 11.831 2.505 3.22 6.483 5.076 10.915 5.091l2.409.008h.001c8.313 0 16.478-6.295 18.588-14.33l15.286-58.197c1.415-5.385 5.055-13.95 7.95-18.704l13.063-21.453 32.091 98.805c2.217 6.829 8.846 11.598 16.12 11.598 1.322 0 2.639-.16 3.913-.477l1.602-.397c4.157-1.031 7.637-3.628 9.797-7.311s2.73-7.987 1.602-12.119zm-303.998 17.585v.002-.002zm183.984 0v.002-.002zM306.343 63.99c1.978 5.402 7.781 9.963 13.498 10.608l9.594 1.083c-.526 6.634.686 13.318 3.629 19.485 4.411 9.246 12.159 16.221 21.815 19.638a38.246 38.246 0 0 0 12.798 2.208h.002c16.21 0 30.738-10.271 36.153-25.562 7.059-19.933-3.418-41.894-23.355-48.954a38.254 38.254 0 0 0-12.794-2.205 38.283 38.283 0 0 0-20.718 6.1l-33.901-3.225a12.205 12.205 0 0 0-1.16-.056c-3.237 0-6.051 1.371-7.721 3.762-1.713 2.451-2.022 5.696-.849 8.901l3.009 8.217z"/></symbol><symbol id="shapes-organize" viewBox="0 0 612 612"><path d="M612 463.781c0-70.342-49.018-129.199-114.75-144.379-10.763-2.482-21.951-3.84-33.469-3.84-3.218 0-6.397.139-9.562.34-71.829 4.58-129.725 60.291-137.69 131.145-.617 5.494-.966 11.073-.966 16.734 0 10.662 1.152 21.052 3.289 31.078C333.139 561.792 392.584 612 463.781 612 545.641 612 612 545.641 612 463.781zm-148.219 98.016c-54.133 0-98.016-43.883-98.016-98.016s43.883-98.016 98.016-98.016 98.016 43.883 98.016 98.016-43.883 98.016-98.016 98.016z"/><path d="M482.906 396.844h-33.468v52.594h-52.594v33.468h86.062v-33.468zM109.969 0c-9.228 0-16.734 7.507-16.734 16.734V95.625c0 9.228 7.506 16.734 16.734 16.734h14.344c9.228 0 16.734-7.507 16.734-16.734V16.734C141.047 7.507 133.541 0 124.312 0h-14.343zM372.938 0c-9.228 0-16.734 7.507-16.734 16.734V95.625c0 9.228 7.507 16.734 16.734 16.734h14.344c9.228 0 16.734-7.507 16.734-16.734V16.734C404.016 7.507 396.509 0 387.281 0h-14.343z"/><path d="M38.25 494.859h236.672A181.687 181.687 0 0 1 271.35 459c0-4.021.177-7.999.435-11.953H71.719c-15.845 0-28.688-12.843-28.688-28.688v-229.5h411.188v88.707c3.165-.163 6.354-.253 9.562-.253 11.437 0 22.61 1.109 33.469 3.141V93.234c0-21.124-17.126-38.25-38.25-38.25h-31.078v40.641c0 22.41-18.23 40.641-40.641 40.641h-14.344c-22.41 0-40.641-18.231-40.641-40.641V54.984H164.953v40.641c0 22.41-18.231 40.641-40.641 40.641h-14.344c-22.41 0-40.641-18.231-40.641-40.641V54.984H38.25C17.126 54.984 0 72.111 0 93.234v363.375c0 21.124 17.126 38.25 38.25 38.25z"/><circle cx="134.774" cy="260.578" r="37.954"/><circle cx="248.625" cy="260.578" r="37.954"/><circle cx="362.477" cy="260.578" r="37.954"/><circle cx="248.625" cy="375.328" r="37.953"/><circle cx="134.774" cy="375.328" r="37.953"/></symbol><symbol id="shapes-papers" viewBox="0 0 486.31 486.31"><path d="M.018 393.086a18.082 18.082 0 0 0 13.434 16.707l183.256 48.558a51.974 51.974 0 0 0 13.273 1.721c5.718 0 11.416-.936 16.878-2.818l247.238-85.063a18.095 18.095 0 0 0 12.185-18.109c-.446-8.084-6.211-14.882-14.107-16.66l-31.558-7.076-203.079 69.875a84.455 84.455 0 0 1-27.558 4.611 84.85 84.85 0 0 1-21.681-2.826L43.936 363.752l-31.974 11.52C4.518 377.955-.334 385.176.018 393.086z"/><path d="M.018 305.044c.335 7.91 5.797 14.677 13.449 16.709l183.24 48.556a51.802 51.802 0 0 0 30.151-1.096l247.238-85.064a18.097 18.097 0 0 0 12.185-18.108 18.105 18.105 0 0 0-14.107-16.662l-31.558-7.076-203.079 69.876a84.474 84.474 0 0 1-27.558 4.603 84.884 84.884 0 0 1-21.681-2.817L43.936 275.711l-31.974 11.521C4.518 289.913-.334 297.135.018 305.044z"/><path d="M237.538 224.128a84.475 84.475 0 0 1-27.558 4.604 84.885 84.885 0 0 1-21.681-2.818L43.936 187.669 11.962 199.19C4.518 201.872-.334 209.094.018 217.004c.335 7.908 5.797 14.674 13.449 16.707l183.24 48.557a51.931 51.931 0 0 0 13.273 1.722 51.82 51.82 0 0 0 16.878-2.817l247.238-85.065a18.099 18.099 0 0 0 12.185-18.109 18.102 18.102 0 0 0-14.107-16.66l-31.558-7.078-203.078 69.867z"/><path d="M13.452 145.662l183.256 48.557a51.93 51.93 0 0 0 13.273 1.721c5.718 0 11.416-.937 16.878-2.818l247.238-85.063a18.099 18.099 0 0 0 12.185-18.109 18.104 18.104 0 0 0-14.107-16.661L268.008 27.494a51.856 51.856 0 0 0-11.352-1.256 51.812 51.812 0 0 0-17.582 3.066L11.962 111.14C4.518 113.822-.334 121.044.018 128.954a18.084 18.084 0 0 0 13.434 16.708z"/></symbol><symbol id="shapes-people-us" viewBox="0 0 536.071 536.07"><path d="M147.128 91.076c0-37.95 30.766-68.716 68.721-68.716 37.95 0 68.719 30.766 68.719 68.716s-30.769 68.715-68.719 68.715c-37.955.001-68.721-30.765-68.721-68.715zm101.745 115.531c.689-14.963 5.84-28.812 14.127-40.261a87.66 87.66 0 0 0-17.995-1.865h-58.304c-6.15 0-12.153.642-17.939 1.845 8.819 12.232 14.094 27.171 14.18 43.343a74.66 74.66 0 0 1 36.085-9.253 74.646 74.646 0 0 1 29.846 6.191zm11.632 6.168c19.96 12.517 33.957 33.688 36.517 58.274 8.133 3.801 17.171 5.994 26.746 5.994 34.968 0 63.311-28.346 63.311-63.313 0-34.971-28.343-63.311-63.311-63.311-34.648.001-62.737 27.838-63.263 62.356zm-41.479 129.636c34.962 0 63.307-28.354 63.307-63.311 0-34.962-28.345-63.311-63.307-63.311-34.965 0-63.322 28.348-63.322 63.311.001 34.957 28.357 63.311 63.322 63.311zm26.856 4.309h-53.717c-44.697 0-81.069 36.369-81.069 81.072v65.703l.171 1.029 4.522 1.406c42.658 13.323 79.718 17.779 110.224 17.779 59.571 0 94.114-16.987 96.242-18.074l4.231-2.141h.449v-65.703c.001-44.702-36.35-81.071-81.053-81.071zm104.756-65.356h-53.314c-.579 21.332-9.683 40.542-24.081 54.35 39.732 11.815 68.802 48.657 68.802 92.178v20.245c52.629-1.938 82.963-16.846 84.961-17.851l4.232-2.152h.449v-65.715c.006-44.691-36.363-81.055-81.049-81.055zm14.251-132.295c19.961 12.519 33.957 33.691 36.511 58.277 8.134 3.801 17.171 5.99 26.746 5.99 34.975 0 63.316-28.342 63.316-63.304 0-34.972-28.342-63.311-63.316-63.311-34.643-.004-62.73 27.839-63.257 62.348zm90.121 68.589h-53.303c-.579 21.332-9.682 40.542-24.08 54.349 39.731 11.811 68.801 48.658 68.801 92.179v20.245c52.624-1.934 82.964-16.84 84.962-17.852l4.226-2.145h.455v-65.723c.006-44.687-36.363-81.053-81.061-81.053zm-347.073 59.386c12.386 0 23.903-3.618 33.67-9.777 3.106-20.241 13.958-37.932 29.454-49.975.065-1.188.174-2.361.174-3.561 0-34.971-28.351-63.311-63.298-63.311-34.977 0-63.316 28.339-63.316 63.311 0 34.973 28.338 63.313 63.316 63.313zm56.858 58.67c-14.331-13.742-23.404-32.847-24.072-54.055-1.971-.147-3.928-.295-5.943-.295H81.069C36.366 281.364 0 317.728 0 362.425v65.709l.166 1.023 4.528 1.412c34.214 10.699 64.761 15.616 91.292 17.153v-19.837c.005-43.514 29.068-80.362 68.809-92.171z"/></symbol><symbol id="shapes-people" viewBox="0 0 28 28"><path d="M6 18V8s.005-.45.239-1H2S0 7 0 9v7c0 2 2 2 2 2v10h6v-8s-2 0-2-2zM6 6a2.97 2.97 0 0 0 1.427-.376c.059-.036.125-.068.188-.103A2.99 2.99 0 0 0 9 3a3 3 0 1 0-3 3zM26 7h-4.238c.233.55.238 1 .238 1v10c0 2-2 2-2 2v8h6V18s2 0 2-2V9s0-2-2-2zM20.38 5.519c.065.035.134.068.194.105C21 5.856 21.48 6 22 6a3 3 0 1 0-3-3c0 1.059.552 1.985 1.38 2.519z"/><circle cx="14" cy="3" r="3"/><path d="M20 9s0-2-2-2h-8S8 7 8 9v7c0 2 2 2 2 2v10h8V18s2 0 2-2V9z"/></symbol><symbol id="shapes-receiving-email" viewBox="0 0 297 297"><path d="M199.149 51.927l47.719 47.787c1.943 1.946 3.533 1.288 3.533-1.462V25.959c0-2.75-2.012-3.992-4.471-2.762L200.087 46.15c-2.459 1.231-2.881 3.83-.938 5.777zM52.377 12.443l83.591 41.852c2.459 1.23 6.482 1.23 8.941 0l83.595-41.852c2.459-1.231 2.221-2.238-.529-2.238H52.906c-2.75 0-2.988 1.008-.529 2.238zM174.687 58.756l-29.734 14.156c-2.483 1.183-6.546 1.183-9.029 0l-29.731-14.154c-2.483-1.183-6.104-.558-8.048 1.389l-58.576 58.658c-1.943 1.946-1.283 3.538 1.467 3.538h198.811c2.75 0 3.41-1.592 1.467-3.538l-58.578-58.66c-1.944-1.947-5.565-2.572-8.049-1.389zM34.011 99.716l47.721-47.787c1.943-1.946 1.521-4.546-.938-5.776L34.948 23.198c-2.459-1.231-4.471.012-4.471 2.762v72.294c0 2.75 1.59 3.408 3.534 1.462zM284.991 176.114l-23.195-7.732c-8.521-2.84-22.842-5.164-31.823-5.164H118.151c-8.981 0-16.33 7.349-16.33 16.331v3.46c0 8.981 7.349 16.33 16.33 16.33h39.58c8.982 0 11.135 5.196 4.783 11.548l-13.024 13.025c-6.352 6.351-18.823 10.509-27.715 9.238l-94.087-13.441c-8.893-1.271-20.23 1.755-25.196 6.721-4.966 4.967-2.275 11.925 5.981 15.463l96.398 41.314c8.256 3.538 22.141 4.651 30.854 2.473l40.556-10.14c8.713-2.179 22.56-6.942 30.77-10.587l10.827-4.807c8.21-3.645 22.275-6.706 31.257-6.802l16.961-.181c8.98-.096 18.125-7.301 20.318-16.011l10.083-40.038c2.192-8.709-2.984-18.16-11.506-21z"/></symbol><symbol id="shapes-recycle" viewBox="0 0 89.312 89.312"><path d="M71.519 15.681v-.44a3.96 3.96 0 0 0-3.961-3.96h-9.627c.023-.009.039-.018.064-.026 2.213-.728.77-.764.77-.764L51.72 3.393l-3.756.427s-.184 1.97-1.42 2.983a2.14 2.14 0 0 0-.426.475c.059-.167-.455-.181-.455-.181L38.62 0l-3.758.428s-.184 1.97-1.418 2.983c-1.234 1.013-.527 2.249-.527 2.249l-1.395 1.384.863.871S30.559 9.71 30.24 11.28h-2.77c.822-2.003.711-5.785.711-5.785s-3.457 1.734-2.414-.35c1.041-2.084 0-1.084 0-1.084h-10l-2.344 2.968s1.27 1.518 1.119 3.108c-.047.494.061.858.221 1.143H9.476a3.96 3.96 0 0 0-3.959 3.96v.44c0 2.188 1.773 6.271 3.959 6.271h2.521l3.367 64.857a2.642 2.642 0 0 0 2.637 2.505H59.36a2.64 2.64 0 0 0 2.637-2.517L65.06 21.95h2.496c2.189.001 3.963-4.082 3.963-6.269zm-26.625-7.82c.792-.261 1.113-.432 1.201-.545-.555.875-.078 1.736-.078 1.736l-.461.458c-.934-.413-2.178-1.149-.662-1.649zm.261 3.113l.305.307h-.648c.119-.105.234-.208.343-.307zM25.935 59.21c-1.566.911-2.244-.49-2.244-.49-.168-.78-.262-1.59-.262-2.425 0-5.973 4.514-10.84 10.115-10.99l-3.953-2.604c-.75-.495-.98-1.538-.514-2.332.465-.797 1.451-1.039 2.197-.546l6.816 4.489c.359.237.615.615.711 1.053.096.437.025.897-.199 1.279l-4.234 7.227c-.301.516-.822.8-1.355.8-.289 0-.578-.082-.842-.255-.75-.494-.979-1.537-.514-2.333l1.99-3.397c-3.889.09-7.025 3.465-7.025 7.609 0 .395.037.773.092 1.15 0 0 .359 1.168-.779 1.765zm20.546 8.478a11.559 11.559 0 0 1-1.896 1.532c-5.021 3.234-11.561 2.076-14.719-2.552l-.047 4.734c-.012.896-.762 1.656-1.684 1.694-.92.039-1.658-.657-1.648-1.554l.082-8.16c.006-.432.186-.852.5-1.17a1.799 1.799 0 0 1 1.184-.525l8.369-.353a1.572 1.572 0 0 1 1.406.706c.156.242.244.531.24.845-.01.897-.762 1.656-1.682 1.695l-3.936.168c2.182 3.221 6.719 4.028 10.205 1.784.328-.213.629-.45.916-.699 0 0 .787-.936 1.906-.303 1.615.827.804 2.158.804 2.158zm10.059-9.312l-6.814 4.487a1.7 1.7 0 0 1-1.25.236 1.777 1.777 0 0 1-1.096-.688l-4.965-6.745a1.575 1.575 0 0 1-.201-1.563c.115-.265.307-.498.568-.672.75-.492 1.799-.292 2.346.45l2.334 3.172c1.455-3.608-.406-7.823-4.215-9.463a7.98 7.98 0 0 0-1.092-.37s-1.215-.131-1.314-1.412c-.217-1.799 1.34-1.869 1.34-1.869.783.156 1.563.389 2.328.718 5.488 2.362 8.176 8.432 6.102 13.636l3.953-2.604c.75-.492 1.801-.291 2.346.45.546.744.38 1.746-.37 2.237zm2.139-33.375H17.843l-.559-3.05h42.493l-1.098 3.05zm25.117 55.905s-2.975 3.131-5.008 3.711-.445 1.897-.445 1.897l-1.607-.377-.973.722-.854-1.15s-3.551-.146-6.301-1.479S69.835 79 69.835 79l-.863-.871 1.395-1.384s-.707-1.235.527-2.249 1.418-2.983 1.418-2.983l3.758-.428 7.043 7.098s1.445.036-.77.765c-2.213.726 1.453 1.958 1.453 1.958z"/></symbol><symbol id="shapes-safe" viewBox="0 0 442.662 442.662"><path d="M370.751 84.98h14.198v42.955h-14.198a5.608 5.608 0 0 1-5.604-5.603V90.583a5.615 5.615 0 0 1 5.604-5.603zm-5.604 183.98v31.748a5.608 5.608 0 0 0 5.604 5.604h14.198v-42.955h-14.198a5.613 5.613 0 0 0-5.604 5.603zm-170.201-95.29l-30.758-30.752c-11.7 13.516-18.833 31.094-18.833 50.342 0 19.24 7.133 36.815 18.84 50.342l30.75-30.76V173.67zm47.101-7.923l30.742-30.752c-13.514-11.699-31.103-18.832-50.336-18.832-19.243 0-36.822 7.133-50.342 18.832l30.751 30.752h39.185zm7.913 7.923v39.178l30.753 30.754c11.699-13.526 18.829-31.108 18.829-50.336 0-19.237-7.119-36.816-18.829-50.343L249.96 173.67zM384.949 48.974v24.799h-14.198c-9.271 0-16.812 7.543-16.812 16.81v31.749c0 9.267 7.541 16.81 16.812 16.81h14.198V252.15h-14.198c-9.271 0-16.812 7.541-16.812 16.811v31.748c0 9.27 7.541 16.811 16.812 16.811h14.198v20.026a5.611 5.611 0 0 1-5.604 5.604H65.56a5.61 5.61 0 0 1-5.603-5.604V48.974c0-3.1 2.51-5.604 5.603-5.604h313.786a5.606 5.606 0 0 1 5.603 5.604zM310.762 193.26c0-48.7-39.613-88.31-88.309-88.31-48.7 0-88.311 39.604-88.311 88.31 0 48.689 39.61 88.307 88.311 88.307 48.695-.001 88.309-39.618 88.309-88.307zm-107.893 27.502l-30.758 30.764c13.52 11.7 31.099 18.83 50.342 18.83 19.238 0 36.822-7.13 50.336-18.83l-30.752-30.764h-39.168zM421.179 0V442.662H316.588l-7.848-42.953H133.918l-7.844 42.953H21.483V0h399.696zm-11.206 90.583c0-8.244-5.974-15.078-13.817-16.501V48.98c0-9.27-7.545-16.811-16.81-16.811H65.56c-9.27 0-16.809 7.541-16.809 16.811v288.571c0 9.267 7.539 16.812 16.809 16.812h313.786c9.265 0 16.81-7.545 16.81-16.812v-20.322c7.844-1.429 13.817-8.269 13.817-16.515V268.96c0-8.241-5.974-15.081-13.817-16.505V138.843c7.844-1.422 13.817-8.263 13.817-16.511V90.583z"/></symbol><symbol id="shapes-send-mail" viewBox="0 0 493.595 493.595"><path d="M487.077 83.395a33.653 33.653 0 0 0-35.352-12.73L25.442 177.971a33.657 33.657 0 0 0-25.079 27.71 33.656 33.656 0 0 0 15.979 33.784l90.143 54.086v118.643a11.756 11.756 0 0 0 18.975 9.277l84.547-65.805 69.455 41.672a33.494 33.494 0 0 0 17.284 4.801c11.308 0 22.341-5.699 28.694-16.023l163.162-265.178a33.653 33.653 0 0 0-1.525-37.543zm-192.347 276.7L189.042 296.68l107.223-92.395a4.07 4.07 0 0 0 .834-5.179 4.07 4.07 0 0 0-4.96-1.704l-163.321 63.145-79.325-47.597 397.313-100.013L294.73 360.095z"/></symbol><symbol id="shapes-trolley" viewBox="0 0 512 512"><path d="M280.844 512c-4.396 0-8.82-.53-13.199-1.598-14.352-3.498-26.479-12.374-34.15-24.996-14.14-23.257-9.029-52.916 10.763-70.281L97.484 173.679l-.048-.077L8.504 27.301c-2.751-4.528-1.312-10.43 3.213-13.18 4.528-2.749 10.431-1.312 13.181 3.213l83.996 138.181 40.834-24.824-42.678-70.209a9.585 9.585 0 0 1-1.122-7.255 9.59 9.59 0 0 1 4.338-5.926L185.78 1.396a9.568 9.568 0 0 1 7.255-1.122 9.58 9.58 0 0 1 5.924 4.336l42.681 70.211 28.303-17.205c4.525-2.75 10.43-1.314 13.181 3.214L375.08 212.1l16.977-10.319a9.53 9.53 0 0 1 7.254-1.123 9.58 9.58 0 0 1 5.924 4.336l73.143 120.324 11.94-7.257c4.527-2.749 10.427-1.312 13.18 3.214 2.751 4.527 1.313 10.43-3.213 13.18L480.2 346.664c-.017.012-.036.021-.053.034-.017.012-.036.021-.053.033l-147.824 89.86c9.578 24.528.458 53.208-22.8 67.343-8.772 5.33-18.621 8.066-28.626 8.066zm-.158-91.419a35.892 35.892 0 0 0-18.699 5.245c-17.013 10.344-22.439 32.601-12.099 49.613 5.01 8.243 12.932 14.039 22.301 16.327 9.372 2.28 19.07.784 27.313-4.229 17.006-10.338 22.436-32.574 12.118-49.587l-.017-.026c-.005-.007-.007-.015-.012-.021-6.794-11.154-18.711-17.322-30.905-17.322zm-.033-19.181c15.636 0 30.965 6.619 41.646 18.795l139.682-84.91-68.158-112.125-16.912 10.278a.642.642 0 0 1-.065.041l-161.047 97.896 44.854 73.785a54.941 54.941 0 0 1 20-3.76zM175.094 264.414l30.739 50.568 48.985-29.778c.015-.007.029-.017.046-.026l103.819-63.111-86.971-143.071-28.244 17.166c-.019.015-.04.026-.06.039l-75.517 45.904c-.028.017-.055.036-.084.05l-48.946 29.752 56.233 92.507zM128.425 58.712l37.699 62.015 59.123-35.939-37.697-62.015-59.125 35.939z"/></symbol><symbol id="shapes-user-silhouette" viewBox="0 0 409.165 409.164"><path d="M204.583 216.671c50.664 0 91.74-48.075 91.74-107.378 0-82.237-41.074-107.377-91.74-107.377-50.668 0-91.74 25.14-91.74 107.377.001 59.303 41.073 107.378 91.74 107.378zM407.164 374.717L360.88 270.454a23.23 23.23 0 0 0-10.465-11.138l-71.83-37.392a4.628 4.628 0 0 0-4.926.415c-20.316 15.366-44.203 23.488-69.076 23.488-24.877 0-48.762-8.122-69.078-23.488a4.635 4.635 0 0 0-4.93-.415L58.75 259.316a23.222 23.222 0 0 0-10.465 11.138L2.001 374.717a23.059 23.059 0 0 0 1.75 22.005 23.056 23.056 0 0 0 19.4 10.526h362.861a23.063 23.063 0 0 0 19.402-10.527 23.063 23.063 0 0 0 1.75-22.004z"/></symbol></svg>